<?xml version="1.0" encoding="UTF-8" standalone="no"?>
<!-- Created with Inkscape (http://www.inkscape.org/) -->

<svg
   xmlns:dc="http://purl.org/dc/elements/1.1/"
   xmlns:cc="http://creativecommons.org/ns#"
   xmlns:rdf="http://www.w3.org/1999/02/22-rdf-syntax-ns#"
   xmlns:svg="http://www.w3.org/2000/svg"
   xmlns="http://www.w3.org/2000/svg"
   xmlns:sodipodi="http://sodipodi.sourceforge.net/DTD/sodipodi-0.dtd"
   xmlns:inkscape="http://www.inkscape.org/namespaces/inkscape"
   id="svg5850"
   version="1.1"
   inkscape:version="0.48.4 r9939"
   width="1052.5"
   height="743.75"
   xml:space="preserve"
   sodipodi:docname="equipment mounts.svg"><metadata
     id="metadata5856"><rdf:RDF><cc:Work
         rdf:about=""><dc:format>image/svg+xml</dc:format><dc:type
           rdf:resource="http://purl.org/dc/dcmitype/StillImage" /><dc:title /></cc:Work></rdf:RDF></metadata><defs
     id="defs5854"><clipPath
       clipPathUnits="userSpaceOnUse"
       id="clipPath5866"><path
         d="m 281,3196 3896,0 0,3234 -3896,0 0,-3234"
         id="path5868"
         inkscape:connector-curvature="0" /></clipPath><clipPath
       clipPathUnits="userSpaceOnUse"
       id="clipPath6118"><path
         d="m 352,2187 3754,0 0,1510 -3754,0 0,-1510"
         id="path6120"
         inkscape:connector-curvature="0" /></clipPath><clipPath
       clipPathUnits="userSpaceOnUse"
       id="clipPath6274"><path
         d="m 3691,3338 1231,0 0,2950 -1231,0 0,-2950"
         id="path6276"
         inkscape:connector-curvature="0" /></clipPath><clipPath
       clipPathUnits="userSpaceOnUse"
       id="clipPath6358"><path
         d="m 0,0 4923,0 0,6978 L 0,6978 0,0"
         id="path6360"
         inkscape:connector-curvature="0" /></clipPath><clipPath
       clipPathUnits="userSpaceOnUse"
       id="clipPath8158"><path
         d="m 0,0 4923,0 0,6978 L 0,6978 0,0"
         id="path8160"
         inkscape:connector-curvature="0" /></clipPath><clipPath
       clipPathUnits="userSpaceOnUse"
       id="clipPath8170"><path
         d="m 0,0 4923,0 0,6978 L 0,6978 0,0"
         id="path8172"
         inkscape:connector-curvature="0" /></clipPath><clipPath
       clipPathUnits="userSpaceOnUse"
       id="clipPath5866-3"><path
         inkscape:connector-curvature="0"
         d="m 281,3196 3896,0 0,3234 -3896,0 0,-3234"
         id="path5868-4" /></clipPath></defs><sodipodi:namedview
     pagecolor="#ffffff"
     bordercolor="#666666"
     borderopacity="1"
     objecttolerance="10"
     gridtolerance="10"
     guidetolerance="10"
     inkscape:pageopacity="0"
     inkscape:pageshadow="2"
     inkscape:window-width="1366"
     inkscape:window-height="705"
     id="namedview5852"
     showgrid="true"
     inkscape:zoom="0.28"
     inkscape:cx="894.39403"
     inkscape:cy="472.15767"
     inkscape:window-x="-8"
     inkscape:window-y="-8"
     inkscape:window-maximized="1"
     inkscape:current-layer="g5858"
     inkscape:document-units="mm"
     units="mm"
     showguides="true"
     inkscape:guide-bbox="true"
     inkscape:snap-bbox="true"
     inkscape:snap-bbox-edge-midpoints="true"
     inkscape:snap-object-midpoints="true"><inkscape:grid
       type="xygrid"
       id="grid12199"
       empspacing="5"
       visible="true"
       enabled="true"
       snapvisiblegridlinesonly="true"
       units="mm"
       spacingx="1mm"
       spacingy="1mm" /><sodipodi:guide
       orientation="1,0"
       position="425.19685,336.61417"
       id="guide12229" /><sodipodi:guide
       orientation="1,0"
       position="318.89764,-9.375"
       id="guide3357" /><sodipodi:guide
       orientation="0,1"
       position="318.89764,53.149606"
       id="guide3359" /><sodipodi:guide
       orientation="1,0"
       position="531.49606,6.6964286"
       id="guide3361" /><sodipodi:guide
       orientation="1,0"
       position="212.59843,-41.964286"
       id="guide3363" /><sodipodi:guide
       orientation="1,0"
       position="637.79528,-45.535714"
       id="guide3365" /><sodipodi:guide
       orientation="1,0"
       position="106.29921,-53.149606"
       id="guide3367" /><sodipodi:guide
       orientation="0,1"
       position="177.16535,372.04724"
       id="guide3369" /><sodipodi:guide
       orientation="0,1"
       position="265.74803,159.44882"
       id="guide3371" /><sodipodi:guide
       orientation="0,1"
       position="283.46457,265.74803"
       id="guide3373" /><sodipodi:guide
       orientation="1,0"
       position="744.09449,-98.214286"
       id="guide3396" /><sodipodi:guide
       orientation="0,1"
       position="35.433071,-63.765879"
       id="guide3398" /><sodipodi:guide
       orientation="0,1"
       position="318.89764,-173.62205"
       id="guide3421" /><sodipodi:guide
       orientation="1,0"
       position="0,-114.90485"
       id="guide3510" /><sodipodi:guide
       orientation="1,0"
       position="850.3937,-63.765879"
       id="guide3512" /><sodipodi:guide
       orientation="1,0"
       position="1346.4567,106.29921"
       id="guide4657" /><sodipodi:guide
       orientation="0,1"
       position="1293.3071,478.34646"
       id="guide4659" /><sodipodi:guide
       orientation="0,1"
       position="992.12598,584.64567"
       id="guide4661" /><sodipodi:guide
       orientation="1,0"
       position="1665.3543,318.89764"
       id="guide4690" /><sodipodi:guide
       orientation="1,0"
       position="1027.5591,357.874"
       id="guide4692" /><sodipodi:guide
       orientation="1,0"
       position="145.27559,690.94488"
       id="guide3165" /><sodipodi:guide
       orientation="1,0"
       position="244.48819,676.77165"
       id="guide3167" /><sodipodi:guide
       orientation="0,1"
       position="173.62205,747.6378"
       id="guide3169" /><sodipodi:guide
       orientation="0,1"
       position="177.16535,673.22835"
       id="guide3171" /><sodipodi:guide
       orientation="1,0"
       position="705.11811,659.05512"
       id="guide3205" /><sodipodi:guide
       orientation="1,0"
       position="605.90551,644.88189"
       id="guide3232" /><sodipodi:guide
       orientation="0,1"
       position="170.07874,623.62205"
       id="guide3248" /><sodipodi:guide
       orientation="0,1"
       position="240.94488,549.2126"
       id="guide3264" /><sodipodi:guide
       orientation="0,1"
       position="393.30709,726.37795"
       id="guide3308" /><sodipodi:guide
       orientation="1,0"
       position="379.13386,701.5748"
       id="guide3312" /><sodipodi:guide
       orientation="1,0"
       position="471.25984,701.5748"
       id="guide3314" /><sodipodi:guide
       orientation="0,1"
       position="421.65354,602.3622"
       id="guide3341" /><sodipodi:guide
       orientation="1,0"
       position="1300.3937,690.94488"
       id="guide3358" /><sodipodi:guide
       orientation="1,0"
       position="1392.5197,676.77165"
       id="guide3360" /><sodipodi:guide
       orientation="1,0"
       position="1527.1654,669.68504"
       id="guide3390" /><sodipodi:guide
       orientation="1,0"
       position="1165.6627,616.59939"
       id="guide3392" /><sodipodi:guide
       orientation="1,0"
       position="1626.378,612.99213"
       id="guide3394" /><sodipodi:guide
       orientation="1,0"
       position="1066.5354,520.86614"
       id="guide3463" /></sodipodi:namedview><g
     id="g5858"
     inkscape:groupmode="layer"
     inkscape:label="Equipment mount"
     transform="matrix(1.25,0,0,-1.25,0,743.75)"><path
       transform="scale(1,-1)"
       style="fill:#441650;fill-opacity:1;stroke:none"
       d="m -14.173255,28.346457 708.661465,0 c 7.85196,0 14.17321,6.321248 14.17321,14.173203 l 0,102.0473 c 0,7.85196 -6.32125,14.1732 -14.17321,14.1732 l -708.661465,0 c -7.851955,0 -14.173203,-6.32124 -14.173203,-14.1732 l 0,-102.0473 c 0,-7.851955 6.321248,-14.173203 14.173203,-14.173203 z"
       id="rect3427" /><path
       transform="scale(1,-1)"
       style="fill:#afafe9;fill-opacity:1;stroke:none"
       d="m 46.591303,-624.05615 568.560947,0 c 15.25193,0 27.53056,12.27863 27.53056,27.53056 l 0,567.745029 c 0,15.251931 -12.27863,27.530561 -27.53056,27.530561 l -568.560947,0 c -15.251931,0 -27.530562,-12.27863 -27.530562,-27.530561 l 0,-567.745029 c 0,-15.25193 12.278631,-27.53056 27.530562,-27.53056 z"
       id="rect12276" /><path
       transform="scale(1,-1)"
       style="fill:#0b1728;fill-opacity:1;stroke:none"
       d="m 85.01298,-229.60629 c 4.725803,0 8.53033,3.80452 8.53033,8.53033 l 0,170.025946 c 0,4.725803 -3.804527,8.53033 -8.53033,8.53033 -4.725802,0 -8.530329,-3.804527 -8.530329,-8.53033 l 0,-170.025946 c 0,-4.72581 3.804527,-8.53033 8.530329,-8.53033 z"
       id="rect12284" /><path
       transform="scale(1,-1)"
       style="fill:#0b1728;fill-opacity:1;stroke:none"
       d="m 595.80603,-229.60629 c 4.7258,0 8.53033,3.80452 8.53033,8.53033 l 0,170.025946 c 0,4.725803 -3.80453,8.53033 -8.53033,8.53033 -4.72581,0 -8.53033,-3.804527 -8.53033,-8.53033 l 0,-170.025946 c 0,-4.72581 3.80452,-8.53033 8.53033,-8.53033 z"
       id="rect12284-5" /><path
       transform="scale(1,-1)"
       style="fill:#0b1728;fill-opacity:1;stroke:none"
       d="m 255.09172,-354.33072 c 4.7258,0 8.53033,3.80453 8.53033,8.53033 l 0,294.750376 c 0,4.725803 -3.80453,8.53033 -8.53033,8.53033 -4.72581,0 -8.53033,-3.804527 -8.53033,-8.53033 l 0,-294.750376 c 0,-4.7258 3.80452,-8.53033 8.53033,-8.53033 z"
       id="rect12284-0" /><path
       transform="scale(1,-1)"
       style="fill:#0b1728;fill-opacity:1;stroke:none"
       d="m 425.22323,-354.33072 c 4.7258,0 8.53033,3.80453 8.53033,8.53033 l 0,294.750376 c 0,4.725803 -3.80453,8.53033 -8.53033,8.53033 -4.7258,0 -8.53033,-3.804527 -8.53033,-8.53033 l 0,-294.750376 c 0,-4.7258 3.80453,-8.53033 8.53033,-8.53033 z"
       id="rect12284-3" /><path
       transform="matrix(0,-1,-1,0,0,0)"
       style="fill:#0b1728;fill-opacity:1;stroke:none"
       d="m -51.050015,-396.8504 c 4.725802,0 8.530329,3.80452 8.530329,8.53033 l 0,96.32517 c 0,4.7258 -3.804527,8.53033 -8.530329,8.53033 -4.725803,0 -8.53033,-3.80453 -8.53033,-8.53033 l 0,-96.32517 c 0,-4.72581 3.804527,-8.53033 8.53033,-8.53033 z"
       id="rect12284-0-7" /><path
       transform="matrix(0,-1,-1,0,0,0)"
       style="fill:#0b1728;fill-opacity:1;stroke:none"
       d="m -221.12874,-396.8504 c 4.7258,0 8.53033,3.80452 8.53033,8.53033 l 0,96.32517 c 0,4.7258 -3.80453,8.53033 -8.53033,8.53033 -4.72581,0 -8.53033,-3.80453 -8.53033,-8.53033 l 0,-96.32517 c 0,-4.72581 3.80452,-8.53033 8.53033,-8.53033 z"
       id="rect12284-0-7-9" /><path
       transform="matrix(0,-1,-1,0,0,0)"
       style="fill:#0b1728;fill-opacity:1;stroke:none"
       d="m -136.08938,-396.8504 c 4.72581,0 8.53033,3.80452 8.53033,8.53033 l 0,96.32517 c 0,4.7258 -3.80452,8.53033 -8.53033,8.53033 -4.7258,0 -8.53033,-3.80453 -8.53033,-8.53033 l 0,-96.32517 c 0,-4.72581 3.80453,-8.53033 8.53033,-8.53033 z"
       id="rect12284-0-7-3" /><path
       transform="matrix(0,-1,-1,0,0,0)"
       style="fill:#0b1728;fill-opacity:1;stroke:none"
       d="m -51.050019,-226.77165 c 4.725802,0 8.530329,3.80452 8.530329,8.53033 l 0,96.32517 c 0,4.7258 -3.804527,8.53033 -8.530329,8.53033 -4.725803,0 -8.53033,-3.80453 -8.53033,-8.53033 l 0,-96.32517 c 0,-4.72581 3.804527,-8.53033 8.53033,-8.53033 z"
       id="rect12284-0-7-5" /><path
       transform="matrix(0,-1,-1,0,0,0)"
       style="fill:#0b1728;fill-opacity:1;stroke:none"
       d="m -221.12876,-226.77165 c 4.7258,0 8.53033,3.80452 8.53033,8.53033 l 0,96.32517 c 0,4.7258 -3.80453,8.53033 -8.53033,8.53033 -4.7258,0 -8.53033,-3.80453 -8.53033,-8.53033 l 0,-96.32517 c 0,-4.72581 3.80453,-8.53033 8.53033,-8.53033 z"
       id="rect12284-0-7-9-2" /><path
       transform="matrix(0,-1,-1,0,0,0)"
       style="fill:#0b1728;fill-opacity:1;stroke:none"
       d="m -136.08939,-226.77165 c 4.7258,0 8.53033,3.80452 8.53033,8.53033 l 0,96.32517 c 0,4.7258 -3.80453,8.53033 -8.53033,8.53033 -4.7258,0 -8.53033,-3.80453 -8.53033,-8.53033 l 0,-96.32517 c 0,-4.72581 3.80453,-8.53033 8.53033,-8.53033 z"
       id="rect12284-0-7-3-3" /><path
       transform="matrix(0,-1,-1,0,0,0)"
       style="fill:#0b1728;fill-opacity:1;stroke:none"
       d="m -51.050015,-566.92914 c 4.725802,0 8.530329,3.32896 8.530329,7.46404 l 0,84.28454 c 0,4.13508 -3.804527,7.46404 -8.530329,7.46404 -4.725803,0 -8.53033,-3.32896 -8.53033,-7.46404 l 0,-84.28454 c 0,-4.13508 3.804527,-7.46404 8.53033,-7.46404 z"
       id="rect12284-0-7-5-3" /><path
       transform="matrix(0,-1,-1,0,0,0)"
       style="fill:#0b1728;fill-opacity:1;stroke:none"
       d="m -221.12874,-566.92914 c 4.7258,0 8.53033,3.32896 8.53033,7.46404 l 0,84.28454 c 0,4.13508 -3.80453,7.46404 -8.53033,7.46404 -4.72581,0 -8.53033,-3.32896 -8.53033,-7.46404 l 0,-84.28454 c 0,-4.13508 3.80452,-7.46404 8.53033,-7.46404 z"
       id="rect12284-0-7-9-2-4" /><path
       transform="matrix(0,-1,-1,0,0,0)"
       style="fill:#0b1728;fill-opacity:1;stroke:none"
       d="m -136.08938,-566.92914 c 4.72581,0 8.53033,3.32896 8.53033,7.46404 l 0,84.28454 c 0,4.13508 -3.80452,7.46404 -8.53033,7.46404 -4.7258,0 -8.53033,-3.32896 -8.53033,-7.46404 l 0,-84.28454 c 0,-4.13508 3.80453,-7.46404 8.53033,-7.46404 z"
       id="rect12284-0-7-3-3-1" /><path
       transform="scale(1,-1)"
       style="fill:#0b1728;fill-opacity:1;stroke:none"
       d="m 85.426295,-484.7244 c 4.725803,0 8.53033,3.80453 8.53033,8.53033 l 0,170.02595 c 0,4.72581 -3.804527,8.53033 -8.53033,8.53033 -4.725802,0 -8.530329,-3.80452 -8.530329,-8.53033 l 0,-170.02595 c 0,-4.7258 3.804527,-8.53033 8.530329,-8.53033 z"
       id="rect12284-4" /><path
       transform="scale(1,-1)"
       style="fill:#0b1728;fill-opacity:1;stroke:none"
       d="m 595.2492,-484.7244 c 4.7258,0 8.53033,3.80453 8.53033,8.53033 l 0,170.02595 c 0,4.72581 -3.80453,8.53033 -8.53033,8.53033 -4.7258,0 -8.53033,-3.80452 -8.53033,-8.53033 l 0,-170.02595 c 0,-4.7258 3.80453,-8.53033 8.53033,-8.53033 z"
       id="rect12284-09" /><path
       transform="scale(1,-1)"
       style="fill:#441650;fill-opacity:1;stroke:none"
       d="m -184.25197,-496.06299 70.86614,0 0,467.716524 -226.77165,9e-6 0,-212.598423 z"
       id="rect3074"
       inkscape:connector-curvature="0"
       sodipodi:nodetypes="cccccc" /><path
       sodipodi:type="arc"
       style="fill:#d4ff2a;fill-opacity:1;stroke:none"
       id="path3077"
       sodipodi:cx="-113.38583"
       sodipodi:cy="240.60039"
       sodipodi:rx="10.629921"
       sodipodi:ry="10.629921"
       d="m -102.75591,240.60039 c 0,5.87074 -4.75918,10.62992 -10.62992,10.62992 -5.87075,0 -10.62992,-4.75918 -10.62992,-10.62992 0,-5.87075 4.75917,-10.62992 10.62992,-10.62992 5.87074,0 10.62992,4.75917 10.62992,10.62992 z"
       transform="matrix(0.8,0,0,-0.8,-45.354325,668.70078)" /><path
       sodipodi:type="arc"
       style="fill:#d4ff2a;fill-opacity:1;stroke:none"
       id="path3077-4"
       sodipodi:cx="-113.38583"
       sodipodi:cy="240.60039"
       sodipodi:rx="10.629921"
       sodipodi:ry="10.629921"
       d="m -102.75591,240.60039 c 0,5.87074 -4.75918,10.62992 -10.62992,10.62992 -5.87075,0 -10.62992,-4.75918 -10.62992,-10.62992 0,-5.87075 4.75917,-10.62992 10.62992,-10.62992 5.87074,0 10.62992,4.75917 10.62992,10.62992 z"
       transform="matrix(0.8,0,0,-0.8,-45.354325,583.66141)" /><path
       sodipodi:type="arc"
       style="fill:#d4ff2a;fill-opacity:1;stroke:none"
       id="path3077-8"
       sodipodi:cx="-113.38583"
       sodipodi:cy="240.60039"
       sodipodi:rx="10.629921"
       sodipodi:ry="10.629921"
       d="m -102.75591,240.60039 c 0,5.87074 -4.75918,10.62992 -10.62992,10.62992 -5.87075,0 -10.62992,-4.75918 -10.62992,-10.62992 0,-5.87075 4.75917,-10.62992 10.62992,-10.62992 5.87074,0 10.62992,4.75917 10.62992,10.62992 z"
       transform="matrix(0.8,0,0,-0.8,-45.354325,498.62204)" /><path
       sodipodi:type="arc"
       style="fill:#d4ff2a;fill-opacity:1;stroke:none"
       id="path3077-82"
       sodipodi:cx="-113.38583"
       sodipodi:cy="240.60039"
       sodipodi:rx="10.629921"
       sodipodi:ry="10.629921"
       d="m -102.75591,240.60039 c 0,5.87074 -4.75918,10.62992 -10.62992,10.62992 -5.87075,0 -10.62992,-4.75918 -10.62992,-10.62992 0,-5.87075 4.75917,-10.62992 10.62992,-10.62992 5.87074,0 10.62992,4.75917 10.62992,10.62992 z"
       transform="matrix(0.8,0,0,-0.8,-45.354325,413.58268)" /><path
       sodipodi:type="arc"
       style="fill:#d4ff2a;fill-opacity:1;stroke:none"
       id="path3077-4-4"
       sodipodi:cx="-113.38583"
       sodipodi:cy="240.60039"
       sodipodi:rx="10.629921"
       sodipodi:ry="10.629921"
       d="m -102.75591,240.60039 c 0,5.87074 -4.75918,10.62992 -10.62992,10.62992 -5.87075,0 -10.62992,-4.75918 -10.62992,-10.62992 0,-5.87075 4.75917,-10.62992 10.62992,-10.62992 5.87074,0 10.62992,4.75917 10.62992,10.62992 z"
       transform="matrix(0.8,0,0,-0.8,-45.354325,328.5433)" /><path
       sodipodi:type="arc"
       style="fill:#d4ff2a;fill-opacity:1;stroke:none"
       id="path3077-8-5"
       sodipodi:cx="-113.38583"
       sodipodi:cy="240.60039"
       sodipodi:rx="10.629921"
       sodipodi:ry="10.629921"
       d="m -102.75591,240.60039 c 0,5.87074 -4.75918,10.62992 -10.62992,10.62992 -5.87075,0 -10.62992,-4.75918 -10.62992,-10.62992 0,-5.87075 4.75917,-10.62992 10.62992,-10.62992 5.87074,0 10.62992,4.75917 10.62992,10.62992 z"
       transform="matrix(0.8,0,0,-0.8,-45.354325,243.50393)" /><path
       sodipodi:type="arc"
       style="fill:#d4ff2a;fill-opacity:1;stroke:none"
       id="path3077-82-5"
       sodipodi:cx="-113.38583"
       sodipodi:cy="240.60039"
       sodipodi:rx="10.629921"
       sodipodi:ry="10.629921"
       d="m -102.75591,240.60039 c 0,5.87074 -4.75918,10.62992 -10.62992,10.62992 -5.87075,0 -10.62992,-4.75918 -10.62992,-10.62992 0,-5.87075 4.75917,-10.62992 10.62992,-10.62992 5.87074,0 10.62992,4.75917 10.62992,10.62992 z"
       transform="matrix(0.8,0,0,-0.8,-130.39369,413.58269)" /><path
       sodipodi:type="arc"
       style="fill:#d4ff2a;fill-opacity:1;stroke:none"
       id="path3077-4-4-1"
       sodipodi:cx="-113.38583"
       sodipodi:cy="240.60039"
       sodipodi:rx="10.629921"
       sodipodi:ry="10.629921"
       d="m -102.75591,240.60039 c 0,5.87074 -4.75918,10.62992 -10.62992,10.62992 -5.87075,0 -10.62992,-4.75918 -10.62992,-10.62992 0,-5.87075 4.75917,-10.62992 10.62992,-10.62992 5.87074,0 10.62992,4.75917 10.62992,10.62992 z"
       transform="matrix(0.8,0,0,-0.8,-130.39369,328.54331)" /><path
       sodipodi:type="arc"
       style="fill:#d4ff2a;fill-opacity:1;stroke:none"
       id="path3077-8-5-7"
       sodipodi:cx="-113.38583"
       sodipodi:cy="240.60039"
       sodipodi:rx="10.629921"
       sodipodi:ry="10.629921"
       d="m -102.75591,240.60039 c 0,5.87074 -4.75918,10.62992 -10.62992,10.62992 -5.87075,0 -10.62992,-4.75918 -10.62992,-10.62992 0,-5.87075 4.75917,-10.62992 10.62992,-10.62992 5.87074,0 10.62992,4.75917 10.62992,10.62992 z"
       transform="matrix(0.8,0,0,-0.8,-130.39369,243.50393)" /><path
       transform="scale(1,-1)"
       style="fill:#d4ff2a;fill-opacity:1;stroke:none"
       d="m -306.16813,-229.60629 c 4.72581,0 8.53033,3.80452 8.53033,8.53033 l 0,170.025946 c 0,4.725803 -3.80452,8.53033 -8.53033,8.53033 -4.7258,0 -8.53033,-3.804527 -8.53033,-8.53033 l 0,-170.025946 c 0,-4.72581 3.80453,-8.53033 8.53033,-8.53033 z"
       id="rect12284-1" /><path
       sodipodi:type="arc"
       style="fill:#d4ff2a;fill-opacity:1;stroke:none"
       id="path3077-82-5-1"
       sodipodi:cx="-113.38583"
       sodipodi:cy="240.60039"
       sodipodi:rx="10.629921"
       sodipodi:ry="10.629921"
       d="m -102.75591,240.60039 c 0,5.87074 -4.75918,10.62992 -10.62992,10.62992 -5.87075,0 -10.62992,-4.75918 -10.62992,-10.62992 0,-5.87075 4.75917,-10.62992 10.62992,-10.62992 5.87074,0 10.62992,4.75917 10.62992,10.62992 z"
       transform="matrix(0.8,0,0,-0.8,-133.22833,498.62204)" /><path
       style="fill:#441650;fill-opacity:1;stroke:none"
       d="m -496.06299,255.11811 70.86614,0 -1e-5,-226.771637 -141.73227,-1.6e-5 0,127.559053 z"
       id="rect3074-5"
       inkscape:connector-curvature="0"
       sodipodi:nodetypes="cccccc" /><path
       sodipodi:type="arc"
       style="fill:#d4ff2a;fill-opacity:1;stroke:none"
       id="path3077-82-1"
       sodipodi:cx="-113.38583"
       sodipodi:cy="240.60039"
       sodipodi:rx="10.629921"
       sodipodi:ry="10.629921"
       d="m -102.75591,240.60039 c 0,5.87074 -4.75918,10.62992 -10.62992,10.62992 -5.87075,0 -10.62992,-4.75918 -10.62992,-10.62992 0,-5.87075 4.75917,-10.62992 10.62992,-10.62992 5.87074,0 10.62992,4.75917 10.62992,10.62992 z"
       transform="matrix(0.8,0,0,-0.8,-357.16535,413.58268)" /><path
       sodipodi:type="arc"
       style="fill:#d4ff2a;fill-opacity:1;stroke:none"
       id="path3077-4-4-4"
       sodipodi:cx="-113.38583"
       sodipodi:cy="240.60039"
       sodipodi:rx="10.629921"
       sodipodi:ry="10.629921"
       d="m -102.75591,240.60039 c 0,5.87074 -4.75918,10.62992 -10.62992,10.62992 -5.87075,0 -10.62992,-4.75918 -10.62992,-10.62992 0,-5.87075 4.75917,-10.62992 10.62992,-10.62992 5.87074,0 10.62992,4.75917 10.62992,10.62992 z"
       transform="matrix(0.8,0,0,-0.8,-357.16535,328.5433)" /><path
       sodipodi:type="arc"
       style="fill:#d4ff2a;fill-opacity:1;stroke:none"
       id="path3077-8-5-2"
       sodipodi:cx="-113.38583"
       sodipodi:cy="240.60039"
       sodipodi:rx="10.629921"
       sodipodi:ry="10.629921"
       d="m -102.75591,240.60039 c 0,5.87074 -4.75918,10.62992 -10.62992,10.62992 -5.87075,0 -10.62992,-4.75918 -10.62992,-10.62992 0,-5.87075 4.75917,-10.62992 10.62992,-10.62992 5.87074,0 10.62992,4.75917 10.62992,10.62992 z"
       transform="matrix(0.8,0,0,-0.8,-357.16535,243.50393)" /><path
       sodipodi:type="arc"
       style="fill:#d4ff2a;fill-opacity:1;stroke:none"
       id="path3077-4-4-1-2"
       sodipodi:cx="-113.38583"
       sodipodi:cy="240.60039"
       sodipodi:rx="10.629921"
       sodipodi:ry="10.629921"
       d="m -102.75591,240.60039 c 0,5.87074 -4.75918,10.62992 -10.62992,10.62992 -5.87075,0 -10.62992,-4.75918 -10.62992,-10.62992 0,-5.87075 4.75917,-10.62992 10.62992,-10.62992 5.87074,0 10.62992,4.75917 10.62992,10.62992 z"
       transform="matrix(0.8,0,0,-0.8,-442.20472,328.54331)" /><path
       sodipodi:type="arc"
       style="fill:#d4ff2a;fill-opacity:1;stroke:none"
       id="path3077-8-5-7-2"
       sodipodi:cx="-113.38583"
       sodipodi:cy="240.60039"
       sodipodi:rx="10.629921"
       sodipodi:ry="10.629921"
       d="m -102.75591,240.60039 c 0,5.87074 -4.75918,10.62992 -10.62992,10.62992 -5.87075,0 -10.62992,-4.75918 -10.62992,-10.62992 0,-5.87075 4.75917,-10.62992 10.62992,-10.62992 5.87074,0 10.62992,4.75917 10.62992,10.62992 z"
       transform="matrix(0.8,0,0,-0.8,-442.20472,243.50393)" /><path
       sodipodi:type="arc"
       style="fill:#d4ff2a;fill-opacity:1;stroke:none"
       id="path3077-2"
       sodipodi:cx="-113.38583"
       sodipodi:cy="240.60039"
       sodipodi:rx="10.629921"
       sodipodi:ry="10.629921"
       d="m -102.75591,240.60039 c 0,5.87074 -4.75918,10.62992 -10.62992,10.62992 -5.87075,0 -10.62992,-4.75918 -10.62992,-10.62992 0,-5.87075 4.75917,-10.62992 10.62992,-10.62992 5.87074,0 10.62992,4.75917 10.62992,10.62992 z"
       transform="matrix(0,0.8,0.8,0,-107.44094,39.685045)" /><path
       sodipodi:type="arc"
       style="fill:#d4ff2a;fill-opacity:1;stroke:none"
       id="path3077-4-7"
       sodipodi:cx="-113.38583"
       sodipodi:cy="240.60039"
       sodipodi:rx="10.629921"
       sodipodi:ry="10.629921"
       d="m -102.75591,240.60039 c 0,5.87074 -4.75918,10.62992 -10.62992,10.62992 -5.87075,0 -10.62992,-4.75918 -10.62992,-10.62992 0,-5.87075 4.75917,-10.62992 10.62992,-10.62992 5.87074,0 10.62992,4.75917 10.62992,10.62992 z"
       transform="matrix(0,0.8,0.8,0,-22.401565,39.685045)" /><path
       sodipodi:type="arc"
       style="fill:#d4ff2a;fill-opacity:1;stroke:none"
       id="path3077-8-9"
       sodipodi:cx="-113.38583"
       sodipodi:cy="240.60039"
       sodipodi:rx="10.629921"
       sodipodi:ry="10.629921"
       d="m -102.75591,240.60039 c 0,5.87074 -4.75918,10.62992 -10.62992,10.62992 -5.87075,0 -10.62992,-4.75918 -10.62992,-10.62992 0,-5.87075 4.75917,-10.62992 10.62992,-10.62992 5.87074,0 10.62992,4.75917 10.62992,10.62992 z"
       transform="matrix(0,0.8,0.8,0,62.63781,39.685045)" /><path
       sodipodi:type="arc"
       style="fill:#d4ff2a;fill-opacity:1;stroke:none"
       id="path3077-82-54"
       sodipodi:cx="-113.38583"
       sodipodi:cy="240.60039"
       sodipodi:rx="10.629921"
       sodipodi:ry="10.629921"
       d="m -102.75591,240.60039 c 0,5.87074 -4.75918,10.62992 -10.62992,10.62992 -5.87075,0 -10.62992,-4.75918 -10.62992,-10.62992 0,-5.87075 4.75917,-10.62992 10.62992,-10.62992 5.87074,0 10.62992,4.75917 10.62992,10.62992 z"
       transform="matrix(0,0.8,0.8,0,147.67717,39.685045)" /><path
       sodipodi:type="arc"
       style="fill:#d4ff2a;fill-opacity:1;stroke:none"
       id="path3077-4-4-3"
       sodipodi:cx="-113.38583"
       sodipodi:cy="240.60039"
       sodipodi:rx="10.629921"
       sodipodi:ry="10.629921"
       d="m -102.75591,240.60039 c 0,5.87074 -4.75918,10.62992 -10.62992,10.62992 -5.87075,0 -10.62992,-4.75918 -10.62992,-10.62992 0,-5.87075 4.75917,-10.62992 10.62992,-10.62992 5.87074,0 10.62992,4.75917 10.62992,10.62992 z"
       transform="matrix(0,0.8,0.8,0,232.71655,39.685045)" /><path
       sodipodi:type="arc"
       style="fill:#d4ff2a;fill-opacity:1;stroke:none"
       id="path3077-8-5-1"
       sodipodi:cx="-113.38583"
       sodipodi:cy="240.60039"
       sodipodi:rx="10.629921"
       sodipodi:ry="10.629921"
       d="m -102.75591,240.60039 c 0,5.87074 -4.75918,10.62992 -10.62992,10.62992 -5.87075,0 -10.62992,-4.75918 -10.62992,-10.62992 0,-5.87075 4.75917,-10.62992 10.62992,-10.62992 5.87074,0 10.62992,4.75917 10.62992,10.62992 z"
       transform="matrix(0,0.8,0.8,0,317.75592,39.685045)" /><path
       sodipodi:type="arc"
       style="fill:#d4ff2a;fill-opacity:1;stroke:none"
       id="path3077-82-5-2"
       sodipodi:cx="-113.38583"
       sodipodi:cy="240.60039"
       sodipodi:rx="10.629921"
       sodipodi:ry="10.629921"
       d="m -102.75591,240.60039 c 0,5.87074 -4.75918,10.62992 -10.62992,10.62992 -5.87075,0 -10.62992,-4.75918 -10.62992,-10.62992 0,-5.87075 4.75917,-10.62992 10.62992,-10.62992 5.87074,0 10.62992,4.75917 10.62992,10.62992 z"
       transform="matrix(0,0.8,0.8,0,147.67716,-45.354315)" /><path
       sodipodi:type="arc"
       style="fill:#d4ff2a;fill-opacity:1;stroke:none"
       id="path3077-4-4-1-3"
       sodipodi:cx="-113.38583"
       sodipodi:cy="240.60039"
       sodipodi:rx="10.629921"
       sodipodi:ry="10.629921"
       d="m -102.75591,240.60039 c 0,5.87074 -4.75918,10.62992 -10.62992,10.62992 -5.87075,0 -10.62992,-4.75918 -10.62992,-10.62992 0,-5.87075 4.75917,-10.62992 10.62992,-10.62992 5.87074,0 10.62992,4.75917 10.62992,10.62992 z"
       transform="matrix(0,0.8,0.8,0,232.71654,-45.354315)" /><path
       sodipodi:type="arc"
       style="fill:#d4ff2a;fill-opacity:1;stroke:none"
       id="path3077-8-5-7-3"
       sodipodi:cx="-113.38583"
       sodipodi:cy="240.60039"
       sodipodi:rx="10.629921"
       sodipodi:ry="10.629921"
       d="m -102.75591,240.60039 c 0,5.87074 -4.75918,10.62992 -10.62992,10.62992 -5.87075,0 -10.62992,-4.75918 -10.62992,-10.62992 0,-5.87075 4.75917,-10.62992 10.62992,-10.62992 5.87074,0 10.62992,4.75917 10.62992,10.62992 z"
       transform="matrix(0,0.8,0.8,0,317.75592,-45.354315)" /><path
       sodipodi:type="arc"
       style="fill:#d4ff2a;fill-opacity:1;stroke:none"
       id="path3077-82-5-1-1"
       sodipodi:cx="-113.38583"
       sodipodi:cy="240.60039"
       sodipodi:rx="10.629921"
       sodipodi:ry="10.629921"
       d="m -102.75591,240.60039 c 0,5.87074 -4.75918,10.62992 -10.62992,10.62992 -5.87075,0 -10.62992,-4.75918 -10.62992,-10.62992 0,-5.87075 4.75917,-10.62992 10.62992,-10.62992 5.87074,0 10.62992,4.75917 10.62992,10.62992 z"
       transform="matrix(0,0.8,0.8,0,62.63781,-48.188954)" /><path
       sodipodi:type="arc"
       style="fill:#d4ff2a;fill-opacity:1;stroke:none"
       id="path3077-8-5-1-1"
       sodipodi:cx="-113.38583"
       sodipodi:cy="240.60039"
       sodipodi:rx="10.629921"
       sodipodi:ry="10.629921"
       d="m -102.75591,240.60039 c 0,5.87074 -4.75918,10.62992 -10.62992,10.62992 -5.87075,0 -10.62992,-4.75918 -10.62992,-10.62992 0,-5.87075 4.75917,-10.62992 10.62992,-10.62992 5.87074,0 10.62992,4.75917 10.62992,10.62992 z"
       transform="matrix(0,0.8,0.8,0,402.79528,39.685045)" /><path
       sodipodi:type="arc"
       style="fill:#d4ff2a;fill-opacity:1;stroke:none"
       id="path3077-8-5-7-3-3"
       sodipodi:cx="-113.38583"
       sodipodi:cy="240.60039"
       sodipodi:rx="10.629921"
       sodipodi:ry="10.629921"
       d="m -102.75591,240.60039 c 0,5.87074 -4.75918,10.62992 -10.62992,10.62992 -5.87075,0 -10.62992,-4.75918 -10.62992,-10.62992 0,-5.87075 4.75917,-10.62992 10.62992,-10.62992 5.87074,0 10.62992,4.75917 10.62992,10.62992 z"
       transform="matrix(0,0.8,0.8,0,402.79528,-45.354315)" /><path
       sodipodi:type="arc"
       style="fill:#d4ff2a;fill-opacity:1;stroke:none"
       id="path3077-2-8"
       sodipodi:cx="-113.38583"
       sodipodi:cy="240.60039"
       sodipodi:rx="10.629921"
       sodipodi:ry="10.629921"
       d="m -102.75591,240.60039 c 0,5.87074 -4.75918,10.62992 -10.62992,10.62992 -5.87075,0 -10.62992,-4.75918 -10.62992,-10.62992 0,-5.87075 4.75917,-10.62992 10.62992,-10.62992 5.87074,0 10.62992,4.75917 10.62992,10.62992 z"
       transform="matrix(0,0.8,0.8,0,-107.44095,-48.188971)" /><path
       sodipodi:type="arc"
       style="fill:#d4ff2a;fill-opacity:1;stroke:none"
       id="path3077-4-7-7"
       sodipodi:cx="-113.38583"
       sodipodi:cy="240.60039"
       sodipodi:rx="10.629921"
       sodipodi:ry="10.629921"
       d="m -102.75591,240.60039 c 0,5.87074 -4.75918,10.62992 -10.62992,10.62992 -5.87075,0 -10.62992,-4.75918 -10.62992,-10.62992 0,-5.87075 4.75917,-10.62992 10.62992,-10.62992 5.87074,0 10.62992,4.75917 10.62992,10.62992 z"
       transform="matrix(0,0.8,0.8,0,-22.40157,-48.188971)" /><path
       transform="scale(1,-1)"
       style="fill:#441650;fill-opacity:1;stroke:none"
       d="m 70.86611,184.25197 538.58273,0 c 7.85195,0 14.1732,6.32125 14.1732,14.1732 l 0,102.0473 c 0,7.85196 -6.32125,14.17321 -14.1732,14.17321 l -538.58273,0 c -7.851955,0 -14.173205,-6.32125 -14.173205,-14.17321 l 0,-102.0473 c 0,-7.85195 6.32125,-14.1732 14.173205,-14.1732 z"
       id="rect3427-4" /><path
       sodipodi:type="arc"
       style="fill:#d4ff2a;fill-opacity:1;stroke:none"
       id="path3077-2-2"
       sodipodi:cx="-113.38583"
       sodipodi:cy="240.60039"
       sodipodi:rx="10.629921"
       sodipodi:ry="10.629921"
       d="m -102.75591,240.60039 c 0,5.87074 -4.75918,10.62992 -10.62992,10.62992 -5.87075,0 -10.62992,-4.75918 -10.62992,-10.62992 0,-5.87075 4.75917,-10.62992 10.62992,-10.62992 5.87074,0 10.62992,4.75917 10.62992,10.62992 z"
       transform="matrix(0,0.8,0.8,0,-107.44094,-116.22047)" /><path
       sodipodi:type="arc"
       style="fill:#d4ff2a;fill-opacity:1;stroke:none"
       id="path3077-4-7-77"
       sodipodi:cx="-113.38583"
       sodipodi:cy="240.60039"
       sodipodi:rx="10.629921"
       sodipodi:ry="10.629921"
       d="m -102.75591,240.60039 c 0,5.87074 -4.75918,10.62992 -10.62992,10.62992 -5.87075,0 -10.62992,-4.75918 -10.62992,-10.62992 0,-5.87075 4.75917,-10.62992 10.62992,-10.62992 5.87074,0 10.62992,4.75917 10.62992,10.62992 z"
       transform="matrix(0,0.8,0.8,0,-22.401566,-116.22047)" /><path
       sodipodi:type="arc"
       style="fill:#d4ff2a;fill-opacity:1;stroke:none"
       id="path3077-8-9-9"
       sodipodi:cx="-113.38583"
       sodipodi:cy="240.60039"
       sodipodi:rx="10.629921"
       sodipodi:ry="10.629921"
       d="m -102.75591,240.60039 c 0,5.87074 -4.75918,10.62992 -10.62992,10.62992 -5.87075,0 -10.62992,-4.75918 -10.62992,-10.62992 0,-5.87075 4.75917,-10.62992 10.62992,-10.62992 5.87074,0 10.62992,4.75917 10.62992,10.62992 z"
       transform="matrix(0,0.8,0.8,0,62.637807,-116.22047)" /><path
       sodipodi:type="arc"
       style="fill:#d4ff2a;fill-opacity:1;stroke:none"
       id="path3077-82-54-3"
       sodipodi:cx="-113.38583"
       sodipodi:cy="240.60039"
       sodipodi:rx="10.629921"
       sodipodi:ry="10.629921"
       d="m -102.75591,240.60039 c 0,5.87074 -4.75918,10.62992 -10.62992,10.62992 -5.87075,0 -10.62992,-4.75918 -10.62992,-10.62992 0,-5.87075 4.75917,-10.62992 10.62992,-10.62992 5.87074,0 10.62992,4.75917 10.62992,10.62992 z"
       transform="matrix(0,0.8,0.8,0,147.67717,-116.22047)" /><path
       sodipodi:type="arc"
       style="fill:#d4ff2a;fill-opacity:1;stroke:none"
       id="path3077-4-4-3-1"
       sodipodi:cx="-113.38583"
       sodipodi:cy="240.60039"
       sodipodi:rx="10.629921"
       sodipodi:ry="10.629921"
       d="m -102.75591,240.60039 c 0,5.87074 -4.75918,10.62992 -10.62992,10.62992 -5.87075,0 -10.62992,-4.75918 -10.62992,-10.62992 0,-5.87075 4.75917,-10.62992 10.62992,-10.62992 5.87074,0 10.62992,4.75917 10.62992,10.62992 z"
       transform="matrix(0,0.8,0.8,0,232.71655,-116.22047)" /><path
       sodipodi:type="arc"
       style="fill:#d4ff2a;fill-opacity:1;stroke:none"
       id="path3077-8-5-1-9"
       sodipodi:cx="-113.38583"
       sodipodi:cy="240.60039"
       sodipodi:rx="10.629921"
       sodipodi:ry="10.629921"
       d="m -102.75591,240.60039 c 0,5.87074 -4.75918,10.62992 -10.62992,10.62992 -5.87075,0 -10.62992,-4.75918 -10.62992,-10.62992 0,-5.87075 4.75917,-10.62992 10.62992,-10.62992 5.87074,0 10.62992,4.75917 10.62992,10.62992 z"
       transform="matrix(0,0.8,0.8,0,317.75592,-116.22047)" /><path
       sodipodi:type="arc"
       style="fill:#d4ff2a;fill-opacity:1;stroke:none"
       id="path3077-82-5-2-8"
       sodipodi:cx="-113.38583"
       sodipodi:cy="240.60039"
       sodipodi:rx="10.629921"
       sodipodi:ry="10.629921"
       d="m -102.75591,240.60039 c 0,5.87074 -4.75918,10.62992 -10.62992,10.62992 -5.87075,0 -10.62992,-4.75918 -10.62992,-10.62992 0,-5.87075 4.75917,-10.62992 10.62992,-10.62992 5.87074,0 10.62992,4.75917 10.62992,10.62992 z"
       transform="matrix(0,0.8,0.8,0,147.67716,-201.25982)" /><path
       sodipodi:type="arc"
       style="fill:#d4ff2a;fill-opacity:1;stroke:none"
       id="path3077-4-4-1-3-6"
       sodipodi:cx="-113.38583"
       sodipodi:cy="240.60039"
       sodipodi:rx="10.629921"
       sodipodi:ry="10.629921"
       d="m -102.75591,240.60039 c 0,5.87074 -4.75918,10.62992 -10.62992,10.62992 -5.87075,0 -10.62992,-4.75918 -10.62992,-10.62992 0,-5.87075 4.75917,-10.62992 10.62992,-10.62992 5.87074,0 10.62992,4.75917 10.62992,10.62992 z"
       transform="matrix(0,0.8,0.8,0,232.71653,-201.25982)" /><path
       sodipodi:type="arc"
       style="fill:#d4ff2a;fill-opacity:1;stroke:none"
       id="path3077-8-5-7-3-5"
       sodipodi:cx="-113.38583"
       sodipodi:cy="240.60039"
       sodipodi:rx="10.629921"
       sodipodi:ry="10.629921"
       d="m -102.75591,240.60039 c 0,5.87074 -4.75918,10.62992 -10.62992,10.62992 -5.87075,0 -10.62992,-4.75918 -10.62992,-10.62992 0,-5.87075 4.75917,-10.62992 10.62992,-10.62992 5.87074,0 10.62992,4.75917 10.62992,10.62992 z"
       transform="matrix(0,0.8,0.8,0,317.75592,-201.25982)" /><path
       sodipodi:type="arc"
       style="fill:#d4ff2a;fill-opacity:1;stroke:none"
       id="path3077-82-5-1-1-0"
       sodipodi:cx="-113.38583"
       sodipodi:cy="240.60039"
       sodipodi:rx="10.629921"
       sodipodi:ry="10.629921"
       d="m -102.75591,240.60039 c 0,5.87074 -4.75918,10.62992 -10.62992,10.62992 -5.87075,0 -10.62992,-4.75918 -10.62992,-10.62992 0,-5.87075 4.75917,-10.62992 10.62992,-10.62992 5.87074,0 10.62992,4.75917 10.62992,10.62992 z"
       transform="matrix(0,0.8,0.8,0,62.637807,-204.09446)" /><path
       sodipodi:type="arc"
       style="fill:#d4ff2a;fill-opacity:1;stroke:none"
       id="path3077-8-5-1-1-2"
       sodipodi:cx="-113.38583"
       sodipodi:cy="240.60039"
       sodipodi:rx="10.629921"
       sodipodi:ry="10.629921"
       d="m -102.75591,240.60039 c 0,5.87074 -4.75918,10.62992 -10.62992,10.62992 -5.87075,0 -10.62992,-4.75918 -10.62992,-10.62992 0,-5.87075 4.75917,-10.62992 10.62992,-10.62992 5.87074,0 10.62992,4.75917 10.62992,10.62992 z"
       transform="matrix(0,0.8,0.8,0,402.79528,-116.22047)" /><path
       sodipodi:type="arc"
       style="fill:#d4ff2a;fill-opacity:1;stroke:none"
       id="path3077-8-5-7-3-3-8"
       sodipodi:cx="-113.38583"
       sodipodi:cy="240.60039"
       sodipodi:rx="10.629921"
       sodipodi:ry="10.629921"
       d="m -102.75591,240.60039 c 0,5.87074 -4.75918,10.62992 -10.62992,10.62992 -5.87075,0 -10.62992,-4.75918 -10.62992,-10.62992 0,-5.87075 4.75917,-10.62992 10.62992,-10.62992 5.87074,0 10.62992,4.75917 10.62992,10.62992 z"
       transform="matrix(0,0.8,0.8,0,402.79528,-201.25982)" /><path
       sodipodi:type="arc"
       style="fill:#d4ff2a;fill-opacity:1;stroke:none"
       id="path3077-2-8-6"
       sodipodi:cx="-113.38583"
       sodipodi:cy="240.60039"
       sodipodi:rx="10.629921"
       sodipodi:ry="10.629921"
       d="m -102.75591,240.60039 c 0,5.87074 -4.75918,10.62992 -10.62992,10.62992 -5.87075,0 -10.62992,-4.75918 -10.62992,-10.62992 0,-5.87075 4.75917,-10.62992 10.62992,-10.62992 5.87074,0 10.62992,4.75917 10.62992,10.62992 z"
       transform="matrix(0,0.8,0.8,0,-107.44095,-204.09447)" /><path
       sodipodi:type="arc"
       style="fill:#d4ff2a;fill-opacity:1;stroke:none"
       id="path3077-4-7-7-0"
       sodipodi:cx="-113.38583"
       sodipodi:cy="240.60039"
       sodipodi:rx="10.629921"
       sodipodi:ry="10.629921"
       d="m -102.75591,240.60039 c 0,5.87074 -4.75918,10.62992 -10.62992,10.62992 -5.87075,0 -10.62992,-4.75918 -10.62992,-10.62992 0,-5.87075 4.75917,-10.62992 10.62992,-10.62992 5.87074,0 10.62992,4.75917 10.62992,10.62992 z"
       transform="matrix(0,0.8,0.8,0,-22.401571,-204.09447)" /><path
       sodipodi:type="arc"
       style="fill:#d4ff2a;fill-opacity:1;stroke:none"
       id="path3077-2-24"
       sodipodi:cx="-113.38583"
       sodipodi:cy="240.60039"
       sodipodi:rx="10.629921"
       sodipodi:ry="10.629921"
       d="m -102.75591,240.60039 c 0,5.87074 -4.75918,10.62992 -10.62992,10.62992 -5.87075,0 -10.62992,-4.75918 -10.62992,-10.62992 0,-5.87075 4.75917,-10.62992 10.62992,-10.62992 5.87074,0 10.62992,4.75917 10.62992,10.62992 z"
       transform="matrix(0,0.8,0.8,0,-192.48031,39.685045)" /><path
       sodipodi:type="arc"
       style="fill:#d4ff2a;fill-opacity:1;stroke:none"
       id="path3077-2-8-8"
       sodipodi:cx="-113.38583"
       sodipodi:cy="240.60039"
       sodipodi:rx="10.629921"
       sodipodi:ry="10.629921"
       d="m -102.75591,240.60039 c 0,5.87074 -4.75918,10.62992 -10.62992,10.62992 -5.87075,0 -10.62992,-4.75918 -10.62992,-10.62992 0,-5.87075 4.75917,-10.62992 10.62992,-10.62992 5.87074,0 10.62992,4.75917 10.62992,10.62992 z"
       transform="matrix(0,0.8,0.8,0,-192.48033,-48.188975)" /><path
       sodipodi:type="arc"
       style="fill:#d4ff2a;fill-opacity:1;stroke:none"
       id="path3077-8-5-1-1-6"
       sodipodi:cx="-113.38583"
       sodipodi:cy="240.60039"
       sodipodi:rx="10.629921"
       sodipodi:ry="10.629921"
       d="m -102.75591,240.60039 c 0,5.87074 -4.75918,10.62992 -10.62992,10.62992 -5.87075,0 -10.62992,-4.75918 -10.62992,-10.62992 0,-5.87075 4.75917,-10.62992 10.62992,-10.62992 5.87074,0 10.62992,4.75917 10.62992,10.62992 z"
       transform="matrix(0,0.8,0.8,0,487.83465,39.685045)" /><path
       sodipodi:type="arc"
       style="fill:#d4ff2a;fill-opacity:1;stroke:none"
       id="path3077-8-5-7-3-3-5"
       sodipodi:cx="-113.38583"
       sodipodi:cy="240.60039"
       sodipodi:rx="10.629921"
       sodipodi:ry="10.629921"
       d="m -102.75591,240.60039 c 0,5.87074 -4.75918,10.62992 -10.62992,10.62992 -5.87075,0 -10.62992,-4.75918 -10.62992,-10.62992 0,-5.87075 4.75917,-10.62992 10.62992,-10.62992 5.87074,0 10.62992,4.75917 10.62992,10.62992 z"
       transform="matrix(0,0.8,0.8,0,487.83465,-45.354315)" /><path
       transform="scale(1,-1)"
       style="fill:#441650;fill-opacity:1;stroke:none"
       d="m 155.90547,354.33072 368.504,0 c 7.85195,0 14.1732,6.32125 14.1732,14.1732 l 0,102.0473 c 0,7.85196 -6.32125,14.17321 -14.1732,14.17321 l -368.504,0 c -7.85195,0 -14.1732,-6.32125 -14.1732,-14.17321 l 0,-102.0473 c 0,-7.85195 6.32125,-14.1732 14.1732,-14.1732 z"
       id="rect3427-4-0" /><path
       sodipodi:type="arc"
       style="fill:#d4ff2a;fill-opacity:1;stroke:none"
       id="path3077-4-7-77-0"
       sodipodi:cx="-113.38583"
       sodipodi:cy="240.60039"
       sodipodi:rx="10.629921"
       sodipodi:ry="10.629921"
       d="m -102.75591,240.60039 c 0,5.87074 -4.75918,10.62992 -10.62992,10.62992 -5.87075,0 -10.62992,-4.75918 -10.62992,-10.62992 0,-5.87075 4.75917,-10.62992 10.62992,-10.62992 5.87074,0 10.62992,4.75917 10.62992,10.62992 z"
       transform="matrix(0,0.8,0.8,0,-22.401573,-286.29921)" /><path
       sodipodi:type="arc"
       style="fill:#d4ff2a;fill-opacity:1;stroke:none"
       id="path3077-8-9-9-0"
       sodipodi:cx="-113.38583"
       sodipodi:cy="240.60039"
       sodipodi:rx="10.629921"
       sodipodi:ry="10.629921"
       d="m -102.75591,240.60039 c 0,5.87074 -4.75918,10.62992 -10.62992,10.62992 -5.87075,0 -10.62992,-4.75918 -10.62992,-10.62992 0,-5.87075 4.75917,-10.62992 10.62992,-10.62992 5.87074,0 10.62992,4.75917 10.62992,10.62992 z"
       transform="matrix(0,0.8,0.8,0,62.637801,-286.29921)" /><path
       sodipodi:type="arc"
       style="fill:#d4ff2a;fill-opacity:1;stroke:none"
       id="path3077-82-54-3-6"
       sodipodi:cx="-113.38583"
       sodipodi:cy="240.60039"
       sodipodi:rx="10.629921"
       sodipodi:ry="10.629921"
       d="m -102.75591,240.60039 c 0,5.87074 -4.75918,10.62992 -10.62992,10.62992 -5.87075,0 -10.62992,-4.75918 -10.62992,-10.62992 0,-5.87075 4.75917,-10.62992 10.62992,-10.62992 5.87074,0 10.62992,4.75917 10.62992,10.62992 z"
       transform="matrix(0,0.8,0.8,0,147.67717,-286.29921)" /><path
       sodipodi:type="arc"
       style="fill:#d4ff2a;fill-opacity:1;stroke:none"
       id="path3077-4-4-3-1-1"
       sodipodi:cx="-113.38583"
       sodipodi:cy="240.60039"
       sodipodi:rx="10.629921"
       sodipodi:ry="10.629921"
       d="m -102.75591,240.60039 c 0,5.87074 -4.75918,10.62992 -10.62992,10.62992 -5.87075,0 -10.62992,-4.75918 -10.62992,-10.62992 0,-5.87075 4.75917,-10.62992 10.62992,-10.62992 5.87074,0 10.62992,4.75917 10.62992,10.62992 z"
       transform="matrix(0,0.8,0.8,0,232.71656,-286.29921)" /><path
       sodipodi:type="arc"
       style="fill:#d4ff2a;fill-opacity:1;stroke:none"
       id="path3077-8-5-1-9-3"
       sodipodi:cx="-113.38583"
       sodipodi:cy="240.60039"
       sodipodi:rx="10.629921"
       sodipodi:ry="10.629921"
       d="m -102.75591,240.60039 c 0,5.87074 -4.75918,10.62992 -10.62992,10.62992 -5.87075,0 -10.62992,-4.75918 -10.62992,-10.62992 0,-5.87075 4.75917,-10.62992 10.62992,-10.62992 5.87074,0 10.62992,4.75917 10.62992,10.62992 z"
       transform="matrix(0,0.8,0.8,0,317.75593,-286.29921)" /><path
       sodipodi:type="arc"
       style="fill:#d4ff2a;fill-opacity:1;stroke:none"
       id="path3077-82-5-2-8-8"
       sodipodi:cx="-113.38583"
       sodipodi:cy="240.60039"
       sodipodi:rx="10.629921"
       sodipodi:ry="10.629921"
       d="m -102.75591,240.60039 c 0,5.87074 -4.75918,10.62992 -10.62992,10.62992 -5.87075,0 -10.62992,-4.75918 -10.62992,-10.62992 0,-5.87075 4.75917,-10.62992 10.62992,-10.62992 5.87074,0 10.62992,4.75917 10.62992,10.62992 z"
       transform="matrix(0,0.8,0.8,0,147.67716,-371.33857)" /><path
       sodipodi:type="arc"
       style="fill:#d4ff2a;fill-opacity:1;stroke:none"
       id="path3077-4-4-1-3-6-9"
       sodipodi:cx="-113.38583"
       sodipodi:cy="240.60039"
       sodipodi:rx="10.629921"
       sodipodi:ry="10.629921"
       d="m -102.75591,240.60039 c 0,5.87074 -4.75918,10.62992 -10.62992,10.62992 -5.87075,0 -10.62992,-4.75918 -10.62992,-10.62992 0,-5.87075 4.75917,-10.62992 10.62992,-10.62992 5.87074,0 10.62992,4.75917 10.62992,10.62992 z"
       transform="matrix(0,0.8,0.8,0,232.71653,-371.33857)" /><path
       sodipodi:type="arc"
       style="fill:#d4ff2a;fill-opacity:1;stroke:none"
       id="path3077-8-5-7-3-5-3"
       sodipodi:cx="-113.38583"
       sodipodi:cy="240.60039"
       sodipodi:rx="10.629921"
       sodipodi:ry="10.629921"
       d="m -102.75591,240.60039 c 0,5.87074 -4.75918,10.62992 -10.62992,10.62992 -5.87075,0 -10.62992,-4.75918 -10.62992,-10.62992 0,-5.87075 4.75917,-10.62992 10.62992,-10.62992 5.87074,0 10.62992,4.75917 10.62992,10.62992 z"
       transform="matrix(0,0.8,0.8,0,317.75593,-371.33857)" /><path
       sodipodi:type="arc"
       style="fill:#d4ff2a;fill-opacity:1;stroke:none"
       id="path3077-82-5-1-1-0-4"
       sodipodi:cx="-113.38583"
       sodipodi:cy="240.60039"
       sodipodi:rx="10.629921"
       sodipodi:ry="10.629921"
       d="m -102.75591,240.60039 c 0,5.87074 -4.75918,10.62992 -10.62992,10.62992 -5.87075,0 -10.62992,-4.75918 -10.62992,-10.62992 0,-5.87075 4.75917,-10.62992 10.62992,-10.62992 5.87074,0 10.62992,4.75917 10.62992,10.62992 z"
       transform="matrix(0,0.8,0.8,0,62.637801,-374.1732)" /><path
       sodipodi:type="arc"
       style="fill:#d4ff2a;fill-opacity:1;stroke:none"
       id="path3077-4-7-7-0-6"
       sodipodi:cx="-113.38583"
       sodipodi:cy="240.60039"
       sodipodi:rx="10.629921"
       sodipodi:ry="10.629921"
       d="m -102.75591,240.60039 c 0,5.87074 -4.75918,10.62992 -10.62992,10.62992 -5.87075,0 -10.62992,-4.75918 -10.62992,-10.62992 0,-5.87075 4.75917,-10.62992 10.62992,-10.62992 5.87074,0 10.62992,4.75917 10.62992,10.62992 z"
       transform="matrix(0,0.8,0.8,0,-22.401573,-374.17321)" /><path
       transform="scale(1,-1)"
       style="fill:#afafe9;fill-opacity:1;stroke:none"
       d="m 736.192,-622.80615 681.9468,0 c 15.2519,0 27.5305,12.27863 27.5305,27.53056 l 0,298.45368 c 0,15.25193 -12.2786,27.53056 -27.5305,27.53056 l -681.9468,0 c -15.25193,0 -27.53056,-12.27863 -27.53056,-27.53056 l 0,-298.45368 c 0,-15.25193 12.27863,-27.53056 27.53056,-27.53056 z"
       id="rect12276-4" /><path
       sodipodi:type="arc"
       style="fill:#0b1728;fill-opacity:1;stroke:none"
       id="path3077-2-3"
       sodipodi:cx="-113.38583"
       sodipodi:cy="240.60039"
       sodipodi:rx="10.629921"
       sodipodi:ry="10.629921"
       d="m -102.75591,240.60039 c 0,5.87074 -4.75918,10.62992 -10.62992,10.62992 -5.87075,0 -10.62992,-4.75918 -10.62992,-10.62992 0,-5.87075 4.75917,-10.62992 10.62992,-10.62992 5.87074,0 10.62992,4.75917 10.62992,10.62992 z"
       transform="matrix(0,0.8,0.8,0,629.56695,473.38582)" /><path
       sodipodi:type="arc"
       style="fill:#0b1728;fill-opacity:1;stroke:none"
       id="path3077-4-7-3"
       sodipodi:cx="-113.38583"
       sodipodi:cy="240.60039"
       sodipodi:rx="10.629921"
       sodipodi:ry="10.629921"
       d="m -102.75591,240.60039 c 0,5.87074 -4.75918,10.62992 -10.62992,10.62992 -5.87075,0 -10.62992,-4.75918 -10.62992,-10.62992 0,-5.87075 4.75917,-10.62992 10.62992,-10.62992 5.87074,0 10.62992,4.75917 10.62992,10.62992 z"
       transform="matrix(0,0.8,0.8,0,714.60632,473.38582)" /><path
       sodipodi:type="arc"
       style="fill:#0b1728;fill-opacity:1;stroke:none"
       id="path3077-8-9-5"
       sodipodi:cx="-113.38583"
       sodipodi:cy="240.60039"
       sodipodi:rx="10.629921"
       sodipodi:ry="10.629921"
       d="m -102.75591,240.60039 c 0,5.87074 -4.75918,10.62992 -10.62992,10.62992 -5.87075,0 -10.62992,-4.75918 -10.62992,-10.62992 0,-5.87075 4.75917,-10.62992 10.62992,-10.62992 5.87074,0 10.62992,4.75917 10.62992,10.62992 z"
       transform="matrix(0,0.8,0.8,0,799.6457,473.38582)" /><path
       sodipodi:type="arc"
       style="fill:#0b1728;fill-opacity:1;stroke:none"
       id="path3077-82-54-9"
       sodipodi:cx="-113.38583"
       sodipodi:cy="240.60039"
       sodipodi:rx="10.629921"
       sodipodi:ry="10.629921"
       d="m -102.75591,240.60039 c 0,5.87074 -4.75918,10.62992 -10.62992,10.62992 -5.87075,0 -10.62992,-4.75918 -10.62992,-10.62992 0,-5.87075 4.75917,-10.62992 10.62992,-10.62992 5.87074,0 10.62992,4.75917 10.62992,10.62992 z"
       transform="matrix(0,0.8,0.8,0,884.68505,473.38582)" /><path
       sodipodi:type="arc"
       style="fill:#0b1728;fill-opacity:1;stroke:none"
       id="path3077-4-4-3-9"
       sodipodi:cx="-113.38583"
       sodipodi:cy="240.60039"
       sodipodi:rx="10.629921"
       sodipodi:ry="10.629921"
       d="m -102.75591,240.60039 c 0,5.87074 -4.75918,10.62992 -10.62992,10.62992 -5.87075,0 -10.62992,-4.75918 -10.62992,-10.62992 0,-5.87075 4.75917,-10.62992 10.62992,-10.62992 5.87074,0 10.62992,4.75917 10.62992,10.62992 z"
       transform="matrix(0,0.8,0.8,0,969.72443,473.38582)" /><path
       sodipodi:type="arc"
       style="fill:#0b1728;fill-opacity:1;stroke:none"
       id="path3077-8-5-1-8"
       sodipodi:cx="-113.38583"
       sodipodi:cy="240.60039"
       sodipodi:rx="10.629921"
       sodipodi:ry="10.629921"
       d="m -102.75591,240.60039 c 0,5.87074 -4.75918,10.62992 -10.62992,10.62992 -5.87075,0 -10.62992,-4.75918 -10.62992,-10.62992 0,-5.87075 4.75917,-10.62992 10.62992,-10.62992 5.87074,0 10.62992,4.75917 10.62992,10.62992 z"
       transform="matrix(0,0.8,0.8,0,1054.7638,473.38582)" /><path
       sodipodi:type="arc"
       style="fill:#0b1728;fill-opacity:1;stroke:none"
       id="path3077-82-5-2-1"
       sodipodi:cx="-113.38583"
       sodipodi:cy="240.60039"
       sodipodi:rx="10.629921"
       sodipodi:ry="10.629921"
       d="m -102.75591,240.60039 c 0,5.87074 -4.75918,10.62992 -10.62992,10.62992 -5.87075,0 -10.62992,-4.75918 -10.62992,-10.62992 0,-5.87075 4.75917,-10.62992 10.62992,-10.62992 5.87074,0 10.62992,4.75917 10.62992,10.62992 z"
       transform="matrix(0,0.8,0.8,0,884.68504,388.34646)" /><path
       sodipodi:type="arc"
       style="fill:#0b1728;fill-opacity:1;stroke:none"
       id="path3077-4-4-1-3-8"
       sodipodi:cx="-113.38583"
       sodipodi:cy="240.60039"
       sodipodi:rx="10.629921"
       sodipodi:ry="10.629921"
       d="m -102.75591,240.60039 c 0,5.87074 -4.75918,10.62992 -10.62992,10.62992 -5.87075,0 -10.62992,-4.75918 -10.62992,-10.62992 0,-5.87075 4.75917,-10.62992 10.62992,-10.62992 5.87074,0 10.62992,4.75917 10.62992,10.62992 z"
       transform="matrix(0,0.8,0.8,0,969.72442,388.34646)" /><path
       sodipodi:type="arc"
       style="fill:#0b1728;fill-opacity:1;stroke:none"
       id="path3077-8-5-7-3-2"
       sodipodi:cx="-113.38583"
       sodipodi:cy="240.60039"
       sodipodi:rx="10.629921"
       sodipodi:ry="10.629921"
       d="m -102.75591,240.60039 c 0,5.87074 -4.75918,10.62992 -10.62992,10.62992 -5.87075,0 -10.62992,-4.75918 -10.62992,-10.62992 0,-5.87075 4.75917,-10.62992 10.62992,-10.62992 5.87074,0 10.62992,4.75917 10.62992,10.62992 z"
       transform="matrix(0,0.8,0.8,0,1054.7638,388.34646)" /><path
       sodipodi:type="arc"
       style="fill:#0b1728;fill-opacity:1;stroke:none"
       id="path3077-82-5-1-1-6"
       sodipodi:cx="-113.38583"
       sodipodi:cy="240.60039"
       sodipodi:rx="10.629921"
       sodipodi:ry="10.629921"
       d="m -102.75591,240.60039 c 0,5.87074 -4.75918,10.62992 -10.62992,10.62992 -5.87075,0 -10.62992,-4.75918 -10.62992,-10.62992 0,-5.87075 4.75917,-10.62992 10.62992,-10.62992 5.87074,0 10.62992,4.75917 10.62992,10.62992 z"
       transform="matrix(0,0.8,0.8,0,799.6457,385.51182)" /><path
       sodipodi:type="arc"
       style="fill:#0b1728;fill-opacity:1;stroke:none"
       id="path3077-8-5-1-1-60"
       sodipodi:cx="-113.38583"
       sodipodi:cy="240.60039"
       sodipodi:rx="10.629921"
       sodipodi:ry="10.629921"
       d="m -102.75591,240.60039 c 0,5.87074 -4.75918,10.62992 -10.62992,10.62992 -5.87075,0 -10.62992,-4.75918 -10.62992,-10.62992 0,-5.87075 4.75917,-10.62992 10.62992,-10.62992 5.87074,0 10.62992,4.75917 10.62992,10.62992 z"
       transform="matrix(0,0.8,0.8,0,1139.8031,473.38582)" /><path
       sodipodi:type="arc"
       style="fill:#0b1728;fill-opacity:1;stroke:none"
       id="path3077-8-5-7-3-3-3"
       sodipodi:cx="-113.38583"
       sodipodi:cy="240.60039"
       sodipodi:rx="10.629921"
       sodipodi:ry="10.629921"
       d="m -102.75591,240.60039 c 0,5.87074 -4.75918,10.62992 -10.62992,10.62992 -5.87075,0 -10.62992,-4.75918 -10.62992,-10.62992 0,-5.87075 4.75917,-10.62992 10.62992,-10.62992 5.87074,0 10.62992,4.75917 10.62992,10.62992 z"
       transform="matrix(0,0.8,0.8,0,1139.8031,388.34646)" /><path
       sodipodi:type="arc"
       style="fill:#0b1728;fill-opacity:1;stroke:none"
       id="path3077-2-8-80"
       sodipodi:cx="-113.38583"
       sodipodi:cy="240.60039"
       sodipodi:rx="10.629921"
       sodipodi:ry="10.629921"
       d="m -102.75591,240.60039 c 0,5.87074 -4.75918,10.62992 -10.62992,10.62992 -5.87075,0 -10.62992,-4.75918 -10.62992,-10.62992 0,-5.87075 4.75917,-10.62992 10.62992,-10.62992 5.87074,0 10.62992,4.75917 10.62992,10.62992 z"
       transform="matrix(0,0.8,0.8,0,629.56693,385.5118)" /><path
       sodipodi:type="arc"
       style="fill:#0b1728;fill-opacity:1;stroke:none"
       id="path3077-4-7-7-1"
       sodipodi:cx="-113.38583"
       sodipodi:cy="240.60039"
       sodipodi:rx="10.629921"
       sodipodi:ry="10.629921"
       d="m -102.75591,240.60039 c 0,5.87074 -4.75918,10.62992 -10.62992,10.62992 -5.87075,0 -10.62992,-4.75918 -10.62992,-10.62992 0,-5.87075 4.75917,-10.62992 10.62992,-10.62992 5.87074,0 10.62992,4.75917 10.62992,10.62992 z"
       transform="matrix(0,0.8,0.8,0,714.60632,385.5118)" /><path
       sodipodi:type="arc"
       style="fill:#0b1728;fill-opacity:1;stroke:none"
       id="path3077-2-24-2"
       sodipodi:cx="-113.38583"
       sodipodi:cy="240.60039"
       sodipodi:rx="10.629921"
       sodipodi:ry="10.629921"
       d="m -102.75591,240.60039 c 0,5.87074 -4.75918,10.62992 -10.62992,10.62992 -5.87075,0 -10.62992,-4.75918 -10.62992,-10.62992 0,-5.87075 4.75917,-10.62992 10.62992,-10.62992 5.87074,0 10.62992,4.75917 10.62992,10.62992 z"
       transform="matrix(0,0.8,0.8,0,544.52757,473.38582)" /><path
       sodipodi:type="arc"
       style="fill:#0b1728;fill-opacity:1;stroke:none"
       id="path3077-2-8-8-5"
       sodipodi:cx="-113.38583"
       sodipodi:cy="240.60039"
       sodipodi:rx="10.629921"
       sodipodi:ry="10.629921"
       d="m -102.75591,240.60039 c 0,5.87074 -4.75918,10.62992 -10.62992,10.62992 -5.87075,0 -10.62992,-4.75918 -10.62992,-10.62992 0,-5.87075 4.75917,-10.62992 10.62992,-10.62992 5.87074,0 10.62992,4.75917 10.62992,10.62992 z"
       transform="matrix(0,0.8,0.8,0,544.52755,385.5118)" /><path
       sodipodi:type="arc"
       style="fill:#0b1728;fill-opacity:1;stroke:none"
       id="path3077-8-5-1-1-6-0"
       sodipodi:cx="-113.38583"
       sodipodi:cy="240.60039"
       sodipodi:rx="10.629921"
       sodipodi:ry="10.629921"
       d="m -102.75591,240.60039 c 0,5.87074 -4.75918,10.62992 -10.62992,10.62992 -5.87075,0 -10.62992,-4.75918 -10.62992,-10.62992 0,-5.87075 4.75917,-10.62992 10.62992,-10.62992 5.87074,0 10.62992,4.75917 10.62992,10.62992 z"
       transform="matrix(0,0.8,0.8,0,1224.8425,473.38582)" /><path
       sodipodi:type="arc"
       style="fill:#0b1728;fill-opacity:1;stroke:none"
       id="path3077-8-5-7-3-3-5-9"
       sodipodi:cx="-113.38583"
       sodipodi:cy="240.60039"
       sodipodi:rx="10.629921"
       sodipodi:ry="10.629921"
       d="m -102.75591,240.60039 c 0,5.87074 -4.75918,10.62992 -10.62992,10.62992 -5.87075,0 -10.62992,-4.75918 -10.62992,-10.62992 0,-5.87075 4.75917,-10.62992 10.62992,-10.62992 5.87074,0 10.62992,4.75917 10.62992,10.62992 z"
       transform="matrix(0,0.8,0.8,0,1224.8425,388.34646)" /><path
       sodipodi:type="arc"
       style="fill:#0b1728;fill-opacity:1;stroke:none"
       id="path3077-8-5-1-1-60-4"
       sodipodi:cx="-113.38583"
       sodipodi:cy="240.60039"
       sodipodi:rx="10.629921"
       sodipodi:ry="10.629921"
       d="m -102.75591,240.60039 c 0,5.87074 -4.75918,10.62992 -10.62992,10.62992 -5.87075,0 -10.62992,-4.75918 -10.62992,-10.62992 0,-5.87075 4.75917,-10.62992 10.62992,-10.62992 5.87074,0 10.62992,4.75917 10.62992,10.62992 z"
       transform="matrix(0,0.8,0.8,0,1139.8031,643.46457)" /><path
       sodipodi:type="arc"
       style="fill:#0b1728;fill-opacity:1;stroke:none"
       id="path3077-8-5-7-3-3-3-7"
       sodipodi:cx="-113.38583"
       sodipodi:cy="240.60039"
       sodipodi:rx="10.629921"
       sodipodi:ry="10.629921"
       d="m -102.75591,240.60039 c 0,5.87074 -4.75918,10.62992 -10.62992,10.62992 -5.87075,0 -10.62992,-4.75918 -10.62992,-10.62992 0,-5.87075 4.75917,-10.62992 10.62992,-10.62992 5.87074,0 10.62992,4.75917 10.62992,10.62992 z"
       transform="matrix(0,0.8,0.8,0,1139.8031,558.4252)" /><path
       sodipodi:type="arc"
       style="fill:#0b1728;fill-opacity:1;stroke:none"
       id="path3077-8-5-1-1-6-0-8"
       sodipodi:cx="-113.38583"
       sodipodi:cy="240.60039"
       sodipodi:rx="10.629921"
       sodipodi:ry="10.629921"
       d="m -102.75591,240.60039 c 0,5.87074 -4.75918,10.62992 -10.62992,10.62992 -5.87075,0 -10.62992,-4.75918 -10.62992,-10.62992 0,-5.87075 4.75917,-10.62992 10.62992,-10.62992 5.87074,0 10.62992,4.75917 10.62992,10.62992 z"
       transform="matrix(0,0.8,0.8,0,1224.8424,643.46457)" /><path
       sodipodi:type="arc"
       style="fill:#0b1728;fill-opacity:1;stroke:none"
       id="path3077-8-5-7-3-3-5-9-3"
       sodipodi:cx="-113.38583"
       sodipodi:cy="240.60039"
       sodipodi:rx="10.629921"
       sodipodi:ry="10.629921"
       d="m -102.75591,240.60039 c 0,5.87074 -4.75918,10.62992 -10.62992,10.62992 -5.87075,0 -10.62992,-4.75918 -10.62992,-10.62992 0,-5.87075 4.75917,-10.62992 10.62992,-10.62992 5.87074,0 10.62992,4.75917 10.62992,10.62992 z"
       transform="matrix(0,0.8,0.8,0,1224.8424,558.4252)" /><path
       sodipodi:type="arc"
       style="fill:#0b1728;fill-opacity:1;stroke:none"
       id="path3077-8-5-1-1-60-5"
       sodipodi:cx="-113.38583"
       sodipodi:cy="240.60039"
       sodipodi:rx="10.629921"
       sodipodi:ry="10.629921"
       d="m -102.75591,240.60039 c 0,5.87074 -4.75918,10.62992 -10.62992,10.62992 -5.87075,0 -10.62992,-4.75918 -10.62992,-10.62992 0,-5.87075 4.75917,-10.62992 10.62992,-10.62992 5.87074,0 10.62992,4.75917 10.62992,10.62992 z"
       transform="matrix(0,0.8,0.8,0,544.52757,643.46457)" /><path
       sodipodi:type="arc"
       style="fill:#0b1728;fill-opacity:1;stroke:none"
       id="path3077-8-5-7-3-3-3-1"
       sodipodi:cx="-113.38583"
       sodipodi:cy="240.60039"
       sodipodi:rx="10.629921"
       sodipodi:ry="10.629921"
       d="m -102.75591,240.60039 c 0,5.87074 -4.75918,10.62992 -10.62992,10.62992 -5.87075,0 -10.62992,-4.75918 -10.62992,-10.62992 0,-5.87075 4.75917,-10.62992 10.62992,-10.62992 5.87074,0 10.62992,4.75917 10.62992,10.62992 z"
       transform="matrix(0,0.8,0.8,0,544.52757,558.4252)" /><path
       sodipodi:type="arc"
       style="fill:#0b1728;fill-opacity:1;stroke:none"
       id="path3077-8-5-1-1-6-0-2"
       sodipodi:cx="-113.38583"
       sodipodi:cy="240.60039"
       sodipodi:rx="10.629921"
       sodipodi:ry="10.629921"
       d="m -102.75591,240.60039 c 0,5.87074 -4.75918,10.62992 -10.62992,10.62992 -5.87075,0 -10.62992,-4.75918 -10.62992,-10.62992 0,-5.87075 4.75917,-10.62992 10.62992,-10.62992 5.87074,0 10.62992,4.75917 10.62992,10.62992 z"
       transform="matrix(0,0.8,0.8,0,629.56693,643.46457)" /><path
       sodipodi:type="arc"
       style="fill:#0b1728;fill-opacity:1;stroke:none"
       id="path3077-8-5-7-3-3-5-9-0"
       sodipodi:cx="-113.38583"
       sodipodi:cy="240.60039"
       sodipodi:rx="10.629921"
       sodipodi:ry="10.629921"
       d="m -102.75591,240.60039 c 0,5.87074 -4.75918,10.62992 -10.62992,10.62992 -5.87075,0 -10.62992,-4.75918 -10.62992,-10.62992 0,-5.87075 4.75917,-10.62992 10.62992,-10.62992 5.87074,0 10.62992,4.75917 10.62992,10.62992 z"
       transform="matrix(0,0.8,0.8,0,629.56693,558.4252)" /><path
       sodipodi:type="arc"
       style="fill:#44aa00;fill-opacity:1;stroke:none"
       id="path3163"
       sodipodi:cx="168.30708"
       sodipodi:cy="-5.6594486"
       sodipodi:rx="8.8582678"
       sodipodi:ry="8.8582678"
       d="m 177.16535,-5.6594486 c 0,4.89228618 -3.96598,8.8582678 -8.85827,8.8582678 -4.89228,0 -8.85826,-3.96598162 -8.85826,-8.8582678 0,-4.8922864 3.96598,-8.8582674 8.85826,-8.8582674 4.89229,0 8.85827,3.965981 8.85827,8.8582674 z"
       transform="matrix(0.8,0,0,-0.8,-18.425194,593.58268)" /><path
       sodipodi:type="arc"
       style="fill:#44aa00;fill-opacity:1;stroke:none"
       id="path3163-1"
       sodipodi:cx="168.30708"
       sodipodi:cy="-5.6594486"
       sodipodi:rx="8.8582678"
       sodipodi:ry="8.8582678"
       d="m 177.16535,-5.6594486 c 0,4.89228618 -3.96598,8.8582678 -8.85827,8.8582678 -4.89228,0 -8.85826,-3.96598162 -8.85826,-8.8582678 0,-4.8922864 3.96598,-8.8582674 8.85826,-8.8582674 4.89229,0 8.85827,3.965981 8.85827,8.8582674 z"
       transform="matrix(0.8,0,0,-0.8,-18.425194,534.05512)" /><path
       sodipodi:type="arc"
       style="fill:#44aa00;fill-opacity:1;stroke:none"
       id="path3163-7"
       sodipodi:cx="168.30708"
       sodipodi:cy="-5.6594486"
       sodipodi:rx="8.8582678"
       sodipodi:ry="8.8582678"
       d="m 177.16535,-5.6594486 c 0,4.89228618 -3.96598,8.8582678 -8.85827,8.8582678 -4.89228,0 -8.85826,-3.96598162 -8.85826,-8.8582678 0,-4.8922864 3.96598,-8.8582674 8.85826,-8.8582674 4.89229,0 8.85827,3.965981 8.85827,8.8582674 z"
       transform="matrix(0.8,0,0,-0.8,60.944882,534.05512)" /><path
       sodipodi:type="arc"
       style="fill:#44aa00;fill-opacity:1;stroke:none"
       id="path3163-4"
       sodipodi:cx="168.30708"
       sodipodi:cy="-5.6594486"
       sodipodi:rx="8.8582678"
       sodipodi:ry="8.8582678"
       d="m 177.16535,-5.6594486 c 0,4.89228618 -3.96598,8.8582678 -8.85827,8.8582678 -4.89228,0 -8.85826,-3.96598162 -8.85826,-8.8582678 0,-4.8922864 3.96598,-8.8582674 8.85826,-8.8582674 4.89229,0 8.85827,3.965981 8.85827,8.8582674 z"
       transform="matrix(0.8,0,0,-0.8,60.944882,593.58268)" /><path
       sodipodi:type="arc"
       style="fill:#44aa00;fill-opacity:1;stroke:none"
       id="path3163-4-0"
       sodipodi:cx="168.30708"
       sodipodi:cy="-5.6594486"
       sodipodi:rx="8.8582678"
       sodipodi:ry="8.8582678"
       d="m 177.16535,-5.6594486 c 0,4.89228618 -3.96598,8.8582678 -8.85827,8.8582678 -4.89228,0 -8.85826,-3.96598162 -8.85826,-8.8582678 0,-4.8922864 3.96598,-8.8582674 8.85826,-8.8582674 4.89229,0 8.85827,3.965981 8.85827,8.8582674 z"
       transform="matrix(0.8,0,0,-0.8,429.44882,593.58268)" /><path
       sodipodi:type="arc"
       style="fill:#44aa00;fill-opacity:1;stroke:none"
       id="path3163-4-9"
       sodipodi:cx="168.30708"
       sodipodi:cy="-5.6594486"
       sodipodi:rx="8.8582678"
       sodipodi:ry="8.8582678"
       d="m 177.16535,-5.6594486 c 0,4.89228618 -3.96598,8.8582678 -8.85827,8.8582678 -4.89228,0 -8.85826,-3.96598162 -8.85826,-8.8582678 0,-4.8922864 3.96598,-8.8582674 8.85826,-8.8582674 4.89229,0 8.85827,3.965981 8.85827,8.8582674 z"
       transform="matrix(0.8,0,0,-0.8,429.44882,534.05512)" /><path
       sodipodi:type="arc"
       style="fill:#44aa00;fill-opacity:1;stroke:none"
       id="path3163-4-4"
       sodipodi:cx="168.30708"
       sodipodi:cy="-5.6594486"
       sodipodi:rx="8.8582678"
       sodipodi:ry="8.8582678"
       d="m 177.16535,-5.6594486 c 0,4.89228618 -3.96598,8.8582678 -8.85827,8.8582678 -4.89228,0 -8.85826,-3.96598162 -8.85826,-8.8582678 0,-4.8922864 3.96598,-8.8582674 8.85826,-8.8582674 4.89229,0 8.85827,3.965981 8.85827,8.8582674 z"
       transform="matrix(0.8,0,0,-0.8,350.07874,534.05512)" /><path
       sodipodi:type="arc"
       style="fill:#44aa00;fill-opacity:1;stroke:none"
       id="path3163-4-8"
       sodipodi:cx="168.30708"
       sodipodi:cy="-5.6594486"
       sodipodi:rx="8.8582678"
       sodipodi:ry="8.8582678"
       d="m 177.16535,-5.6594486 c 0,4.89228618 -3.96598,8.8582678 -8.85827,8.8582678 -4.89228,0 -8.85826,-3.96598162 -8.85826,-8.8582678 0,-4.8922864 3.96598,-8.8582674 8.85826,-8.8582674 4.89229,0 8.85827,3.965981 8.85827,8.8582674 z"
       transform="matrix(0.8,0,0,-0.8,350.07874,593.58268)" /><path
       sodipodi:type="arc"
       style="fill:#44aa00;fill-opacity:1;stroke:none"
       id="path3163-4-82"
       sodipodi:cx="168.30708"
       sodipodi:cy="-5.6594486"
       sodipodi:rx="8.8582678"
       sodipodi:ry="8.8582678"
       d="m 177.16535,-5.6594486 c 0,4.89228618 -3.96598,8.8582678 -8.85827,8.8582678 -4.89228,0 -8.85826,-3.96598162 -8.85826,-8.8582678 0,-4.8922864 3.96598,-8.8582674 8.85826,-8.8582674 4.89229,0 8.85827,3.965981 8.85827,8.8582674 z"
       transform="matrix(0.8,0,0,-0.8,-18.425195,494.37008)" /><path
       sodipodi:type="arc"
       style="fill:#44aa00;fill-opacity:1;stroke:none"
       id="path3163-4-45"
       sodipodi:cx="168.30708"
       sodipodi:cy="-5.6594486"
       sodipodi:rx="8.8582678"
       sodipodi:ry="8.8582678"
       d="m 177.16535,-5.6594486 c 0,4.89228618 -3.96598,8.8582678 -8.85827,8.8582678 -4.89228,0 -8.85826,-3.96598162 -8.85826,-8.8582678 0,-4.8922864 3.96598,-8.8582674 8.85826,-8.8582674 4.89229,0 8.85827,3.965981 8.85827,8.8582674 z"
       transform="matrix(0.8,0,0,-0.8,60.944884,494.37008)" /><path
       sodipodi:type="arc"
       style="fill:#44aa00;fill-opacity:1;stroke:none"
       id="path3163-4-5"
       sodipodi:cx="168.30708"
       sodipodi:cy="-5.6594486"
       sodipodi:rx="8.8582678"
       sodipodi:ry="8.8582678"
       d="m 177.16535,-5.6594486 c 0,4.89228618 -3.96598,8.8582678 -8.85827,8.8582678 -4.89228,0 -8.85826,-3.96598162 -8.85826,-8.8582678 0,-4.8922864 3.96598,-8.8582674 8.85826,-8.8582674 4.89229,0 8.85827,3.965981 8.85827,8.8582674 z"
       transform="matrix(0.8,0,0,-0.8,-18.425195,434.84253)" /><path
       sodipodi:type="arc"
       style="fill:#44aa00;fill-opacity:1;stroke:none"
       id="path3163-4-1"
       sodipodi:cx="168.30708"
       sodipodi:cy="-5.6594486"
       sodipodi:rx="8.8582678"
       sodipodi:ry="8.8582678"
       d="m 177.16535,-5.6594486 c 0,4.89228618 -3.96598,8.8582678 -8.85827,8.8582678 -4.89228,0 -8.85826,-3.96598162 -8.85826,-8.8582678 0,-4.8922864 3.96598,-8.8582674 8.85826,-8.8582674 4.89229,0 8.85827,3.965981 8.85827,8.8582674 z"
       transform="matrix(0.8,0,0,-0.8,60.944884,434.84253)" /><path
       sodipodi:type="arc"
       style="fill:#44aa00;fill-opacity:1;stroke:none"
       id="path3163-4-7"
       sodipodi:cx="168.30708"
       sodipodi:cy="-5.6594486"
       sodipodi:rx="8.8582678"
       sodipodi:ry="8.8582678"
       d="m 177.16535,-5.6594486 c 0,4.89228618 -3.96598,8.8582678 -8.85827,8.8582678 -4.89228,0 -8.85826,-3.96598162 -8.85826,-8.8582678 0,-4.8922864 3.96598,-8.8582674 8.85826,-8.8582674 4.89229,0 8.85827,3.965981 8.85827,8.8582674 z"
       transform="matrix(0.8,0,0,-0.8,350.07874,494.37008)" /><path
       sodipodi:type="arc"
       style="fill:#44aa00;fill-opacity:1;stroke:none"
       id="path3163-4-11"
       sodipodi:cx="168.30708"
       sodipodi:cy="-5.6594486"
       sodipodi:rx="8.8582678"
       sodipodi:ry="8.8582678"
       d="m 177.16535,-5.6594486 c 0,4.89228618 -3.96598,8.8582678 -8.85827,8.8582678 -4.89228,0 -8.85826,-3.96598162 -8.85826,-8.8582678 0,-4.8922864 3.96598,-8.8582674 8.85826,-8.8582674 4.89229,0 8.85827,3.965981 8.85827,8.8582674 z"
       transform="matrix(0.8,0,0,-0.8,429.44882,494.37008)" /><path
       sodipodi:type="arc"
       style="fill:#44aa00;fill-opacity:1;stroke:none"
       id="path3163-4-52"
       sodipodi:cx="168.30708"
       sodipodi:cy="-5.6594486"
       sodipodi:rx="8.8582678"
       sodipodi:ry="8.8582678"
       d="m 177.16535,-5.6594486 c 0,4.89228618 -3.96598,8.8582678 -8.85827,8.8582678 -4.89228,0 -8.85826,-3.96598162 -8.85826,-8.8582678 0,-4.8922864 3.96598,-8.8582674 8.85826,-8.8582674 4.89229,0 8.85827,3.965981 8.85827,8.8582674 z"
       transform="matrix(0.8,0,0,-0.8,429.44882,434.84253)" /><path
       sodipodi:type="arc"
       style="fill:#44aa00;fill-opacity:1;stroke:none"
       id="path3163-4-76"
       sodipodi:cx="168.30708"
       sodipodi:cy="-5.6594486"
       sodipodi:rx="8.8582678"
       sodipodi:ry="8.8582678"
       d="m 177.16535,-5.6594486 c 0,4.89228618 -3.96598,8.8582678 -8.85827,8.8582678 -4.89228,0 -8.85826,-3.96598162 -8.85826,-8.8582678 0,-4.8922864 3.96598,-8.8582674 8.85826,-8.8582674 4.89229,0 8.85827,3.965981 8.85827,8.8582674 z"
       transform="matrix(0.8,0,0,-0.8,350.07874,434.84253)" /><path
       sodipodi:type="arc"
       style="fill:#44aa00;fill-opacity:1;stroke:none"
       id="path3163-4-8-1"
       sodipodi:cx="168.30708"
       sodipodi:cy="-5.6594486"
       sodipodi:rx="8.8582678"
       sodipodi:ry="8.8582678"
       d="m 177.16535,-5.6594486 c 0,4.89228618 -3.96598,8.8582678 -8.85827,8.8582678 -4.89228,0 -8.85826,-3.96598162 -8.85826,-8.8582678 0,-4.8922864 3.96598,-8.8582674 8.85826,-8.8582674 4.89229,0 8.85827,3.965981 8.85827,8.8582674 z"
       transform="matrix(0.8,0,0,-0.8,242.3622,576.57481)" /><path
       sodipodi:type="arc"
       style="fill:#44aa00;fill-opacity:1;stroke:none"
       id="path3163-4-8-4"
       sodipodi:cx="168.30708"
       sodipodi:cy="-5.6594486"
       sodipodi:rx="8.8582678"
       sodipodi:ry="8.8582678"
       d="m 177.16535,-5.6594486 c 0,4.89228618 -3.96598,8.8582678 -8.85827,8.8582678 -4.89228,0 -8.85826,-3.96598162 -8.85826,-8.8582678 0,-4.8922864 3.96598,-8.8582674 8.85826,-8.8582674 4.89229,0 8.85827,3.965981 8.85827,8.8582674 z"
       transform="matrix(0.8,0,0,-0.8,168.66142,576.57481)" /><path
       sodipodi:type="arc"
       style="fill:#44aa00;fill-opacity:1;stroke:none"
       id="path3163-4-8-2"
       sodipodi:cx="168.30708"
       sodipodi:cy="-5.6594486"
       sodipodi:rx="8.8582678"
       sodipodi:ry="8.8582678"
       d="m 177.16535,-5.6594486 c 0,4.89228618 -3.96598,8.8582678 -8.85827,8.8582678 -4.89228,0 -8.85826,-3.96598162 -8.85826,-8.8582678 0,-4.8922864 3.96598,-8.8582674 8.85826,-8.8582674 4.89229,0 8.85827,3.965981 8.85827,8.8582674 z"
       transform="matrix(0.8,0,0,-0.8,168.66142,477.36221)" /><path
       sodipodi:type="arc"
       style="fill:#44aa00;fill-opacity:1;stroke:none"
       id="path3163-4-8-3"
       sodipodi:cx="168.30708"
       sodipodi:cy="-5.6594486"
       sodipodi:rx="8.8582678"
       sodipodi:ry="8.8582678"
       d="m 177.16535,-5.6594486 c 0,4.89228618 -3.96598,8.8582678 -8.85827,8.8582678 -4.89228,0 -8.85826,-3.96598162 -8.85826,-8.8582678 0,-4.8922864 3.96598,-8.8582674 8.85826,-8.8582674 4.89229,0 8.85827,3.965981 8.85827,8.8582674 z"
       transform="matrix(0.8,0,0,-0.8,242.3622,477.36221)" /><path
       sodipodi:type="arc"
       style="fill:#44aa00;fill-opacity:1;stroke:none"
       id="path3163-4-8-22"
       sodipodi:cx="168.30708"
       sodipodi:cy="-5.6594486"
       sodipodi:rx="8.8582678"
       sodipodi:ry="8.8582678"
       d="m 177.16535,-5.6594486 c 0,4.89228618 -3.96598,8.8582678 -8.85827,8.8582678 -4.89228,0 -8.85826,-3.96598162 -8.85826,-8.8582678 0,-4.8922864 3.96598,-8.8582674 8.85826,-8.8582674 4.89229,0 8.85827,3.965981 8.85827,8.8582674 z"
       transform="matrix(0.8,0,0,-0.8,905.66929,576.57481)" /><path
       sodipodi:type="arc"
       style="fill:#44aa00;fill-opacity:1;stroke:none"
       id="path3163-4-8-16"
       sodipodi:cx="168.30708"
       sodipodi:cy="-5.6594486"
       sodipodi:rx="8.8582678"
       sodipodi:ry="8.8582678"
       d="m 177.16535,-5.6594486 c 0,4.89228618 -3.96598,8.8582678 -8.85827,8.8582678 -4.89228,0 -8.85826,-3.96598162 -8.85826,-8.8582678 0,-4.8922864 3.96598,-8.8582674 8.85826,-8.8582674 4.89229,0 8.85827,3.965981 8.85827,8.8582674 z"
       transform="matrix(0.8,0,0,-0.8,979.37008,576.57481)" /><path
       sodipodi:type="arc"
       style="fill:#44aa00;fill-opacity:1;stroke:none"
       id="path3163-4-8-8"
       sodipodi:cx="168.30708"
       sodipodi:cy="-5.6594486"
       sodipodi:rx="8.8582678"
       sodipodi:ry="8.8582678"
       d="m 177.16535,-5.6594486 c 0,4.89228618 -3.96598,8.8582678 -8.85827,8.8582678 -4.89228,0 -8.85826,-3.96598162 -8.85826,-8.8582678 0,-4.8922864 3.96598,-8.8582674 8.85826,-8.8582674 4.89229,0 8.85827,3.965981 8.85827,8.8582674 z"
       transform="matrix(0.8,0,0,-0.8,979.37008,477.36221)" /><path
       sodipodi:type="arc"
       style="fill:#44aa00;fill-opacity:1;stroke:none"
       id="path3163-4-8-5"
       sodipodi:cx="168.30708"
       sodipodi:cy="-5.6594486"
       sodipodi:rx="8.8582678"
       sodipodi:ry="8.8582678"
       d="m 177.16535,-5.6594486 c 0,4.89228618 -3.96598,8.8582678 -8.85827,8.8582678 -4.89228,0 -8.85826,-3.96598162 -8.85826,-8.8582678 0,-4.8922864 3.96598,-8.8582674 8.85826,-8.8582674 4.89229,0 8.85827,3.965981 8.85827,8.8582674 z"
       transform="matrix(0.8,0,0,-0.8,905.66929,477.36221)" /><path
       sodipodi:type="arc"
       style="fill:#44aa00;fill-opacity:1;stroke:none"
       id="path3163-4-8-8-7"
       sodipodi:cx="168.30708"
       sodipodi:cy="-5.6594486"
       sodipodi:rx="8.8582678"
       sodipodi:ry="8.8582678"
       d="m 177.16535,-5.6594486 c 0,4.89228618 -3.96598,8.8582678 -8.85827,8.8582678 -4.89228,0 -8.85826,-3.96598162 -8.85826,-8.8582678 0,-4.8922864 3.96598,-8.8582674 8.85826,-8.8582674 4.89229,0 8.85827,3.965981 8.85827,8.8582674 z"
       transform="matrix(0.8,0,0,-0.8,1087.0866,494.37008)" /><path
       sodipodi:type="arc"
       style="fill:#44aa00;fill-opacity:1;stroke:none"
       id="path3163-4-8-8-6"
       sodipodi:cx="168.30708"
       sodipodi:cy="-5.6594486"
       sodipodi:rx="8.8582678"
       sodipodi:ry="8.8582678"
       d="m 177.16535,-5.6594486 c 0,4.89228618 -3.96598,8.8582678 -8.85827,8.8582678 -4.89228,0 -8.85826,-3.96598162 -8.85826,-8.8582678 0,-4.8922864 3.96598,-8.8582674 8.85826,-8.8582674 4.89229,0 8.85827,3.965981 8.85827,8.8582674 z"
       transform="matrix(0.8,0,0,-0.8,1166.4567,494.37008)" /><path
       sodipodi:type="arc"
       style="fill:#44aa00;fill-opacity:1;stroke:none"
       id="path3163-4-8-8-1"
       sodipodi:cx="168.30708"
       sodipodi:cy="-5.6594486"
       sodipodi:rx="8.8582678"
       sodipodi:ry="8.8582678"
       d="m 177.16535,-5.6594486 c 0,4.89228618 -3.96598,8.8582678 -8.85827,8.8582678 -4.89228,0 -8.85826,-3.96598162 -8.85826,-8.8582678 0,-4.8922864 3.96598,-8.8582674 8.85826,-8.8582674 4.89229,0 8.85827,3.965981 8.85827,8.8582674 z"
       transform="matrix(0.8,0,0,-0.8,1166.4567,534.05512)" /><path
       sodipodi:type="arc"
       style="fill:#44aa00;fill-opacity:1;stroke:none"
       id="path3163-4-8-8-8"
       sodipodi:cx="168.30708"
       sodipodi:cy="-5.6594486"
       sodipodi:rx="8.8582678"
       sodipodi:ry="8.8582678"
       d="m 177.16535,-5.6594486 c 0,4.89228618 -3.96598,8.8582678 -8.85827,8.8582678 -4.89228,0 -8.85826,-3.96598162 -8.85826,-8.8582678 0,-4.8922864 3.96598,-8.8582674 8.85826,-8.8582674 4.89229,0 8.85827,3.965981 8.85827,8.8582674 z"
       transform="matrix(0.8,0,0,-0.8,1087.0866,534.05512)" /><path
       sodipodi:type="arc"
       style="fill:#44aa00;fill-opacity:1;stroke:none"
       id="path3163-4-8-8-9"
       sodipodi:cx="168.30708"
       sodipodi:cy="-5.6594486"
       sodipodi:rx="8.8582678"
       sodipodi:ry="8.8582678"
       d="m 177.16535,-5.6594486 c 0,4.89228618 -3.96598,8.8582678 -8.85827,8.8582678 -4.89228,0 -8.85826,-3.96598162 -8.85826,-8.8582678 0,-4.8922864 3.96598,-8.8582674 8.85826,-8.8582674 4.89229,0 8.85827,3.965981 8.85827,8.8582674 z"
       transform="matrix(0.8,0,0,-0.8,1087.0866,593.58268)" /><path
       sodipodi:type="arc"
       style="fill:#44aa00;fill-opacity:1;stroke:none"
       id="path3163-4-8-8-2"
       sodipodi:cx="168.30708"
       sodipodi:cy="-5.6594486"
       sodipodi:rx="8.8582678"
       sodipodi:ry="8.8582678"
       d="m 177.16535,-5.6594486 c 0,4.89228618 -3.96598,8.8582678 -8.85827,8.8582678 -4.89228,0 -8.85826,-3.96598162 -8.85826,-8.8582678 0,-4.8922864 3.96598,-8.8582674 8.85826,-8.8582674 4.89229,0 8.85827,3.965981 8.85827,8.8582674 z"
       transform="matrix(0.8,0,0,-0.8,1166.4567,593.58268)" /><path
       sodipodi:type="arc"
       style="fill:#44aa00;fill-opacity:1;stroke:none"
       id="path3163-4-8-8-79"
       sodipodi:cx="168.30708"
       sodipodi:cy="-5.6594486"
       sodipodi:rx="8.8582678"
       sodipodi:ry="8.8582678"
       d="m 177.16535,-5.6594486 c 0,4.89228618 -3.96598,8.8582678 -8.85827,8.8582678 -4.89228,0 -8.85826,-3.96598162 -8.85826,-8.8582678 0,-4.8922864 3.96598,-8.8582674 8.85826,-8.8582674 4.89229,0 8.85827,3.965981 8.85827,8.8582674 z"
       transform="matrix(0.8,0,0,-0.8,1087.0866,434.84253)" /><path
       sodipodi:type="arc"
       style="fill:#44aa00;fill-opacity:1;stroke:none"
       id="path3163-4-8-8-5"
       sodipodi:cx="168.30708"
       sodipodi:cy="-5.6594486"
       sodipodi:rx="8.8582678"
       sodipodi:ry="8.8582678"
       d="m 177.16535,-5.6594486 c 0,4.89228618 -3.96598,8.8582678 -8.85827,8.8582678 -4.89228,0 -8.85826,-3.96598162 -8.85826,-8.8582678 0,-4.8922864 3.96598,-8.8582674 8.85826,-8.8582674 4.89229,0 8.85827,3.965981 8.85827,8.8582674 z"
       transform="matrix(0.8,0,0,-0.8,1166.4567,434.84253)" /><path
       sodipodi:type="arc"
       style="fill:#44aa00;fill-opacity:1;stroke:none"
       id="path3163-4-8-8-4"
       sodipodi:cx="168.30708"
       sodipodi:cy="-5.6594486"
       sodipodi:rx="8.8582678"
       sodipodi:ry="8.8582678"
       d="m 177.16535,-5.6594486 c 0,4.89228618 -3.96598,8.8582678 -8.85827,8.8582678 -4.89228,0 -8.85826,-3.96598162 -8.85826,-8.8582678 0,-4.8922864 3.96598,-8.8582674 8.85826,-8.8582674 4.89229,0 8.85827,3.965981 8.85827,8.8582674 z"
       transform="matrix(0.8,0,0,-0.8,797.95274,434.84253)" /><path
       sodipodi:type="arc"
       style="fill:#44aa00;fill-opacity:1;stroke:none"
       id="path3163-4-8-8-3"
       sodipodi:cx="168.30708"
       sodipodi:cy="-5.6594486"
       sodipodi:rx="8.8582678"
       sodipodi:ry="8.8582678"
       d="m 177.16535,-5.6594486 c 0,4.89228618 -3.96598,8.8582678 -8.85827,8.8582678 -4.89228,0 -8.85826,-3.96598162 -8.85826,-8.8582678 0,-4.8922864 3.96598,-8.8582674 8.85826,-8.8582674 4.89229,0 8.85827,3.965981 8.85827,8.8582674 z"
       transform="matrix(0.8,0,0,-0.8,797.95274,494.37008)" /><path
       sodipodi:type="arc"
       style="fill:#44aa00;fill-opacity:1;stroke:none"
       id="path3163-4-8-8-12"
       sodipodi:cx="168.30708"
       sodipodi:cy="-5.6594486"
       sodipodi:rx="8.8582678"
       sodipodi:ry="8.8582678"
       d="m 177.16535,-5.6594486 c 0,4.89228618 -3.96598,8.8582678 -8.85827,8.8582678 -4.89228,0 -8.85826,-3.96598162 -8.85826,-8.8582678 0,-4.8922864 3.96598,-8.8582674 8.85826,-8.8582674 4.89229,0 8.85827,3.965981 8.85827,8.8582674 z"
       transform="matrix(0.8,0,0,-0.8,718.58267,434.84253)" /><path
       sodipodi:type="arc"
       style="fill:#44aa00;fill-opacity:1;stroke:none"
       id="path3163-4-8-8-33"
       sodipodi:cx="168.30708"
       sodipodi:cy="-5.6594486"
       sodipodi:rx="8.8582678"
       sodipodi:ry="8.8582678"
       d="m 177.16535,-5.6594486 c 0,4.89228618 -3.96598,8.8582678 -8.85827,8.8582678 -4.89228,0 -8.85826,-3.96598162 -8.85826,-8.8582678 0,-4.8922864 3.96598,-8.8582674 8.85826,-8.8582674 4.89229,0 8.85827,3.965981 8.85827,8.8582674 z"
       transform="matrix(0.8,0,0,-0.8,718.58267,494.37008)" /><path
       sodipodi:type="arc"
       style="fill:#44aa00;fill-opacity:1;stroke:none"
       id="path3163-4-8-8-4-4"
       sodipodi:cx="168.30708"
       sodipodi:cy="-5.6594486"
       sodipodi:rx="8.8582678"
       sodipodi:ry="8.8582678"
       d="m 177.16535,-5.6594486 c 0,4.89228618 -3.96598,8.8582678 -8.85827,8.8582678 -4.89228,0 -8.85826,-3.96598162 -8.85826,-8.8582678 0,-4.8922864 3.96598,-8.8582674 8.85826,-8.8582674 4.89229,0 8.85827,3.965981 8.85827,8.8582674 z"
       transform="matrix(0.8,0,0,-0.8,797.95275,534.05512)" /><path
       sodipodi:type="arc"
       style="fill:#44aa00;fill-opacity:1;stroke:none"
       id="path3163-4-8-8-3-1"
       sodipodi:cx="168.30708"
       sodipodi:cy="-5.6594486"
       sodipodi:rx="8.8582678"
       sodipodi:ry="8.8582678"
       d="m 177.16535,-5.6594486 c 0,4.89228618 -3.96598,8.8582678 -8.85827,8.8582678 -4.89228,0 -8.85826,-3.96598162 -8.85826,-8.8582678 0,-4.8922864 3.96598,-8.8582674 8.85826,-8.8582674 4.89229,0 8.85827,3.965981 8.85827,8.8582674 z"
       transform="matrix(0.8,0,0,-0.8,797.95275,593.58267)" /><path
       sodipodi:type="arc"
       style="fill:#44aa00;fill-opacity:1;stroke:none"
       id="path3163-4-8-8-12-1"
       sodipodi:cx="168.30708"
       sodipodi:cy="-5.6594486"
       sodipodi:rx="8.8582678"
       sodipodi:ry="8.8582678"
       d="m 177.16535,-5.6594486 c 0,4.89228618 -3.96598,8.8582678 -8.85827,8.8582678 -4.89228,0 -8.85826,-3.96598162 -8.85826,-8.8582678 0,-4.8922864 3.96598,-8.8582674 8.85826,-8.8582674 4.89229,0 8.85827,3.965981 8.85827,8.8582674 z"
       transform="matrix(0.8,0,0,-0.8,718.58268,534.05512)" /><path
       sodipodi:type="arc"
       style="fill:#44aa00;fill-opacity:1;stroke:none"
       id="path3163-4-8-8-33-3"
       sodipodi:cx="168.30708"
       sodipodi:cy="-5.6594486"
       sodipodi:rx="8.8582678"
       sodipodi:ry="8.8582678"
       d="m 177.16535,-5.6594486 c 0,4.89228618 -3.96598,8.8582678 -8.85827,8.8582678 -4.89228,0 -8.85826,-3.96598162 -8.85826,-8.8582678 0,-4.8922864 3.96598,-8.8582674 8.85826,-8.8582674 4.89229,0 8.85827,3.965981 8.85827,8.8582674 z"
       transform="matrix(0.8,0,0,-0.8,718.58268,593.58267)" /></g></svg>