<?xml version="1.0" encoding="UTF-8" standalone="no"?>
<!-- Created with Inkscape (http://www.inkscape.org/) -->

<svg
   xmlns:dc="http://purl.org/dc/elements/1.1/"
   xmlns:cc="http://creativecommons.org/ns#"
   xmlns:rdf="http://www.w3.org/1999/02/22-rdf-syntax-ns#"
   xmlns:svg="http://www.w3.org/2000/svg"
   xmlns="http://www.w3.org/2000/svg"
   xmlns:sodipodi="http://sodipodi.sourceforge.net/DTD/sodipodi-0.dtd"
   xmlns:inkscape="http://www.inkscape.org/namespaces/inkscape"
   id="svg5850"
   version="1.1"
   inkscape:version="0.48.4 r9939"
   width="1052.5"
   height="743.75"
   xml:space="preserve"
   sodipodi:docname="equipment_mount1.svg"><metadata
     id="metadata5856"><rdf:RDF><cc:Work
         rdf:about=""><dc:format>image/svg+xml</dc:format><dc:type
           rdf:resource="http://purl.org/dc/dcmitype/StillImage" /><dc:title /></cc:Work></rdf:RDF></metadata><defs
     id="defs5854"><clipPath
       clipPathUnits="userSpaceOnUse"
       id="clipPath5866"><path
         d="m 281,3196 3896,0 0,3234 -3896,0 0,-3234"
         id="path5868"
         inkscape:connector-curvature="0" /></clipPath><clipPath
       clipPathUnits="userSpaceOnUse"
       id="clipPath6118"><path
         d="m 352,2187 3754,0 0,1510 -3754,0 0,-1510"
         id="path6120"
         inkscape:connector-curvature="0" /></clipPath><clipPath
       clipPathUnits="userSpaceOnUse"
       id="clipPath6274"><path
         d="m 3691,3338 1231,0 0,2950 -1231,0 0,-2950"
         id="path6276"
         inkscape:connector-curvature="0" /></clipPath><clipPath
       clipPathUnits="userSpaceOnUse"
       id="clipPath6358"><path
         d="m 0,0 4923,0 0,6978 L 0,6978 0,0"
         id="path6360"
         inkscape:connector-curvature="0" /></clipPath><clipPath
       clipPathUnits="userSpaceOnUse"
       id="clipPath8158"><path
         d="m 0,0 4923,0 0,6978 L 0,6978 0,0"
         id="path8160"
         inkscape:connector-curvature="0" /></clipPath><clipPath
       clipPathUnits="userSpaceOnUse"
       id="clipPath8170"><path
         d="m 0,0 4923,0 0,6978 L 0,6978 0,0"
         id="path8172"
         inkscape:connector-curvature="0" /></clipPath><clipPath
       clipPathUnits="userSpaceOnUse"
       id="clipPath5866-3"><path
         inkscape:connector-curvature="0"
         d="m 281,3196 3896,0 0,3234 -3896,0 0,-3234"
         id="path5868-4" /></clipPath></defs><sodipodi:namedview
     pagecolor="#ffffff"
     bordercolor="#666666"
     borderopacity="1"
     objecttolerance="10"
     gridtolerance="10"
     guidetolerance="10"
     inkscape:pageopacity="0"
     inkscape:pageshadow="2"
     inkscape:window-width="1366"
     inkscape:window-height="705"
     id="namedview5852"
     showgrid="true"
     inkscape:zoom="1.12"
     inkscape:cx="275.6299"
     inkscape:cy="468.40558"
     inkscape:window-x="-8"
     inkscape:window-y="-8"
     inkscape:window-maximized="1"
     inkscape:current-layer="g5858"
     inkscape:document-units="mm"
     units="mm"
     showguides="true"
     inkscape:guide-bbox="true"
     inkscape:snap-bbox="true"
     inkscape:snap-bbox-edge-midpoints="true"
     inkscape:snap-object-midpoints="true"><inkscape:grid
       type="xygrid"
       id="grid12199"
       empspacing="5"
       visible="true"
       enabled="true"
       snapvisiblegridlinesonly="true"
       units="mm"
       spacingx="1mm"
       spacingy="1mm" /><sodipodi:guide
       orientation="1,0"
       position="425.19685,336.61417"
       id="guide12229" /><sodipodi:guide
       orientation="1,0"
       position="318.89764,-9.375"
       id="guide3357" /><sodipodi:guide
       orientation="1,0"
       position="531.49606,6.6964286"
       id="guide3361" /><sodipodi:guide
       orientation="1,0"
       position="212.59843,-41.964286"
       id="guide3363" /><sodipodi:guide
       orientation="1,0"
       position="637.79528,-45.535714"
       id="guide3365" /><sodipodi:guide
       orientation="1,0"
       position="106.29921,-53.149606"
       id="guide3367" /><sodipodi:guide
       orientation="0,1"
       position="177.16535,372.04724"
       id="guide3369" /><sodipodi:guide
       orientation="1,0"
       position="744.09449,-98.214286"
       id="guide3396" /><sodipodi:guide
       orientation="1,0"
       position="0,-114.90485"
       id="guide3510" /><sodipodi:guide
       orientation="1,0"
       position="850.3937,-63.765879"
       id="guide3512" /><sodipodi:guide
       orientation="1,0"
       position="1346.4567,106.29921"
       id="guide4657" /><sodipodi:guide
       orientation="0,1"
       position="1293.3071,478.34646"
       id="guide4659" /><sodipodi:guide
       orientation="0,1"
       position="992.12598,584.64567"
       id="guide4661" /><sodipodi:guide
       orientation="1,0"
       position="1665.3543,318.89764"
       id="guide4690" /><sodipodi:guide
       orientation="1,0"
       position="1027.5591,357.874"
       id="guide4692" /><sodipodi:guide
       orientation="1,0"
       position="145.27559,690.94488"
       id="guide3165" /><sodipodi:guide
       orientation="1,0"
       position="244.48819,676.77165"
       id="guide3167" /><sodipodi:guide
       orientation="0,1"
       position="166.53543,765.35433"
       id="guide3169" /><sodipodi:guide
       orientation="1,0"
       position="705.11811,659.05512"
       id="guide3205" /><sodipodi:guide
       orientation="1,0"
       position="605.90551,644.88189"
       id="guide3232" /><sodipodi:guide
       orientation="0,1"
       position="170.07874,623.62205"
       id="guide3248" /><sodipodi:guide
       orientation="0,1"
       position="240.94488,549.2126"
       id="guide3264" /><sodipodi:guide
       orientation="0,1"
       position="294.09449,744.09449"
       id="guide3308" /><sodipodi:guide
       orientation="1,0"
       position="379.13386,701.5748"
       id="guide3312" /><sodipodi:guide
       orientation="1,0"
       position="471.25984,701.5748"
       id="guide3314" /><sodipodi:guide
       orientation="0,1"
       position="421.65354,602.3622"
       id="guide3341" /><sodipodi:guide
       orientation="1,0"
       position="1300.3937,690.94488"
       id="guide3358" /><sodipodi:guide
       orientation="1,0"
       position="1392.5197,676.77165"
       id="guide3360" /><sodipodi:guide
       orientation="1,0"
       position="1527.1654,669.68504"
       id="guide3390" /><sodipodi:guide
       orientation="1,0"
       position="1165.6627,616.59939"
       id="guide3392" /><sodipodi:guide
       orientation="1,0"
       position="1626.378,612.99213"
       id="guide3394" /><sodipodi:guide
       orientation="1,0"
       position="1066.5354,520.86614"
       id="guide3463" /><sodipodi:guide
       orientation="0,1"
       position="787.94643,690.94488"
       id="guide3077" /><sodipodi:guide
       orientation="0,1"
       position="152.3622,347.24409"
       id="guide3829" /><sodipodi:guide
       orientation="1,0"
       position="-24.80315,474.80315"
       id="guide3831" /><sodipodi:guide
       orientation="0,1"
       position="134.64567,790.15748"
       id="guide3833" /><sodipodi:guide
       orientation="1,0"
       position="875.19685,343.70079"
       id="guide3835" /><sodipodi:guide
       orientation="1,0"
       position="875.19685,357.87402"
       id="guide3837" /></sodipodi:namedview><g
     id="g5858"
     inkscape:groupmode="layer"
     inkscape:label="Equipment mount"
     transform="matrix(1.25,0,0,-1.25,0,743.75)"><path
       style="fill:#afafe9;fill-opacity:1;stroke:none"
       d="m 0,632.12598 680.31496,0 c 14.17413,0 19.84252,-5.66929 19.84252,-19.84252 l 0,-314.64567 c 0,-14.17322 -5.66929,-19.84252 -19.84252,-19.84252 L 0,277.79528 c -14.173228,0 -19.84252,5.66928 -19.84252,19.84251 l 0,314.64567 c 0,14.17841 5.669292,19.84252 19.84252,19.84252 z"
       id="rect12276-4"
       inkscape:connector-curvature="0"
       sodipodi:nodetypes="sssssssss" /><path
       sodipodi:type="arc"
       style="fill:#0b1728;fill-opacity:1;stroke:none"
       id="path3077-2-3"
       sodipodi:cx="-113.38583"
       sodipodi:cy="240.60039"
       sodipodi:rx="10.629921"
       sodipodi:ry="10.629921"
       d="m -102.75591,240.60039 c 0,5.87074 -4.75918,10.62992 -10.62992,10.62992 -5.87075,0 -10.62992,-4.75918 -10.62992,-10.62992 0,-5.87075 4.75917,-10.62992 10.62992,-10.62992 5.87074,0 10.62992,4.75917 10.62992,10.62992 z"
       transform="matrix(0,0.8,0.8,0,-107.44092,473.38583)" /><path
       sodipodi:type="arc"
       style="fill:#0b1728;fill-opacity:1;stroke:none"
       id="path3077-4-7-3"
       sodipodi:cx="-113.38583"
       sodipodi:cy="240.60039"
       sodipodi:rx="10.629921"
       sodipodi:ry="10.629921"
       d="m -102.75591,240.60039 c 0,5.87074 -4.75918,10.62992 -10.62992,10.62992 -5.87075,0 -10.62992,-4.75918 -10.62992,-10.62992 0,-5.87075 4.75917,-10.62992 10.62992,-10.62992 5.87074,0 10.62992,4.75917 10.62992,10.62992 z"
       transform="matrix(0,0.8,0.8,0,-22.401554,473.38583)" /><path
       sodipodi:type="arc"
       style="fill:#0b1728;fill-opacity:1;stroke:none"
       id="path3077-8-9-5"
       sodipodi:cx="-113.38583"
       sodipodi:cy="240.60039"
       sodipodi:rx="10.629921"
       sodipodi:ry="10.629921"
       d="m -102.75591,240.60039 c 0,5.87074 -4.75918,10.62992 -10.62992,10.62992 -5.87075,0 -10.62992,-4.75918 -10.62992,-10.62992 0,-5.87075 4.75917,-10.62992 10.62992,-10.62992 5.87074,0 10.62992,4.75917 10.62992,10.62992 z"
       transform="matrix(0,0.8,0.8,0,62.637819,473.38583)" /><path
       sodipodi:type="arc"
       style="fill:#0b1728;fill-opacity:1;stroke:none"
       id="path3077-82-54-9"
       sodipodi:cx="-113.38583"
       sodipodi:cy="240.60039"
       sodipodi:rx="10.629921"
       sodipodi:ry="10.629921"
       d="m -102.75591,240.60039 c 0,5.87074 -4.75918,10.62992 -10.62992,10.62992 -5.87075,0 -10.62992,-4.75918 -10.62992,-10.62992 0,-5.87075 4.75917,-10.62992 10.62992,-10.62992 5.87074,0 10.62992,4.75917 10.62992,10.62992 z"
       transform="matrix(0,0.8,0.8,0,147.67718,473.38583)" /><path
       sodipodi:type="arc"
       style="fill:#0b1728;fill-opacity:1;stroke:none"
       id="path3077-4-4-3-9"
       sodipodi:cx="-113.38583"
       sodipodi:cy="240.60039"
       sodipodi:rx="10.629921"
       sodipodi:ry="10.629921"
       d="m -102.75591,240.60039 c 0,5.87074 -4.75918,10.62992 -10.62992,10.62992 -5.87075,0 -10.62992,-4.75918 -10.62992,-10.62992 0,-5.87075 4.75917,-10.62992 10.62992,-10.62992 5.87074,0 10.62992,4.75917 10.62992,10.62992 z"
       transform="matrix(0,0.8,0.8,0,232.71656,473.38583)" /><path
       sodipodi:type="arc"
       style="fill:#0b1728;fill-opacity:1;stroke:none"
       id="path3077-8-5-1-8"
       sodipodi:cx="-113.38583"
       sodipodi:cy="240.60039"
       sodipodi:rx="10.629921"
       sodipodi:ry="10.629921"
       d="m -102.75591,240.60039 c 0,5.87074 -4.75918,10.62992 -10.62992,10.62992 -5.87075,0 -10.62992,-4.75918 -10.62992,-10.62992 0,-5.87075 4.75917,-10.62992 10.62992,-10.62992 5.87074,0 10.62992,4.75917 10.62992,10.62992 z"
       transform="matrix(0,0.8,0.8,0,317.75593,473.38583)" /><path
       sodipodi:type="arc"
       style="fill:#0b1728;fill-opacity:1;stroke:none"
       id="path3077-82-5-2-1"
       sodipodi:cx="-113.38583"
       sodipodi:cy="240.60039"
       sodipodi:rx="10.629921"
       sodipodi:ry="10.629921"
       d="m -102.75591,240.60039 c 0,5.87074 -4.75918,10.62992 -10.62992,10.62992 -5.87075,0 -10.62992,-4.75918 -10.62992,-10.62992 0,-5.87075 4.75917,-10.62992 10.62992,-10.62992 5.87074,0 10.62992,4.75917 10.62992,10.62992 z"
       transform="matrix(0,0.8,0.8,0,147.67717,388.34647)" /><path
       sodipodi:type="arc"
       style="fill:#0b1728;fill-opacity:1;stroke:none"
       id="path3077-4-4-1-3-8"
       sodipodi:cx="-113.38583"
       sodipodi:cy="240.60039"
       sodipodi:rx="10.629921"
       sodipodi:ry="10.629921"
       d="m -102.75591,240.60039 c 0,5.87074 -4.75918,10.62992 -10.62992,10.62992 -5.87075,0 -10.62992,-4.75918 -10.62992,-10.62992 0,-5.87075 4.75917,-10.62992 10.62992,-10.62992 5.87074,0 10.62992,4.75917 10.62992,10.62992 z"
       transform="matrix(0,0.8,0.8,0,232.71655,388.34647)" /><path
       sodipodi:type="arc"
       style="fill:#0b1728;fill-opacity:1;stroke:none"
       id="path3077-8-5-7-3-2"
       sodipodi:cx="-113.38583"
       sodipodi:cy="240.60039"
       sodipodi:rx="10.629921"
       sodipodi:ry="10.629921"
       d="m -102.75591,240.60039 c 0,5.87074 -4.75918,10.62992 -10.62992,10.62992 -5.87075,0 -10.62992,-4.75918 -10.62992,-10.62992 0,-5.87075 4.75917,-10.62992 10.62992,-10.62992 5.87074,0 10.62992,4.75917 10.62992,10.62992 z"
       transform="matrix(0,0.8,0.8,0,317.75593,388.34647)" /><path
       sodipodi:type="arc"
       style="fill:#0b1728;fill-opacity:1;stroke:none"
       id="path3077-82-5-1-1-6"
       sodipodi:cx="-113.38583"
       sodipodi:cy="240.60039"
       sodipodi:rx="10.629921"
       sodipodi:ry="10.629921"
       d="m -102.75591,240.60039 a 10.629921,10.629921 0 1 1 -21.25984,0 10.629921,10.629921 0 1 1 21.25984,0 z"
       transform="matrix(0,0.8,0.8,0,62.637802,388.34646)" /><path
       sodipodi:type="arc"
       style="fill:#0b1728;fill-opacity:1;stroke:none"
       id="path3077-8-5-1-1-60"
       sodipodi:cx="-113.38583"
       sodipodi:cy="240.60039"
       sodipodi:rx="10.629921"
       sodipodi:ry="10.629921"
       d="m -102.75591,240.60039 c 0,5.87074 -4.75918,10.62992 -10.62992,10.62992 -5.87075,0 -10.62992,-4.75918 -10.62992,-10.62992 0,-5.87075 4.75917,-10.62992 10.62992,-10.62992 5.87074,0 10.62992,4.75917 10.62992,10.62992 z"
       transform="matrix(0,0.8,0.8,0,402.79523,473.38583)" /><path
       sodipodi:type="arc"
       style="fill:#0b1728;fill-opacity:1;stroke:none"
       id="path3077-8-5-7-3-3-3"
       sodipodi:cx="-113.38583"
       sodipodi:cy="240.60039"
       sodipodi:rx="10.629921"
       sodipodi:ry="10.629921"
       d="m -102.75591,240.60039 c 0,5.87074 -4.75918,10.62992 -10.62992,10.62992 -5.87075,0 -10.62992,-4.75918 -10.62992,-10.62992 0,-5.87075 4.75917,-10.62992 10.62992,-10.62992 5.87074,0 10.62992,4.75917 10.62992,10.62992 z"
       transform="matrix(0,0.8,0.8,0,402.79523,388.34647)" /><path
       sodipodi:type="arc"
       style="fill:#0b1728;fill-opacity:1;stroke:none"
       id="path3077-2-8-80"
       sodipodi:cx="-113.38583"
       sodipodi:cy="240.60039"
       sodipodi:rx="10.629921"
       sodipodi:ry="10.629921"
       d="m -102.75591,240.60039 a 10.629921,10.629921 0 1 1 -21.25984,0 10.629921,10.629921 0 1 1 21.25984,0 z"
       transform="matrix(0,0.8,0.8,0,-107.44094,388.34646)" /><path
       sodipodi:type="arc"
       style="fill:#0b1728;fill-opacity:1;stroke:none"
       id="path3077-4-7-7-1"
       sodipodi:cx="-113.38583"
       sodipodi:cy="240.60039"
       sodipodi:rx="10.629921"
       sodipodi:ry="10.629921"
       d="m -102.75591,240.60039 a 10.629921,10.629921 0 1 1 -21.25984,0 10.629921,10.629921 0 1 1 21.25984,0 z"
       transform="matrix(0,0.8,0.8,0,-22.40157,388.34646)" /><path
       sodipodi:type="arc"
       style="fill:#0b1728;fill-opacity:1;stroke:none"
       id="path3077-2-24-2"
       sodipodi:cx="-113.38583"
       sodipodi:cy="240.60039"
       sodipodi:rx="10.629921"
       sodipodi:ry="10.629921"
       d="m -102.75591,240.60039 c 0,5.87074 -4.75918,10.62992 -10.62992,10.62992 -5.87075,0 -10.62992,-4.75918 -10.62992,-10.62992 0,-5.87075 4.75917,-10.62992 10.62992,-10.62992 5.87074,0 10.62992,4.75917 10.62992,10.62992 z"
       transform="matrix(0,0.8,0.8,0,-192.4803,473.38583)" /><path
       sodipodi:type="arc"
       style="fill:#0b1728;fill-opacity:1;stroke:none"
       id="path3077-2-8-8-5"
       sodipodi:cx="-113.38583"
       sodipodi:cy="240.60039"
       sodipodi:rx="10.629921"
       sodipodi:ry="10.629921"
       d="m -102.75591,240.60039 a 10.629921,10.629921 0 1 1 -21.25984,0 10.629921,10.629921 0 1 1 21.25984,0 z"
       transform="matrix(0,0.8,0.8,0,-192.48031,388.34646)" /><path
       sodipodi:type="arc"
       style="fill:#0b1728;fill-opacity:1;stroke:none"
       id="path3077-8-5-1-1-6-0"
       sodipodi:cx="-113.38583"
       sodipodi:cy="240.60039"
       sodipodi:rx="10.629921"
       sodipodi:ry="10.629921"
       d="m -102.75591,240.60039 c 0,5.87074 -4.75918,10.62992 -10.62992,10.62992 -5.87075,0 -10.62992,-4.75918 -10.62992,-10.62992 0,-5.87075 4.75917,-10.62992 10.62992,-10.62992 5.87074,0 10.62992,4.75917 10.62992,10.62992 z"
       transform="matrix(0,0.8,0.8,0,487.83463,473.38583)" /><path
       sodipodi:type="arc"
       style="fill:#0b1728;fill-opacity:1;stroke:none"
       id="path3077-8-5-7-3-3-5-9"
       sodipodi:cx="-113.38583"
       sodipodi:cy="240.60039"
       sodipodi:rx="10.629921"
       sodipodi:ry="10.629921"
       d="m -102.75591,240.60039 c 0,5.87074 -4.75918,10.62992 -10.62992,10.62992 -5.87075,0 -10.62992,-4.75918 -10.62992,-10.62992 0,-5.87075 4.75917,-10.62992 10.62992,-10.62992 5.87074,0 10.62992,4.75917 10.62992,10.62992 z"
       transform="matrix(0,0.8,0.8,0,487.83463,388.34647)" /><path
       sodipodi:type="arc"
       style="fill:#0b1728;fill-opacity:1;stroke:none"
       id="path3077-8-5-1-1-60-4"
       sodipodi:cx="-113.38583"
       sodipodi:cy="240.60039"
       sodipodi:rx="10.629921"
       sodipodi:ry="10.629921"
       d="m -102.75591,240.60039 c 0,5.87074 -4.75918,10.62992 -10.62992,10.62992 -5.87075,0 -10.62992,-4.75918 -10.62992,-10.62992 0,-5.87075 4.75917,-10.62992 10.62992,-10.62992 5.87074,0 10.62992,4.75917 10.62992,10.62992 z"
       transform="matrix(0,0.8,0.8,0,402.79523,643.46458)" /><path
       sodipodi:type="arc"
       style="fill:#0b1728;fill-opacity:1;stroke:none"
       id="path3077-8-5-7-3-3-3-7"
       sodipodi:cx="-113.38583"
       sodipodi:cy="240.60039"
       sodipodi:rx="10.629921"
       sodipodi:ry="10.629921"
       d="m -102.75591,240.60039 c 0,5.87074 -4.75918,10.62992 -10.62992,10.62992 -5.87075,0 -10.62992,-4.75918 -10.62992,-10.62992 0,-5.87075 4.75917,-10.62992 10.62992,-10.62992 5.87074,0 10.62992,4.75917 10.62992,10.62992 z"
       transform="matrix(0,0.8,0.8,0,402.79523,558.42521)" /><path
       sodipodi:type="arc"
       style="fill:#0b1728;fill-opacity:1;stroke:none"
       id="path3077-8-5-1-1-6-0-8"
       sodipodi:cx="-113.38583"
       sodipodi:cy="240.60039"
       sodipodi:rx="10.629921"
       sodipodi:ry="10.629921"
       d="m -102.75591,240.60039 c 0,5.87074 -4.75918,10.62992 -10.62992,10.62992 -5.87075,0 -10.62992,-4.75918 -10.62992,-10.62992 0,-5.87075 4.75917,-10.62992 10.62992,-10.62992 5.87074,0 10.62992,4.75917 10.62992,10.62992 z"
       transform="matrix(0,0.8,0.8,0,487.83453,643.46458)" /><path
       sodipodi:type="arc"
       style="fill:#0b1728;fill-opacity:1;stroke:none"
       id="path3077-8-5-7-3-3-5-9-3"
       sodipodi:cx="-113.38583"
       sodipodi:cy="240.60039"
       sodipodi:rx="10.629921"
       sodipodi:ry="10.629921"
       d="m -102.75591,240.60039 c 0,5.87074 -4.75918,10.62992 -10.62992,10.62992 -5.87075,0 -10.62992,-4.75918 -10.62992,-10.62992 0,-5.87075 4.75917,-10.62992 10.62992,-10.62992 5.87074,0 10.62992,4.75917 10.62992,10.62992 z"
       transform="matrix(0,0.8,0.8,0,487.83453,558.42521)" /><path
       sodipodi:type="arc"
       style="fill:#0b1728;fill-opacity:1;stroke:none"
       id="path3077-8-5-1-1-60-5"
       sodipodi:cx="-113.38583"
       sodipodi:cy="240.60039"
       sodipodi:rx="10.629921"
       sodipodi:ry="10.629921"
       d="m -102.75591,240.60039 c 0,5.87074 -4.75918,10.62992 -10.62992,10.62992 -5.87075,0 -10.62992,-4.75918 -10.62992,-10.62992 0,-5.87075 4.75917,-10.62992 10.62992,-10.62992 5.87074,0 10.62992,4.75917 10.62992,10.62992 z"
       transform="matrix(0,0.8,0.8,0,-192.4803,643.46458)" /><path
       sodipodi:type="arc"
       style="fill:#0b1728;fill-opacity:1;stroke:none"
       id="path3077-8-5-7-3-3-3-1"
       sodipodi:cx="-113.38583"
       sodipodi:cy="240.60039"
       sodipodi:rx="10.629921"
       sodipodi:ry="10.629921"
       d="m -102.75591,240.60039 c 0,5.87074 -4.75918,10.62992 -10.62992,10.62992 -5.87075,0 -10.62992,-4.75918 -10.62992,-10.62992 0,-5.87075 4.75917,-10.62992 10.62992,-10.62992 5.87074,0 10.62992,4.75917 10.62992,10.62992 z"
       transform="matrix(0,0.8,0.8,0,-192.4803,558.42521)" /><path
       sodipodi:type="arc"
       style="fill:#0b1728;fill-opacity:1;stroke:none"
       id="path3077-8-5-1-1-6-0-2"
       sodipodi:cx="-113.38583"
       sodipodi:cy="240.60039"
       sodipodi:rx="10.629921"
       sodipodi:ry="10.629921"
       d="m -102.75591,240.60039 c 0,5.87074 -4.75918,10.62992 -10.62992,10.62992 -5.87075,0 -10.62992,-4.75918 -10.62992,-10.62992 0,-5.87075 4.75917,-10.62992 10.62992,-10.62992 5.87074,0 10.62992,4.75917 10.62992,10.62992 z"
       transform="matrix(0,0.8,0.8,0,-107.44094,643.46458)" /><path
       sodipodi:type="arc"
       style="fill:#0b1728;fill-opacity:1;stroke:none"
       id="path3077-8-5-7-3-3-5-9-0"
       sodipodi:cx="-113.38583"
       sodipodi:cy="240.60039"
       sodipodi:rx="10.629921"
       sodipodi:ry="10.629921"
       d="m -102.75591,240.60039 c 0,5.87074 -4.75918,10.62992 -10.62992,10.62992 -5.87075,0 -10.62992,-4.75918 -10.62992,-10.62992 0,-5.87075 4.75917,-10.62992 10.62992,-10.62992 5.87074,0 10.62992,4.75917 10.62992,10.62992 z"
       transform="matrix(0,0.8,0.8,0,-107.44094,558.42521)" /><path
       sodipodi:type="arc"
       style="fill:#44aa00;fill-opacity:1;stroke:none"
       id="path3163-4-8-22"
       sodipodi:cx="168.30708"
       sodipodi:cy="-5.6594486"
       sodipodi:rx="8.8582678"
       sodipodi:ry="8.8582678"
       d="m 177.16535,-5.6594486 a 8.8582678,8.8582678 0 1 1 -17.71653,0 8.8582678,8.8582678 0 1 1 17.71653,0 z"
       transform="matrix(0.8,0,0,-0.8,168.66144,590.74804)" /><path
       sodipodi:type="arc"
       style="fill:#44aa00;fill-opacity:1;stroke:none"
       id="path3163-4-8-16"
       sodipodi:cx="168.30708"
       sodipodi:cy="-5.6594486"
       sodipodi:rx="8.8582678"
       sodipodi:ry="8.8582678"
       d="m 177.16535,-5.6594486 a 8.8582678,8.8582678 0 1 1 -17.71653,0 8.8582678,8.8582678 0 1 1 17.71653,0 z"
       transform="matrix(0.8,0,0,-0.8,242.36223,590.74804)" /><path
       sodipodi:type="arc"
       style="fill:#44aa00;fill-opacity:1;stroke:none"
       id="path3163-4-8-8"
       sodipodi:cx="168.30708"
       sodipodi:cy="-5.6594486"
       sodipodi:rx="8.8582678"
       sodipodi:ry="8.8582678"
       d="m 177.16535,-5.6594486 c 0,4.89228618 -3.96598,8.8582678 -8.85827,8.8582678 -4.89228,0 -8.85826,-3.96598162 -8.85826,-8.8582678 0,-4.8922864 3.96598,-8.8582674 8.85826,-8.8582674 4.89229,0 8.85827,3.965981 8.85827,8.8582674 z"
       transform="matrix(0.8,0,0,-0.8,242.36221,477.36222)" /><path
       sodipodi:type="arc"
       style="fill:#44aa00;fill-opacity:1;stroke:none"
       id="path3163-4-8-5"
       sodipodi:cx="168.30708"
       sodipodi:cy="-5.6594486"
       sodipodi:rx="8.8582678"
       sodipodi:ry="8.8582678"
       d="m 177.16535,-5.6594486 c 0,4.89228618 -3.96598,8.8582678 -8.85827,8.8582678 -4.89228,0 -8.85826,-3.96598162 -8.85826,-8.8582678 0,-4.8922864 3.96598,-8.8582674 8.85826,-8.8582674 4.89229,0 8.85827,3.965981 8.85827,8.8582674 z"
       transform="matrix(0.8,0,0,-0.8,168.66142,477.36222)" /><path
       sodipodi:type="arc"
       style="fill:#44aa00;fill-opacity:1;stroke:none"
       id="path3163-4-8-8-7"
       sodipodi:cx="168.30708"
       sodipodi:cy="-5.6594486"
       sodipodi:rx="8.8582678"
       sodipodi:ry="8.8582678"
       d="m 177.16535,-5.6594486 c 0,4.89228618 -3.96598,8.8582678 -8.85827,8.8582678 -4.89228,0 -8.85826,-3.96598162 -8.85826,-8.8582678 0,-4.8922864 3.96598,-8.8582674 8.85826,-8.8582674 4.89229,0 8.85827,3.965981 8.85827,8.8582674 z"
       transform="matrix(0.8,0,0,-0.8,350.07873,494.37009)" /><path
       sodipodi:type="arc"
       style="fill:#44aa00;fill-opacity:1;stroke:none"
       id="path3163-4-8-8-6"
       sodipodi:cx="168.30708"
       sodipodi:cy="-5.6594486"
       sodipodi:rx="8.8582678"
       sodipodi:ry="8.8582678"
       d="m 177.16535,-5.6594486 c 0,4.89228618 -3.96598,8.8582678 -8.85827,8.8582678 -4.89228,0 -8.85826,-3.96598162 -8.85826,-8.8582678 0,-4.8922864 3.96598,-8.8582674 8.85826,-8.8582674 4.89229,0 8.85827,3.965981 8.85827,8.8582674 z"
       transform="matrix(0.8,0,0,-0.8,429.44883,494.37009)" /><path
       sodipodi:type="arc"
       style="fill:#44aa00;fill-opacity:1;stroke:none"
       id="path3163-4-8-8-1"
       sodipodi:cx="168.30708"
       sodipodi:cy="-5.6594486"
       sodipodi:rx="8.8582678"
       sodipodi:ry="8.8582678"
       d="m 177.16535,-5.6594486 a 8.8582678,8.8582678 0 1 1 -17.71653,0 8.8582678,8.8582678 0 1 1 17.71653,0 z"
       transform="matrix(0.8,0,0,-0.8,429.44885,548.22835)" /><path
       sodipodi:type="arc"
       style="fill:#44aa00;fill-opacity:1;stroke:none"
       id="path3163-4-8-8-8"
       sodipodi:cx="168.30708"
       sodipodi:cy="-5.6594486"
       sodipodi:rx="8.8582678"
       sodipodi:ry="8.8582678"
       d="m 177.16535,-5.6594486 a 8.8582678,8.8582678 0 1 1 -17.71653,0 8.8582678,8.8582678 0 1 1 17.71653,0 z"
       transform="matrix(0.8,0,0,-0.8,350.07875,548.22835)" /><path
       sodipodi:type="arc"
       style="fill:#44aa00;fill-opacity:1;stroke:none"
       id="path3163-4-8-8-9"
       sodipodi:cx="168.30708"
       sodipodi:cy="-5.6594486"
       sodipodi:rx="8.8582678"
       sodipodi:ry="8.8582678"
       d="m 177.16535,-5.6594486 a 8.8582678,8.8582678 0 1 1 -17.71653,0 8.8582678,8.8582678 0 1 1 17.71653,0 z"
       transform="matrix(0.8,0,0,-0.8,350.07875,607.75591)" /><path
       sodipodi:type="arc"
       style="fill:#44aa00;fill-opacity:1;stroke:none"
       id="path3163-4-8-8-2"
       sodipodi:cx="168.30708"
       sodipodi:cy="-5.6594486"
       sodipodi:rx="8.8582678"
       sodipodi:ry="8.8582678"
       d="m 177.16535,-5.6594486 a 8.8582678,8.8582678 0 1 1 -17.71653,0 8.8582678,8.8582678 0 1 1 17.71653,0 z"
       transform="matrix(0.8,0,0,-0.8,429.44885,607.75591)" /><path
       sodipodi:type="arc"
       style="fill:#44aa00;fill-opacity:1;stroke:none"
       id="path3163-4-8-8-79"
       sodipodi:cx="168.30708"
       sodipodi:cy="-5.6594486"
       sodipodi:rx="8.8582678"
       sodipodi:ry="8.8582678"
       d="m 177.16535,-5.6594486 c 0,4.89228618 -3.96598,8.8582678 -8.85827,8.8582678 -4.89228,0 -8.85826,-3.96598162 -8.85826,-8.8582678 0,-4.8922864 3.96598,-8.8582674 8.85826,-8.8582674 4.89229,0 8.85827,3.965981 8.85827,8.8582674 z"
       transform="matrix(0.8,0,0,-0.8,350.07873,434.84254)" /><path
       sodipodi:type="arc"
       style="fill:#44aa00;fill-opacity:1;stroke:none"
       id="path3163-4-8-8-5"
       sodipodi:cx="168.30708"
       sodipodi:cy="-5.6594486"
       sodipodi:rx="8.8582678"
       sodipodi:ry="8.8582678"
       d="m 177.16535,-5.6594486 c 0,4.89228618 -3.96598,8.8582678 -8.85827,8.8582678 -4.89228,0 -8.85826,-3.96598162 -8.85826,-8.8582678 0,-4.8922864 3.96598,-8.8582674 8.85826,-8.8582674 4.89229,0 8.85827,3.965981 8.85827,8.8582674 z"
       transform="matrix(0.8,0,0,-0.8,429.44883,434.84254)" /><path
       sodipodi:type="arc"
       style="fill:#44aa00;fill-opacity:1;stroke:none"
       id="path3163-4-8-8-4"
       sodipodi:cx="168.30708"
       sodipodi:cy="-5.6594486"
       sodipodi:rx="8.8582678"
       sodipodi:ry="8.8582678"
       d="m 177.16535,-5.6594486 c 0,4.89228618 -3.96598,8.8582678 -8.85827,8.8582678 -4.89228,0 -8.85826,-3.96598162 -8.85826,-8.8582678 0,-4.8922864 3.96598,-8.8582674 8.85826,-8.8582674 4.89229,0 8.85827,3.965981 8.85827,8.8582674 z"
       transform="matrix(0.8,0,0,-0.8,60.944859,434.84254)" /><path
       sodipodi:type="arc"
       style="fill:#44aa00;fill-opacity:1;stroke:none"
       id="path3163-4-8-8-3"
       sodipodi:cx="168.30708"
       sodipodi:cy="-5.6594486"
       sodipodi:rx="8.8582678"
       sodipodi:ry="8.8582678"
       d="m 177.16535,-5.6594486 c 0,4.89228618 -3.96598,8.8582678 -8.85827,8.8582678 -4.89228,0 -8.85826,-3.96598162 -8.85826,-8.8582678 0,-4.8922864 3.96598,-8.8582674 8.85826,-8.8582674 4.89229,0 8.85827,3.965981 8.85827,8.8582674 z"
       transform="matrix(0.8,0,0,-0.8,60.944859,494.37009)" /><path
       sodipodi:type="arc"
       style="fill:#44aa00;fill-opacity:1;stroke:none"
       id="path3163-4-8-8-12"
       sodipodi:cx="168.30708"
       sodipodi:cy="-5.6594486"
       sodipodi:rx="8.8582678"
       sodipodi:ry="8.8582678"
       d="m 177.16535,-5.6594486 c 0,4.89228618 -3.96598,8.8582678 -8.85827,8.8582678 -4.89228,0 -8.85826,-3.96598162 -8.85826,-8.8582678 0,-4.8922864 3.96598,-8.8582674 8.85826,-8.8582674 4.89229,0 8.85827,3.965981 8.85827,8.8582674 z"
       transform="matrix(0.8,0,0,-0.8,-18.425204,434.84254)" /><path
       sodipodi:type="arc"
       style="fill:#44aa00;fill-opacity:1;stroke:none"
       id="path3163-4-8-8-33"
       sodipodi:cx="168.30708"
       sodipodi:cy="-5.6594486"
       sodipodi:rx="8.8582678"
       sodipodi:ry="8.8582678"
       d="m 177.16535,-5.6594486 c 0,4.89228618 -3.96598,8.8582678 -8.85827,8.8582678 -4.89228,0 -8.85826,-3.96598162 -8.85826,-8.8582678 0,-4.8922864 3.96598,-8.8582674 8.85826,-8.8582674 4.89229,0 8.85827,3.965981 8.85827,8.8582674 z"
       transform="matrix(0.8,0,0,-0.8,-18.425204,494.37009)" /><path
       sodipodi:type="arc"
       style="fill:#44aa00;fill-opacity:1;stroke:none"
       id="path3163-4-8-8-4-4"
       sodipodi:cx="168.30708"
       sodipodi:cy="-5.6594486"
       sodipodi:rx="8.8582678"
       sodipodi:ry="8.8582678"
       d="m 177.16535,-5.6594486 a 8.8582678,8.8582678 0 1 1 -17.71653,0 8.8582678,8.8582678 0 1 1 17.71653,0 z"
       transform="matrix(0.8,0,0,-0.8,60.944885,548.22835)" /><path
       sodipodi:type="arc"
       style="fill:#44aa00;fill-opacity:1;stroke:none"
       id="path3163-4-8-8-3-1"
       sodipodi:cx="168.30708"
       sodipodi:cy="-5.6594486"
       sodipodi:rx="8.8582678"
       sodipodi:ry="8.8582678"
       d="m 177.16535,-5.6594486 a 8.8582678,8.8582678 0 1 1 -17.71653,0 8.8582678,8.8582678 0 1 1 17.71653,0 z"
       transform="matrix(0.8,0,0,-0.8,60.944885,607.7559)" /><path
       sodipodi:type="arc"
       style="fill:#44aa00;fill-opacity:1;stroke:none"
       id="path3163-4-8-8-12-1"
       sodipodi:cx="168.30708"
       sodipodi:cy="-5.6594486"
       sodipodi:rx="8.8582678"
       sodipodi:ry="8.8582678"
       d="m 177.16535,-5.6594486 a 8.8582678,8.8582678 0 1 1 -17.71653,0 8.8582678,8.8582678 0 1 1 17.71653,0 z"
       transform="matrix(0.8,0,0,-0.8,-18.425178,548.22835)" /><path
       sodipodi:type="arc"
       style="fill:#44aa00;fill-opacity:1;stroke:none"
       id="path3163-4-8-8-33-3"
       sodipodi:cx="168.30708"
       sodipodi:cy="-5.6594486"
       sodipodi:rx="8.8582678"
       sodipodi:ry="8.8582678"
       d="m 177.16535,-5.6594486 a 8.8582678,8.8582678 0 1 1 -17.71653,0 8.8582678,8.8582678 0 1 1 17.71653,0 z"
       transform="matrix(0.8,0,0,-0.8,-18.425178,607.7559)" /></g></svg>