<?xml version="1.0" encoding="UTF-8" standalone="no"?>
<!-- Created with Inkscape (http://www.inkscape.org/) -->

<svg
   xmlns:dc="http://purl.org/dc/elements/1.1/"
   xmlns:cc="http://creativecommons.org/ns#"
   xmlns:rdf="http://www.w3.org/1999/02/22-rdf-syntax-ns#"
   xmlns:svg="http://www.w3.org/2000/svg"
   xmlns="http://www.w3.org/2000/svg"
   xmlns:sodipodi="http://sodipodi.sourceforge.net/DTD/sodipodi-0.dtd"
   xmlns:inkscape="http://www.inkscape.org/namespaces/inkscape"
   id="svg5850"
   version="1.1"
   inkscape:version="0.48.4 r9939"
   width="1052.5"
   height="743.75"
   xml:space="preserve"
   sodipodi:docname="equipment_mount2.svg"><metadata
     id="metadata5856"><rdf:RDF><cc:Work
         rdf:about=""><dc:format>image/svg+xml</dc:format><dc:type
           rdf:resource="http://purl.org/dc/dcmitype/StillImage" /><dc:title /></cc:Work></rdf:RDF></metadata><defs
     id="defs5854"><clipPath
       clipPathUnits="userSpaceOnUse"
       id="clipPath5866"><path
         d="m 281,3196 3896,0 0,3234 -3896,0 0,-3234"
         id="path5868"
         inkscape:connector-curvature="0" /></clipPath><clipPath
       clipPathUnits="userSpaceOnUse"
       id="clipPath6118"><path
         d="m 352,2187 3754,0 0,1510 -3754,0 0,-1510"
         id="path6120"
         inkscape:connector-curvature="0" /></clipPath><clipPath
       clipPathUnits="userSpaceOnUse"
       id="clipPath6274"><path
         d="m 3691,3338 1231,0 0,2950 -1231,0 0,-2950"
         id="path6276"
         inkscape:connector-curvature="0" /></clipPath><clipPath
       clipPathUnits="userSpaceOnUse"
       id="clipPath6358"><path
         d="m 0,0 4923,0 0,6978 L 0,6978 0,0"
         id="path6360"
         inkscape:connector-curvature="0" /></clipPath><clipPath
       clipPathUnits="userSpaceOnUse"
       id="clipPath8158"><path
         d="m 0,0 4923,0 0,6978 L 0,6978 0,0"
         id="path8160"
         inkscape:connector-curvature="0" /></clipPath><clipPath
       clipPathUnits="userSpaceOnUse"
       id="clipPath8170"><path
         d="m 0,0 4923,0 0,6978 L 0,6978 0,0"
         id="path8172"
         inkscape:connector-curvature="0" /></clipPath><clipPath
       clipPathUnits="userSpaceOnUse"
       id="clipPath5866-3"><path
         inkscape:connector-curvature="0"
         d="m 281,3196 3896,0 0,3234 -3896,0 0,-3234"
         id="path5868-4" /></clipPath></defs><sodipodi:namedview
     pagecolor="#ffffff"
     bordercolor="#666666"
     borderopacity="1"
     objecttolerance="10"
     gridtolerance="10"
     guidetolerance="10"
     inkscape:pageopacity="0"
     inkscape:pageshadow="2"
     inkscape:window-width="1366"
     inkscape:window-height="705"
     id="namedview5852"
     showgrid="true"
     inkscape:zoom="1.12"
     inkscape:cx="430.28023"
     inkscape:cy="719.79555"
     inkscape:window-x="-8"
     inkscape:window-y="-8"
     inkscape:window-maximized="1"
     inkscape:current-layer="g5858"
     inkscape:document-units="mm"
     units="mm"
     showguides="true"
     inkscape:guide-bbox="true"
     inkscape:snap-bbox="true"
     inkscape:snap-bbox-edge-midpoints="true"
     inkscape:snap-object-midpoints="true"><inkscape:grid
       type="xygrid"
       id="grid12199"
       empspacing="5"
       visible="true"
       enabled="true"
       snapvisiblegridlinesonly="true"
       units="mm"
       spacingx="1mm"
       spacingy="1mm" /><sodipodi:guide
       orientation="1,0"
       position="425.19685,336.61417"
       id="guide12229" /><sodipodi:guide
       orientation="1,0"
       position="318.89764,-9.375"
       id="guide3357" /><sodipodi:guide
       orientation="0,1"
       position="60.23622,63.779528"
       id="guide3359" /><sodipodi:guide
       orientation="1,0"
       position="531.49606,6.6964286"
       id="guide3361" /><sodipodi:guide
       orientation="1,0"
       position="212.59843,-41.964286"
       id="guide3363" /><sodipodi:guide
       orientation="1,0"
       position="637.79528,-45.535714"
       id="guide3365" /><sodipodi:guide
       orientation="1,0"
       position="106.29921,-53.149606"
       id="guide3367" /><sodipodi:guide
       orientation="0,1"
       position="177.16535,372.04724"
       id="guide3369" /><sodipodi:guide
       orientation="0,1"
       position="56.692913,170.07874"
       id="guide3371" /><sodipodi:guide
       orientation="0,1"
       position="35.433071,276.37795"
       id="guide3373" /><sodipodi:guide
       orientation="1,0"
       position="744.09449,-98.214286"
       id="guide3396" /><sodipodi:guide
       orientation="0,1"
       position="35.433071,-63.765879"
       id="guide3398" /><sodipodi:guide
       orientation="0,1"
       position="318.89764,-173.62205"
       id="guide3421" /><sodipodi:guide
       orientation="1,0"
       position="0,-114.90485"
       id="guide3510" /><sodipodi:guide
       orientation="1,0"
       position="850.3937,-63.765879"
       id="guide3512" /><sodipodi:guide
       orientation="1,0"
       position="1346.4567,106.29921"
       id="guide4657" /><sodipodi:guide
       orientation="0,1"
       position="35.433071,488.97638"
       id="guide4659" /><sodipodi:guide
       orientation="0,1"
       position="56.692913,595.27559"
       id="guide4661" /><sodipodi:guide
       orientation="1,0"
       position="1665.3543,318.89764"
       id="guide4690" /><sodipodi:guide
       orientation="1,0"
       position="1027.5591,357.874"
       id="guide4692" /><sodipodi:guide
       orientation="1,0"
       position="145.27559,690.94488"
       id="guide3165" /><sodipodi:guide
       orientation="1,0"
       position="244.48819,676.77165"
       id="guide3167" /><sodipodi:guide
       orientation="0,1"
       position="403.93701,765.35433"
       id="guide3169" /><sodipodi:guide
       orientation="0,1"
       position="411.02362,690.94488"
       id="guide3171" /><sodipodi:guide
       orientation="1,0"
       position="705.11811,659.05512"
       id="guide3205" /><sodipodi:guide
       orientation="1,0"
       position="605.90551,644.88189"
       id="guide3232" /><sodipodi:guide
       orientation="0,1"
       position="170.07874,623.62205"
       id="guide3248" /><sodipodi:guide
       orientation="0,1"
       position="240.94488,549.2126"
       id="guide3264" /><sodipodi:guide
       orientation="0,1"
       position="407.48031,744.09449"
       id="guide3308" /><sodipodi:guide
       orientation="1,0"
       position="379.13386,701.5748"
       id="guide3312" /><sodipodi:guide
       orientation="1,0"
       position="471.25984,701.5748"
       id="guide3314" /><sodipodi:guide
       orientation="0,1"
       position="421.65354,602.3622"
       id="guide3341" /><sodipodi:guide
       orientation="1,0"
       position="1300.3937,690.94488"
       id="guide3358" /><sodipodi:guide
       orientation="1,0"
       position="1392.5197,676.77165"
       id="guide3360" /><sodipodi:guide
       orientation="1,0"
       position="1527.1654,669.68504"
       id="guide3390" /><sodipodi:guide
       orientation="1,0"
       position="1165.6627,616.59939"
       id="guide3392" /><sodipodi:guide
       orientation="1,0"
       position="1626.378,612.99213"
       id="guide3394" /><sodipodi:guide
       orientation="1,0"
       position="1066.5354,520.86614"
       id="guide3463" /><sodipodi:guide
       orientation="1,0"
       position="17.716535,301.1811"
       id="guide3071" /><sodipodi:guide
       orientation="1,0"
       position="-24.80315,474.80315"
       id="guide3125" /><sodipodi:guide
       orientation="0,1"
       position="46.062992,382.67717"
       id="guide3127" /><sodipodi:guide
       orientation="0,1"
       position="7.0866142,701.5748"
       id="guide3150" /><sodipodi:guide
       orientation="1,0"
       position="875.19685,415.73661"
       id="guide3257" /><sodipodi:guide
       orientation="0,1"
       position="855.78861,38.976378"
       id="guide3337" /><sodipodi:guide
       orientation="0,1"
       position="-5.9188626,790.15748"
       id="guide3339" /></sodipodi:namedview><g
     id="g5858"
     inkscape:groupmode="layer"
     inkscape:label="Equipment mount"
     transform="matrix(1.25,0,0,-1.25,0,743.75)"><path
       style="fill:#afafe9;fill-opacity:1;stroke:none"
       d="m 0,632.12598 680.31496,0 c 14.17323,0 19.84252,-5.64708 19.84252,-19.84252 l 0,-562.17015 c 0,-14.195431 -5.6693,-19.893247 -19.84252,-19.873604 L 0,31.182577 c -14.173214,0.01964 -19.84252,5.678173 -19.84252,19.873604 l 0,561.227279 c 0,14.17323 5.669292,19.84252 19.84252,19.84252 z"
       id="rect12276"
       inkscape:connector-curvature="0"
       sodipodi:nodetypes="cccsssscc" /><path
       transform="scale(1,-1)"
       style="fill:#0b1728;fill-opacity:1;stroke:none"
       d="m 85.01298,-229.60629 c 4.725803,0 8.53033,3.80452 8.53033,8.53033 l 0,170.025946 c 0,4.725803 -3.804527,8.53033 -8.53033,8.53033 -4.725802,0 -8.530329,-3.804527 -8.530329,-8.53033 l 0,-170.025946 c 0,-4.72581 3.804527,-8.53033 8.530329,-8.53033 z"
       id="rect12284" /><path
       style="fill:#0b1728;fill-opacity:1;stroke:none"
       d="m 595.55401,229.60629 c 4.86542,0 8.78235,-3.80452 8.78235,-8.53033 l 0,-170.025946 c 0,-4.725803 -3.91693,-8.53033 -8.78235,-8.53033 -4.86543,0 -8.78236,3.804527 -8.78236,8.53033 l 0,170.025946 c 0,4.72581 3.91693,8.53033 8.78236,8.53033 z"
       id="rect12284-5"
       inkscape:connector-curvature="0" /><path
       transform="scale(1,-1)"
       style="fill:#0b1728;fill-opacity:1;stroke:none"
       d="m 255.09172,-354.33072 c 4.7258,0 8.53033,3.80453 8.53033,8.53033 l 0,294.750376 c 0,4.725803 -3.80453,8.53033 -8.53033,8.53033 -4.72581,0 -8.53033,-3.804527 -8.53033,-8.53033 l 0,-294.750376 c 0,-4.7258 3.80452,-8.53033 8.53033,-8.53033 z"
       id="rect12284-0" /><path
       transform="scale(1,-1)"
       style="fill:#0b1728;fill-opacity:1;stroke:none"
       d="m 425.22323,-354.33072 c 4.7258,0 8.53033,3.80453 8.53033,8.53033 l 0,294.750376 c 0,4.725803 -3.80453,8.53033 -8.53033,8.53033 -4.7258,0 -8.53033,-3.804527 -8.53033,-8.53033 l 0,-294.750376 c 0,-4.7258 3.80453,-8.53033 8.53033,-8.53033 z"
       id="rect12284-3" /><path
       transform="matrix(0,-1,-1,0,0,0)"
       style="fill:#0b1728;fill-opacity:1;stroke:none"
       d="m -51.050015,-396.8504 c 4.725802,0 8.530329,3.80452 8.530329,8.53033 l 0,96.32517 c 0,4.7258 -3.804527,8.53033 -8.530329,8.53033 -4.725803,0 -8.53033,-3.80453 -8.53033,-8.53033 l 0,-96.32517 c 0,-4.72581 3.804527,-8.53033 8.53033,-8.53033 z"
       id="rect12284-0-7" /><path
       transform="matrix(0,-1,-1,0,0,0)"
       style="fill:#0b1728;fill-opacity:1;stroke:none"
       d="m -221.12874,-396.8504 c 4.7258,0 8.53033,3.80452 8.53033,8.53033 l 0,96.32517 c 0,4.7258 -3.80453,8.53033 -8.53033,8.53033 -4.72581,0 -8.53033,-3.80453 -8.53033,-8.53033 l 0,-96.32517 c 0,-4.72581 3.80452,-8.53033 8.53033,-8.53033 z"
       id="rect12284-0-7-9" /><path
       transform="matrix(0,-1,-1,0,0,0)"
       style="fill:#0b1728;fill-opacity:1;stroke:none"
       d="m -136.08938,-396.8504 c 4.72581,0 8.53033,3.80452 8.53033,8.53033 l 0,96.32517 c 0,4.7258 -3.80452,8.53033 -8.53033,8.53033 -4.7258,0 -8.53033,-3.80453 -8.53033,-8.53033 l 0,-96.32517 c 0,-4.72581 3.80453,-8.53033 8.53033,-8.53033 z"
       id="rect12284-0-7-3" /><path
       transform="matrix(0,-1,-1,0,0,0)"
       style="fill:#0b1728;fill-opacity:1;stroke:none"
       d="m -51.050019,-226.77165 c 4.725802,0 8.530329,3.80452 8.530329,8.53033 l 0,96.32517 c 0,4.7258 -3.804527,8.53033 -8.530329,8.53033 -4.725803,0 -8.53033,-3.80453 -8.53033,-8.53033 l 0,-96.32517 c 0,-4.72581 3.804527,-8.53033 8.53033,-8.53033 z"
       id="rect12284-0-7-5" /><path
       transform="matrix(0,-1,-1,0,0,0)"
       style="fill:#0b1728;fill-opacity:1;stroke:none"
       d="m -221.12876,-226.77165 c 4.7258,0 8.53033,3.80452 8.53033,8.53033 l 0,96.32517 c 0,4.7258 -3.80453,8.53033 -8.53033,8.53033 -4.7258,0 -8.53033,-3.80453 -8.53033,-8.53033 l 0,-96.32517 c 0,-4.72581 3.80453,-8.53033 8.53033,-8.53033 z"
       id="rect12284-0-7-9-2" /><path
       transform="matrix(0,-1,-1,0,0,0)"
       style="fill:#0b1728;fill-opacity:1;stroke:none"
       d="m -136.08939,-226.77165 c 4.7258,0 8.53033,3.80452 8.53033,8.53033 l 0,96.32517 c 0,4.7258 -3.80453,8.53033 -8.53033,8.53033 -4.7258,0 -8.53033,-3.80453 -8.53033,-8.53033 l 0,-96.32517 c 0,-4.72581 3.80453,-8.53033 8.53033,-8.53033 z"
       id="rect12284-0-7-3-3" /><path
       transform="matrix(0,-1,-1,0,0,0)"
       style="fill:#0b1728;fill-opacity:1;stroke:none"
       d="m -51.050015,-566.92914 c 4.725802,0 8.530329,3.32896 8.530329,7.46404 l 0,84.28454 c 0,4.13508 -3.804527,7.46404 -8.530329,7.46404 -4.725803,0 -8.53033,-3.32896 -8.53033,-7.46404 l 0,-84.28454 c 0,-4.13508 3.804527,-7.46404 8.53033,-7.46404 z"
       id="rect12284-0-7-5-3" /><path
       transform="matrix(0,-1,-1,0,0,0)"
       style="fill:#0b1728;fill-opacity:1;stroke:none"
       d="m -221.12874,-566.92914 c 4.7258,0 8.53033,3.32896 8.53033,7.46404 l 0,84.28454 c 0,4.13508 -3.80453,7.46404 -8.53033,7.46404 -4.72581,0 -8.53033,-3.32896 -8.53033,-7.46404 l 0,-84.28454 c 0,-4.13508 3.80452,-7.46404 8.53033,-7.46404 z"
       id="rect12284-0-7-9-2-4" /><path
       transform="matrix(0,-1,-1,0,0,0)"
       style="fill:#0b1728;fill-opacity:1;stroke:none"
       d="m -136.08938,-566.92914 c 4.72581,0 8.53033,3.32896 8.53033,7.46404 l 0,84.28454 c 0,4.13508 -3.80452,7.46404 -8.53033,7.46404 -4.7258,0 -8.53033,-3.32896 -8.53033,-7.46404 l 0,-84.28454 c 0,-4.13508 3.80453,-7.46404 8.53033,-7.46404 z"
       id="rect12284-0-7-3-3-1" /><path
       transform="scale(1,-1)"
       style="fill:#0b1728;fill-opacity:1;stroke:none"
       d="m 85.426295,-484.7244 c 4.725803,0 8.53033,3.80453 8.53033,8.53033 l 0,170.02595 c 0,4.72581 -3.804527,8.53033 -8.53033,8.53033 -4.725802,0 -8.530329,-3.80452 -8.530329,-8.53033 l 0,-170.02595 c 0,-4.7258 3.804527,-8.53033 8.530329,-8.53033 z"
       id="rect12284-4" /><path
       transform="scale(1,-1)"
       style="fill:#0b1728;fill-opacity:1;stroke:none"
       d="m 595.2492,-484.7244 c 4.7258,0 8.53033,3.80453 8.53033,8.53033 l 0,170.02595 c 0,4.72581 -3.80453,8.53033 -8.53033,8.53033 -4.7258,0 -8.53033,-3.80452 -8.53033,-8.53033 l 0,-170.02595 c 0,-4.7258 3.80453,-8.53033 8.53033,-8.53033 z"
       id="rect12284-09" /><path
       sodipodi:type="arc"
       style="fill:#44aa00;fill-opacity:1;stroke:none"
       id="path3163"
       sodipodi:cx="168.30708"
       sodipodi:cy="-5.6594486"
       sodipodi:rx="8.8582678"
       sodipodi:ry="8.8582678"
       d="m 177.16535,-5.6594486 a 8.8582678,8.8582678 0 1 1 -17.71653,0 8.8582678,8.8582678 0 1 1 17.71653,0 z"
       transform="matrix(0.8,0,0,-0.8,-18.425193,607.7559)" /><path
       sodipodi:type="arc"
       style="fill:#44aa00;fill-opacity:1;stroke:none"
       id="path3163-1"
       sodipodi:cx="168.30708"
       sodipodi:cy="-5.6594486"
       sodipodi:rx="8.8582678"
       sodipodi:ry="8.8582678"
       d="m 177.16535,-5.6594486 a 8.8582678,8.8582678 0 1 1 -17.71653,0 8.8582678,8.8582678 0 1 1 17.71653,0 z"
       transform="matrix(0.8,0,0,-0.8,-18.425193,548.22834)" /><path
       sodipodi:type="arc"
       style="fill:#44aa00;fill-opacity:1;stroke:none"
       id="path3163-7"
       sodipodi:cx="168.30708"
       sodipodi:cy="-5.6594486"
       sodipodi:rx="8.8582678"
       sodipodi:ry="8.8582678"
       d="m 177.16535,-5.6594486 a 8.8582678,8.8582678 0 1 1 -17.71653,0 8.8582678,8.8582678 0 1 1 17.71653,0 z"
       transform="matrix(0.8,0,0,-0.8,60.944883,548.22834)" /><path
       sodipodi:type="arc"
       style="fill:#44aa00;fill-opacity:1;stroke:none"
       id="path3163-4"
       sodipodi:cx="168.30708"
       sodipodi:cy="-5.6594486"
       sodipodi:rx="8.8582678"
       sodipodi:ry="8.8582678"
       d="m 177.16535,-5.6594486 a 8.8582678,8.8582678 0 1 1 -17.71653,0 8.8582678,8.8582678 0 1 1 17.71653,0 z"
       transform="matrix(0.8,0,0,-0.8,60.944883,607.7559)" /><path
       sodipodi:type="arc"
       style="fill:#44aa00;fill-opacity:1;stroke:none"
       id="path3163-4-0"
       sodipodi:cx="168.30708"
       sodipodi:cy="-5.6594486"
       sodipodi:rx="8.8582678"
       sodipodi:ry="8.8582678"
       d="m 177.16535,-5.6594486 a 8.8582678,8.8582678 0 1 1 -17.71653,0 8.8582678,8.8582678 0 1 1 17.71653,0 z"
       transform="matrix(0.8,0,0,-0.8,429.44882,607.7559)" /><path
       sodipodi:type="arc"
       style="fill:#44aa00;fill-opacity:1;stroke:none"
       id="path3163-4-9"
       sodipodi:cx="168.30708"
       sodipodi:cy="-5.6594486"
       sodipodi:rx="8.8582678"
       sodipodi:ry="8.8582678"
       d="m 177.16535,-5.6594486 a 8.8582678,8.8582678 0 1 1 -17.71653,0 8.8582678,8.8582678 0 1 1 17.71653,0 z"
       transform="matrix(0.8,0,0,-0.8,429.44882,548.22834)" /><path
       sodipodi:type="arc"
       style="fill:#44aa00;fill-opacity:1;stroke:none"
       id="path3163-4-4"
       sodipodi:cx="168.30708"
       sodipodi:cy="-5.6594486"
       sodipodi:rx="8.8582678"
       sodipodi:ry="8.8582678"
       d="m 177.16535,-5.6594486 a 8.8582678,8.8582678 0 1 1 -17.71653,0 8.8582678,8.8582678 0 1 1 17.71653,0 z"
       transform="matrix(0.8,0,0,-0.8,350.07874,548.22834)" /><path
       sodipodi:type="arc"
       style="fill:#44aa00;fill-opacity:1;stroke:none"
       id="path3163-4-8"
       sodipodi:cx="168.30708"
       sodipodi:cy="-5.6594486"
       sodipodi:rx="8.8582678"
       sodipodi:ry="8.8582678"
       d="m 177.16535,-5.6594486 a 8.8582678,8.8582678 0 1 1 -17.71653,0 8.8582678,8.8582678 0 1 1 17.71653,0 z"
       transform="matrix(0.8,0,0,-0.8,350.07874,607.7559)" /><path
       sodipodi:type="arc"
       style="fill:#44aa00;fill-opacity:1;stroke:none"
       id="path3163-4-82"
       sodipodi:cx="168.30708"
       sodipodi:cy="-5.6594486"
       sodipodi:rx="8.8582678"
       sodipodi:ry="8.8582678"
       d="m 177.16535,-5.6594486 c 0,4.89228618 -3.96598,8.8582678 -8.85827,8.8582678 -4.89228,0 -8.85826,-3.96598162 -8.85826,-8.8582678 0,-4.8922864 3.96598,-8.8582674 8.85826,-8.8582674 4.89229,0 8.85827,3.965981 8.85827,8.8582674 z"
       transform="matrix(0.8,0,0,-0.8,-18.425195,494.37008)" /><path
       sodipodi:type="arc"
       style="fill:#44aa00;fill-opacity:1;stroke:none"
       id="path3163-4-45"
       sodipodi:cx="168.30708"
       sodipodi:cy="-5.6594486"
       sodipodi:rx="8.8582678"
       sodipodi:ry="8.8582678"
       d="m 177.16535,-5.6594486 c 0,4.89228618 -3.96598,8.8582678 -8.85827,8.8582678 -4.89228,0 -8.85826,-3.96598162 -8.85826,-8.8582678 0,-4.8922864 3.96598,-8.8582674 8.85826,-8.8582674 4.89229,0 8.85827,3.965981 8.85827,8.8582674 z"
       transform="matrix(0.8,0,0,-0.8,60.944884,494.37008)" /><path
       sodipodi:type="arc"
       style="fill:#44aa00;fill-opacity:1;stroke:none"
       id="path3163-4-5"
       sodipodi:cx="168.30708"
       sodipodi:cy="-5.6594486"
       sodipodi:rx="8.8582678"
       sodipodi:ry="8.8582678"
       d="m 177.16535,-5.6594486 c 0,4.89228618 -3.96598,8.8582678 -8.85827,8.8582678 -4.89228,0 -8.85826,-3.96598162 -8.85826,-8.8582678 0,-4.8922864 3.96598,-8.8582674 8.85826,-8.8582674 4.89229,0 8.85827,3.965981 8.85827,8.8582674 z"
       transform="matrix(0.8,0,0,-0.8,-18.425195,434.84253)" /><path
       sodipodi:type="arc"
       style="fill:#44aa00;fill-opacity:1;stroke:none"
       id="path3163-4-1"
       sodipodi:cx="168.30708"
       sodipodi:cy="-5.6594486"
       sodipodi:rx="8.8582678"
       sodipodi:ry="8.8582678"
       d="m 177.16535,-5.6594486 c 0,4.89228618 -3.96598,8.8582678 -8.85827,8.8582678 -4.89228,0 -8.85826,-3.96598162 -8.85826,-8.8582678 0,-4.8922864 3.96598,-8.8582674 8.85826,-8.8582674 4.89229,0 8.85827,3.965981 8.85827,8.8582674 z"
       transform="matrix(0.8,0,0,-0.8,60.944884,434.84253)" /><path
       sodipodi:type="arc"
       style="fill:#44aa00;fill-opacity:1;stroke:none"
       id="path3163-4-7"
       sodipodi:cx="168.30708"
       sodipodi:cy="-5.6594486"
       sodipodi:rx="8.8582678"
       sodipodi:ry="8.8582678"
       d="m 177.16535,-5.6594486 c 0,4.89228618 -3.96598,8.8582678 -8.85827,8.8582678 -4.89228,0 -8.85826,-3.96598162 -8.85826,-8.8582678 0,-4.8922864 3.96598,-8.8582674 8.85826,-8.8582674 4.89229,0 8.85827,3.965981 8.85827,8.8582674 z"
       transform="matrix(0.8,0,0,-0.8,350.07874,494.37008)" /><path
       sodipodi:type="arc"
       style="fill:#44aa00;fill-opacity:1;stroke:none"
       id="path3163-4-11"
       sodipodi:cx="168.30708"
       sodipodi:cy="-5.6594486"
       sodipodi:rx="8.8582678"
       sodipodi:ry="8.8582678"
       d="m 177.16535,-5.6594486 c 0,4.89228618 -3.96598,8.8582678 -8.85827,8.8582678 -4.89228,0 -8.85826,-3.96598162 -8.85826,-8.8582678 0,-4.8922864 3.96598,-8.8582674 8.85826,-8.8582674 4.89229,0 8.85827,3.965981 8.85827,8.8582674 z"
       transform="matrix(0.8,0,0,-0.8,429.44882,494.37008)" /><path
       sodipodi:type="arc"
       style="fill:#44aa00;fill-opacity:1;stroke:none"
       id="path3163-4-52"
       sodipodi:cx="168.30708"
       sodipodi:cy="-5.6594486"
       sodipodi:rx="8.8582678"
       sodipodi:ry="8.8582678"
       d="m 177.16535,-5.6594486 c 0,4.89228618 -3.96598,8.8582678 -8.85827,8.8582678 -4.89228,0 -8.85826,-3.96598162 -8.85826,-8.8582678 0,-4.8922864 3.96598,-8.8582674 8.85826,-8.8582674 4.89229,0 8.85827,3.965981 8.85827,8.8582674 z"
       transform="matrix(0.8,0,0,-0.8,429.44882,434.84253)" /><path
       sodipodi:type="arc"
       style="fill:#44aa00;fill-opacity:1;stroke:none"
       id="path3163-4-76"
       sodipodi:cx="168.30708"
       sodipodi:cy="-5.6594486"
       sodipodi:rx="8.8582678"
       sodipodi:ry="8.8582678"
       d="m 177.16535,-5.6594486 c 0,4.89228618 -3.96598,8.8582678 -8.85827,8.8582678 -4.89228,0 -8.85826,-3.96598162 -8.85826,-8.8582678 0,-4.8922864 3.96598,-8.8582674 8.85826,-8.8582674 4.89229,0 8.85827,3.965981 8.85827,8.8582674 z"
       transform="matrix(0.8,0,0,-0.8,350.07874,434.84253)" /><path
       sodipodi:type="arc"
       style="fill:#44aa00;fill-opacity:1;stroke:none"
       id="path3163-4-8-1"
       sodipodi:cx="168.30708"
       sodipodi:cy="-5.6594486"
       sodipodi:rx="8.8582678"
       sodipodi:ry="8.8582678"
       d="m 177.16535,-5.6594486 a 8.8582678,8.8582678 0 1 1 -17.71653,0 8.8582678,8.8582678 0 1 1 17.71653,0 z"
       transform="matrix(0.8,0,0,-0.8,242.3622,590.74803)" /><path
       sodipodi:type="arc"
       style="fill:#44aa00;fill-opacity:1;stroke:none"
       id="path3163-4-8-4"
       sodipodi:cx="168.30708"
       sodipodi:cy="-5.6594486"
       sodipodi:rx="8.8582678"
       sodipodi:ry="8.8582678"
       d="m 177.16535,-5.6594486 a 8.8582678,8.8582678 0 1 1 -17.71653,0 8.8582678,8.8582678 0 1 1 17.71653,0 z"
       transform="matrix(0.8,0,0,-0.8,168.66142,590.74803)" /><path
       sodipodi:type="arc"
       style="fill:#44aa00;fill-opacity:1;stroke:none"
       id="path3163-4-8-2"
       sodipodi:cx="168.30708"
       sodipodi:cy="-5.6594486"
       sodipodi:rx="8.8582678"
       sodipodi:ry="8.8582678"
       d="m 177.16535,-5.6594486 c 0,4.89228618 -3.96598,8.8582678 -8.85827,8.8582678 -4.89228,0 -8.85826,-3.96598162 -8.85826,-8.8582678 0,-4.8922864 3.96598,-8.8582674 8.85826,-8.8582674 4.89229,0 8.85827,3.965981 8.85827,8.8582674 z"
       transform="matrix(0.8,0,0,-0.8,168.66142,477.36221)" /><path
       sodipodi:type="arc"
       style="fill:#44aa00;fill-opacity:1;stroke:none"
       id="path3163-4-8-3"
       sodipodi:cx="168.30708"
       sodipodi:cy="-5.6594486"
       sodipodi:rx="8.8582678"
       sodipodi:ry="8.8582678"
       d="m 177.16535,-5.6594486 c 0,4.89228618 -3.96598,8.8582678 -8.85827,8.8582678 -4.89228,0 -8.85826,-3.96598162 -8.85826,-8.8582678 0,-4.8922864 3.96598,-8.8582674 8.85826,-8.8582674 4.89229,0 8.85827,3.965981 8.85827,8.8582674 z"
       transform="matrix(0.8,0,0,-0.8,242.3622,477.36221)" /><path
       sodipodi:type="arc"
       style="fill:#0b1728;fill-opacity:1;stroke:none"
       id="path3077-2-8-80"
       sodipodi:cx="-113.38583"
       sodipodi:cy="240.60039"
       sodipodi:rx="10.629921"
       sodipodi:ry="10.629921"
       d="m -102.75591,240.60039 a 10.629921,10.629921 0 1 1 -21.25984,0 10.629921,10.629921 0 1 1 21.25984,0 z"
       transform="matrix(0,0.8,0.8,0,-107.05401,311.81101)" /><path
       sodipodi:type="arc"
       style="fill:#0b1728;fill-opacity:1;stroke:none"
       id="path3077-2-24-2"
       sodipodi:cx="-113.38583"
       sodipodi:cy="240.60039"
       sodipodi:rx="10.629921"
       sodipodi:ry="10.629921"
       d="m -102.75591,240.60039 a 10.629921,10.629921 0 1 1 -21.25984,0 10.629921,10.629921 0 1 1 21.25984,0 z"
       transform="matrix(0,0.8,0.8,0,-192.09337,396.85038)" /><path
       sodipodi:type="arc"
       style="fill:#0b1728;fill-opacity:1;stroke:none"
       id="path3077-2-8-8-5"
       sodipodi:cx="-113.38583"
       sodipodi:cy="240.60039"
       sodipodi:rx="10.629921"
       sodipodi:ry="10.629921"
       d="m -102.75591,240.60039 a 10.629921,10.629921 0 1 1 -21.25984,0 10.629921,10.629921 0 1 1 21.25984,0 z"
       transform="matrix(0,0.8,0.8,0,-192.09339,311.81101)" /><path
       sodipodi:type="arc"
       style="fill:#0b1728;fill-opacity:1;stroke:none"
       id="path3077-8-5-1-1-60-5"
       sodipodi:cx="-113.38583"
       sodipodi:cy="240.60039"
       sodipodi:rx="10.629921"
       sodipodi:ry="10.629921"
       d="m -102.75591,240.60039 a 10.629921,10.629921 0 1 1 -21.25984,0 10.629921,10.629921 0 1 1 21.25984,0 z"
       transform="matrix(0,0.8,0.8,0,-192.09337,566.92913)" /><path
       sodipodi:type="arc"
       style="fill:#0b1728;fill-opacity:1;stroke:none"
       id="path3077-8-5-7-3-3-3-1"
       sodipodi:cx="-113.38583"
       sodipodi:cy="240.60039"
       sodipodi:rx="10.629921"
       sodipodi:ry="10.629921"
       d="m -102.75591,240.60039 a 10.629921,10.629921 0 1 1 -21.25984,0 10.629921,10.629921 0 1 1 21.25984,0 z"
       transform="matrix(0,0.8,0.8,0,-192.09337,481.88976)" /><path
       sodipodi:type="arc"
       style="fill:#0b1728;fill-opacity:1;stroke:none"
       id="path3077-2-3-1"
       sodipodi:cx="-113.38583"
       sodipodi:cy="240.60039"
       sodipodi:rx="10.629921"
       sodipodi:ry="10.629921"
       d="m -102.75591,240.60039 a 10.629921,10.629921 0 1 1 -21.25984,0 10.629921,10.629921 0 1 1 21.25984,0 z"
       transform="matrix(-0.8,0,0,0.8,249.44883,113.66144)" /><path
       sodipodi:type="arc"
       style="fill:#0b1728;fill-opacity:1;stroke:none"
       id="path3077-8-5-1-1-6-0-2-8"
       sodipodi:cx="-113.38583"
       sodipodi:cy="240.60039"
       sodipodi:rx="10.629921"
       sodipodi:ry="10.629921"
       d="m -102.75591,240.60039 a 10.629921,10.629921 0 1 1 -21.25984,0 10.629921,10.629921 0 1 1 21.25984,0 z"
       transform="matrix(-0.8,0,0,0.8,79.370077,113.66143)" /><path
       sodipodi:type="arc"
       style="fill:#0b1728;fill-opacity:1;stroke:none"
       id="path3077-2-24-2-2"
       sodipodi:cx="-113.38583"
       sodipodi:cy="240.60039"
       sodipodi:rx="10.629921"
       sodipodi:ry="10.629921"
       d="m -102.75591,240.60039 a 10.629921,10.629921 0 1 1 -21.25984,0 10.629921,10.629921 0 1 1 21.25984,0 z"
       transform="matrix(0,0.8,0.8,0,-192.48031,226.77166)" /><path
       sodipodi:type="arc"
       style="fill:#0b1728;fill-opacity:1;stroke:none"
       id="path3077-2-8-8-5-4"
       sodipodi:cx="-113.38583"
       sodipodi:cy="240.60039"
       sodipodi:rx="10.629921"
       sodipodi:ry="10.629921"
       d="m -102.75591,240.60039 a 10.629921,10.629921 0 1 1 -21.25984,0 10.629921,10.629921 0 1 1 21.25984,0 z"
       transform="matrix(0,0.8,0.8,0,-192.48034,141.73229)" /><path
       sodipodi:type="arc"
       style="fill:#0b1728;fill-opacity:1;stroke:none"
       id="path3077-8-5-1-1-60-5-5"
       sodipodi:cx="-113.38583"
       sodipodi:cy="240.60039"
       sodipodi:rx="10.629921"
       sodipodi:ry="10.629921"
       d="m -102.75591,240.60039 a 10.629921,10.629921 0 1 1 -21.25984,0 10.629921,10.629921 0 1 1 21.25984,0 z"
       transform="matrix(0,0.8,0.8,0,-192.09337,651.9685)" /><path
       sodipodi:type="arc"
       style="fill:#0b1728;fill-opacity:1;stroke:none"
       id="path3077-2-24-2-6"
       sodipodi:cx="-113.38583"
       sodipodi:cy="240.60039"
       sodipodi:rx="10.629921"
       sodipodi:ry="10.629921"
       d="m -102.75591,240.60039 a 10.629921,10.629921 0 1 1 -21.25984,0 10.629921,10.629921 0 1 1 21.25984,0 z"
       transform="matrix(0,0.8,0.8,0,487.83465,396.85039)" /><path
       sodipodi:type="arc"
       style="fill:#0b1728;fill-opacity:1;stroke:none"
       id="path3077-2-8-8-5-1"
       sodipodi:cx="-113.38583"
       sodipodi:cy="240.60039"
       sodipodi:rx="10.629921"
       sodipodi:ry="10.629921"
       d="m -102.75591,240.60039 a 10.629921,10.629921 0 1 1 -21.25984,0 10.629921,10.629921 0 1 1 21.25984,0 z"
       transform="matrix(0,0.8,0.8,0,487.83463,311.81102)" /><path
       sodipodi:type="arc"
       style="fill:#0b1728;fill-opacity:1;stroke:none"
       id="path3077-8-5-1-1-60-5-4"
       sodipodi:cx="-113.38583"
       sodipodi:cy="240.60039"
       sodipodi:rx="10.629921"
       sodipodi:ry="10.629921"
       d="m -102.75591,240.60039 a 10.629921,10.629921 0 1 1 -21.25984,0 10.629921,10.629921 0 1 1 21.25984,0 z"
       transform="matrix(0,0.8,0.8,0,487.83465,566.92914)" /><path
       sodipodi:type="arc"
       style="fill:#0b1728;fill-opacity:1;stroke:none"
       id="path3077-8-5-7-3-3-3-1-2"
       sodipodi:cx="-113.38583"
       sodipodi:cy="240.60039"
       sodipodi:rx="10.629921"
       sodipodi:ry="10.629921"
       d="m -102.75591,240.60039 a 10.629921,10.629921 0 1 1 -21.25984,0 10.629921,10.629921 0 1 1 21.25984,0 z"
       transform="matrix(0,0.8,0.8,0,487.83465,481.88977)" /><path
       sodipodi:type="arc"
       style="fill:#0b1728;fill-opacity:1;stroke:none"
       id="path3077-2-24-2-2-3"
       sodipodi:cx="-113.38583"
       sodipodi:cy="240.60039"
       sodipodi:rx="10.629921"
       sodipodi:ry="10.629921"
       d="m -102.75591,240.60039 a 10.629921,10.629921 0 1 1 -21.25984,0 10.629921,10.629921 0 1 1 21.25984,0 z"
       transform="matrix(0,0.8,0.8,0,487.44771,226.77167)" /><path
       sodipodi:type="arc"
       style="fill:#0b1728;fill-opacity:1;stroke:none"
       id="path3077-2-8-8-5-4-2"
       sodipodi:cx="-113.38583"
       sodipodi:cy="240.60039"
       sodipodi:rx="10.629921"
       sodipodi:ry="10.629921"
       d="m -102.75591,240.60039 a 10.629921,10.629921 0 1 1 -21.25984,0 10.629921,10.629921 0 1 1 21.25984,0 z"
       transform="matrix(0,0.8,0.8,0,487.44767,141.7323)" /><path
       sodipodi:type="arc"
       style="fill:#0b1728;fill-opacity:1;stroke:none"
       id="path3077-8-5-1-1-60-5-5-2"
       sodipodi:cx="-113.38583"
       sodipodi:cy="240.60039"
       sodipodi:rx="10.629921"
       sodipodi:ry="10.629921"
       d="m -102.75591,240.60039 a 10.629921,10.629921 0 1 1 -21.25984,0 10.629921,10.629921 0 1 1 21.25984,0 z"
       transform="matrix(0,0.8,0.8,0,487.83465,651.96851)" /><path
       sodipodi:type="arc"
       style="fill:#0b1728;fill-opacity:1;stroke:none"
       id="path3077-2-3-1-1"
       sodipodi:cx="-113.38583"
       sodipodi:cy="240.60039"
       sodipodi:rx="10.629921"
       sodipodi:ry="10.629921"
       d="m -102.75591,240.60039 a 10.629921,10.629921 0 1 1 -21.25984,0 10.629921,10.629921 0 1 1 21.25984,0 z"
       transform="matrix(-0.8,0,0,0.8,419.52757,113.66144)" /><path
       sodipodi:type="arc"
       style="fill:#0b1728;fill-opacity:1;stroke:none"
       id="path3077-2-3-1-6"
       sodipodi:cx="-113.38583"
       sodipodi:cy="240.60039"
       sodipodi:rx="10.629921"
       sodipodi:ry="10.629921"
       d="m -102.75591,240.60039 a 10.629921,10.629921 0 1 1 -21.25984,0 10.629921,10.629921 0 1 1 21.25984,0 z"
       transform="matrix(-0.8,0,0,0.8,249.44882,198.7008)" /><path
       sodipodi:type="arc"
       style="fill:#0b1728;fill-opacity:1;stroke:none"
       id="path3077-8-5-1-1-6-0-2-8-8"
       sodipodi:cx="-113.38583"
       sodipodi:cy="240.60039"
       sodipodi:rx="10.629921"
       sodipodi:ry="10.629921"
       d="m -102.75591,240.60039 a 10.629921,10.629921 0 1 1 -21.25984,0 10.629921,10.629921 0 1 1 21.25984,0 z"
       transform="matrix(-0.8,0,0,0.8,79.370073,198.70079)" /><path
       sodipodi:type="arc"
       style="fill:#0b1728;fill-opacity:1;stroke:none"
       id="path3077-2-3-1-1-7"
       sodipodi:cx="-113.38583"
       sodipodi:cy="240.60039"
       sodipodi:rx="10.629921"
       sodipodi:ry="10.629921"
       d="m -102.75591,240.60039 a 10.629921,10.629921 0 1 1 -21.25984,0 10.629921,10.629921 0 1 1 21.25984,0 z"
       transform="matrix(-0.8,0,0,0.8,419.52756,198.7008)" /><path
       sodipodi:type="arc"
       style="fill:#0b1728;fill-opacity:1;stroke:none"
       id="path3077-2-3-1-6-6"
       sodipodi:cx="-113.38583"
       sodipodi:cy="240.60039"
       sodipodi:rx="10.629921"
       sodipodi:ry="10.629921"
       d="m -102.75591,240.60039 a 10.629921,10.629921 0 1 1 -21.25984,0 10.629921,10.629921 0 1 1 21.25984,0 z"
       transform="matrix(-0.8,0,0,0.8,164.40945,198.7008)" /><path
       sodipodi:type="arc"
       style="fill:#0b1728;fill-opacity:1;stroke:none"
       id="path3077-2-3-1-6-1"
       sodipodi:cx="-113.38583"
       sodipodi:cy="240.60039"
       sodipodi:rx="10.629921"
       sodipodi:ry="10.629921"
       d="m -102.75591,240.60039 a 10.629921,10.629921 0 1 1 -21.25984,0 10.629921,10.629921 0 1 1 21.25984,0 z"
       transform="matrix(-0.8,0,0,0.8,334.48819,198.7008)" /></g></svg>