<?xml version="1.0" encoding="UTF-8" standalone="no"?>
<!-- Created with Inkscape (http://www.inkscape.org/) -->

<svg
   xmlns:dc="http://purl.org/dc/elements/1.1/"
   xmlns:cc="http://creativecommons.org/ns#"
   xmlns:rdf="http://www.w3.org/1999/02/22-rdf-syntax-ns#"
   xmlns:svg="http://www.w3.org/2000/svg"
   xmlns="http://www.w3.org/2000/svg"
   xmlns:sodipodi="http://sodipodi.sourceforge.net/DTD/sodipodi-0.dtd"
   xmlns:inkscape="http://www.inkscape.org/namespaces/inkscape"
   id="svg5850"
   version="1.1"
   inkscape:version="0.48.4 r9939"
   width="1052.5"
   height="743.75"
   xml:space="preserve"
   sodipodi:docname="mount6.svg"><metadata
     id="metadata5856"><rdf:RDF><cc:Work
         rdf:about=""><dc:format>image/svg+xml</dc:format><dc:type
           rdf:resource="http://purl.org/dc/dcmitype/StillImage" /><dc:title /></cc:Work></rdf:RDF></metadata><defs
     id="defs5854"><clipPath
       clipPathUnits="userSpaceOnUse"
       id="clipPath5866"><path
         d="m 281,3196 3896,0 0,3234 -3896,0 0,-3234"
         id="path5868"
         inkscape:connector-curvature="0" /></clipPath><clipPath
       clipPathUnits="userSpaceOnUse"
       id="clipPath6118"><path
         d="m 352,2187 3754,0 0,1510 -3754,0 0,-1510"
         id="path6120"
         inkscape:connector-curvature="0" /></clipPath><clipPath
       clipPathUnits="userSpaceOnUse"
       id="clipPath6274"><path
         d="m 3691,3338 1231,0 0,2950 -1231,0 0,-2950"
         id="path6276"
         inkscape:connector-curvature="0" /></clipPath><clipPath
       clipPathUnits="userSpaceOnUse"
       id="clipPath6358"><path
         d="m 0,0 4923,0 0,6978 L 0,6978 0,0"
         id="path6360"
         inkscape:connector-curvature="0" /></clipPath><clipPath
       clipPathUnits="userSpaceOnUse"
       id="clipPath8158"><path
         d="m 0,0 4923,0 0,6978 L 0,6978 0,0"
         id="path8160"
         inkscape:connector-curvature="0" /></clipPath><clipPath
       clipPathUnits="userSpaceOnUse"
       id="clipPath8170"><path
         d="m 0,0 4923,0 0,6978 L 0,6978 0,0"
         id="path8172"
         inkscape:connector-curvature="0" /></clipPath><clipPath
       clipPathUnits="userSpaceOnUse"
       id="clipPath5866-3"><path
         inkscape:connector-curvature="0"
         d="m 281,3196 3896,0 0,3234 -3896,0 0,-3234"
         id="path5868-4" /></clipPath></defs><sodipodi:namedview
     pagecolor="#ffffff"
     bordercolor="#666666"
     borderopacity="1"
     objecttolerance="10"
     gridtolerance="10"
     guidetolerance="10"
     inkscape:pageopacity="0"
     inkscape:pageshadow="2"
     inkscape:window-width="1366"
     inkscape:window-height="705"
     id="namedview5852"
     showgrid="true"
     inkscape:zoom="0.79195959"
     inkscape:cx="398.21442"
     inkscape:cy="257.65394"
     inkscape:window-x="-8"
     inkscape:window-y="-8"
     inkscape:window-maximized="1"
     inkscape:current-layer="g5858"
     inkscape:document-units="mm"
     units="mm"
     showguides="true"
     inkscape:guide-bbox="true"
     inkscape:snap-bbox="true"
     inkscape:snap-bbox-edge-midpoints="true"><inkscape:grid
       type="xygrid"
       id="grid12199"
       empspacing="5"
       visible="true"
       enabled="true"
       snapvisiblegridlinesonly="true"
       units="mm"
       spacingx="1mm"
       spacingy="1mm" /><sodipodi:guide
       orientation="1,0"
       position="425.19685,336.61417"
       id="guide12229" /><sodipodi:guide
       orientation="1,0"
       position="318.89764,-9.375"
       id="guide3357" /><sodipodi:guide
       orientation="0,1"
       position="318.89764,53.149606"
       id="guide3359" /><sodipodi:guide
       orientation="1,0"
       position="531.49606,6.6964286"
       id="guide3361" /><sodipodi:guide
       orientation="1,0"
       position="212.59843,-41.964286"
       id="guide3363" /><sodipodi:guide
       orientation="1,0"
       position="637.79528,-45.535714"
       id="guide3365" /><sodipodi:guide
       orientation="1,0"
       position="106.29921,-53.149606"
       id="guide3367" /><sodipodi:guide
       orientation="0,1"
       position="177.16535,372.04724"
       id="guide3369" /><sodipodi:guide
       orientation="0,1"
       position="265.74803,159.44882"
       id="guide3371" /><sodipodi:guide
       orientation="0,1"
       position="283.46457,265.74803"
       id="guide3373" /><sodipodi:guide
       orientation="1,0"
       position="744.09449,-98.214286"
       id="guide3396" /><sodipodi:guide
       orientation="0,1"
       position="35.433071,-63.765879"
       id="guide3398" /><sodipodi:guide
       orientation="0,1"
       position="318.89764,-173.62205"
       id="guide3421" /><sodipodi:guide
       orientation="1,0"
       position="0,-114.90485"
       id="guide3510" /><sodipodi:guide
       orientation="1,0"
       position="850.3937,-63.765879"
       id="guide3512" /><sodipodi:guide
       orientation="1,0"
       position="1346.4567,106.29921"
       id="guide4657" /><sodipodi:guide
       orientation="0,1"
       position="1293.3071,478.34646"
       id="guide4659" /><sodipodi:guide
       orientation="0,1"
       position="992.12598,584.64567"
       id="guide4661" /><sodipodi:guide
       orientation="1,0"
       position="1665.3543,318.89764"
       id="guide4690" /><sodipodi:guide
       orientation="1,0"
       position="1027.5591,357.874"
       id="guide4692" /></sodipodi:namedview><g
     id="g5858"
     inkscape:groupmode="layer"
     inkscape:label="Equipment mount"
     transform="matrix(1.25,0,0,-1.25,0,743.75)"><path
       style="fill:#441650;fill-opacity:1;stroke:none"
       d="m 155.90551,467.71653 70.86614,0 0,-467.716521 L 0,0 0,212.59842 z"
       id="rect3074"
       inkscape:connector-curvature="0"
       sodipodi:nodetypes="cccccc" /><path
       sodipodi:type="arc"
       style="fill:#d4ff2a;fill-opacity:1;stroke:none"
       id="path3077"
       sodipodi:cx="-113.38583"
       sodipodi:cy="240.60039"
       sodipodi:rx="10.629921"
       sodipodi:ry="10.629921"
       d="m -102.75591,240.60039 c 0,5.87074 -4.75918,10.62992 -10.62992,10.62992 -5.87075,0 -10.62992,-4.75918 -10.62992,-10.62992 0,-5.87075 4.75917,-10.62992 10.62992,-10.62992 5.87074,0 10.62992,4.75917 10.62992,10.62992 z"
       transform="matrix(0.8,0,0,-0.8,294.80315,640.35432)" /><path
       sodipodi:type="arc"
       style="fill:#d4ff2a;fill-opacity:1;stroke:none"
       id="path3077-4"
       sodipodi:cx="-113.38583"
       sodipodi:cy="240.60039"
       sodipodi:rx="10.629921"
       sodipodi:ry="10.629921"
       d="m -102.75591,240.60039 c 0,5.87074 -4.75918,10.62992 -10.62992,10.62992 -5.87075,0 -10.62992,-4.75918 -10.62992,-10.62992 0,-5.87075 4.75917,-10.62992 10.62992,-10.62992 5.87074,0 10.62992,4.75917 10.62992,10.62992 z"
       transform="matrix(0.8,0,0,-0.8,294.80315,555.31495)" /><path
       sodipodi:type="arc"
       style="fill:#d4ff2a;fill-opacity:1;stroke:none"
       id="path3077-8"
       sodipodi:cx="-113.38583"
       sodipodi:cy="240.60039"
       sodipodi:rx="10.629921"
       sodipodi:ry="10.629921"
       d="m -102.75591,240.60039 c 0,5.87074 -4.75918,10.62992 -10.62992,10.62992 -5.87075,0 -10.62992,-4.75918 -10.62992,-10.62992 0,-5.87075 4.75917,-10.62992 10.62992,-10.62992 5.87074,0 10.62992,4.75917 10.62992,10.62992 z"
       transform="matrix(0.8,0,0,-0.8,294.80315,470.27558)" /><path
       sodipodi:type="arc"
       style="fill:#d4ff2a;fill-opacity:1;stroke:none"
       id="path3077-82"
       sodipodi:cx="-113.38583"
       sodipodi:cy="240.60039"
       sodipodi:rx="10.629921"
       sodipodi:ry="10.629921"
       d="m -102.75591,240.60039 c 0,5.87074 -4.75918,10.62992 -10.62992,10.62992 -5.87075,0 -10.62992,-4.75918 -10.62992,-10.62992 0,-5.87075 4.75917,-10.62992 10.62992,-10.62992 5.87074,0 10.62992,4.75917 10.62992,10.62992 z"
       transform="matrix(0.8,0,0,-0.8,294.80315,385.23622)" /><path
       sodipodi:type="arc"
       style="fill:#d4ff2a;fill-opacity:1;stroke:none"
       id="path3077-4-4"
       sodipodi:cx="-113.38583"
       sodipodi:cy="240.60039"
       sodipodi:rx="10.629921"
       sodipodi:ry="10.629921"
       d="m -102.75591,240.60039 c 0,5.87074 -4.75918,10.62992 -10.62992,10.62992 -5.87075,0 -10.62992,-4.75918 -10.62992,-10.62992 0,-5.87075 4.75917,-10.62992 10.62992,-10.62992 5.87074,0 10.62992,4.75917 10.62992,10.62992 z"
       transform="matrix(0.8,0,0,-0.8,294.80315,300.19684)" /><path
       sodipodi:type="arc"
       style="fill:#d4ff2a;fill-opacity:1;stroke:none"
       id="path3077-8-5"
       sodipodi:cx="-113.38583"
       sodipodi:cy="240.60039"
       sodipodi:rx="10.629921"
       sodipodi:ry="10.629921"
       d="m -102.75591,240.60039 c 0,5.87074 -4.75918,10.62992 -10.62992,10.62992 -5.87075,0 -10.62992,-4.75918 -10.62992,-10.62992 0,-5.87075 4.75917,-10.62992 10.62992,-10.62992 5.87074,0 10.62992,4.75917 10.62992,10.62992 z"
       transform="matrix(0.8,0,0,-0.8,294.80315,215.15747)" /><path
       sodipodi:type="arc"
       style="fill:#d4ff2a;fill-opacity:1;stroke:none"
       id="path3077-82-5"
       sodipodi:cx="-113.38583"
       sodipodi:cy="240.60039"
       sodipodi:rx="10.629921"
       sodipodi:ry="10.629921"
       d="m -102.75591,240.60039 c 0,5.87074 -4.75918,10.62992 -10.62992,10.62992 -5.87075,0 -10.62992,-4.75918 -10.62992,-10.62992 0,-5.87075 4.75917,-10.62992 10.62992,-10.62992 5.87074,0 10.62992,4.75917 10.62992,10.62992 z"
       transform="matrix(0.8,0,0,-0.8,209.76379,385.23623)" /><path
       sodipodi:type="arc"
       style="fill:#d4ff2a;fill-opacity:1;stroke:none"
       id="path3077-4-4-1"
       sodipodi:cx="-113.38583"
       sodipodi:cy="240.60039"
       sodipodi:rx="10.629921"
       sodipodi:ry="10.629921"
       d="m -102.75591,240.60039 c 0,5.87074 -4.75918,10.62992 -10.62992,10.62992 -5.87075,0 -10.62992,-4.75918 -10.62992,-10.62992 0,-5.87075 4.75917,-10.62992 10.62992,-10.62992 5.87074,0 10.62992,4.75917 10.62992,10.62992 z"
       transform="matrix(0.8,0,0,-0.8,209.76379,300.19685)" /><path
       sodipodi:type="arc"
       style="fill:#d4ff2a;fill-opacity:1;stroke:none"
       id="path3077-8-5-7"
       sodipodi:cx="-113.38583"
       sodipodi:cy="240.60039"
       sodipodi:rx="10.629921"
       sodipodi:ry="10.629921"
       d="m -102.75591,240.60039 c 0,5.87074 -4.75918,10.62992 -10.62992,10.62992 -5.87075,0 -10.62992,-4.75918 -10.62992,-10.62992 0,-5.87075 4.75917,-10.62992 10.62992,-10.62992 5.87074,0 10.62992,4.75917 10.62992,10.62992 z"
       transform="matrix(0.8,0,0,-0.8,209.76379,215.15747)" /><path
       transform="scale(1,-1)"
       style="fill:#d4ff2a;fill-opacity:1;stroke:none"
       d="m 33.989354,-201.25984 c 4.725803,0 8.53033,3.80453 8.53033,8.53033 l 0,170.025947 c 0,4.725803 -3.804527,8.53033 -8.53033,8.53033 -4.725803,0 -8.53033,-3.804527 -8.53033,-8.53033 l 0,-170.025947 c 0,-4.7258 3.804527,-8.53033 8.53033,-8.53033 z"
       id="rect12284-1" /><path
       sodipodi:type="arc"
       style="fill:#d4ff2a;fill-opacity:1;stroke:none"
       id="path3077-82-5-1"
       sodipodi:cx="-113.38583"
       sodipodi:cy="240.60039"
       sodipodi:rx="10.629921"
       sodipodi:ry="10.629921"
       d="m -102.75591,240.60039 c 0,5.87074 -4.75918,10.62992 -10.62992,10.62992 -5.87075,0 -10.62992,-4.75918 -10.62992,-10.62992 0,-5.87075 4.75917,-10.62992 10.62992,-10.62992 5.87074,0 10.62992,4.75917 10.62992,10.62992 z"
       transform="matrix(0.8,0,0,-0.8,206.92915,470.27558)" /></g></svg>