<?xml version="1.0" encoding="UTF-8" standalone="no"?>
<!-- Created with Inkscape (http://www.inkscape.org/) -->

<svg
   xmlns:dc="http://purl.org/dc/elements/1.1/"
   xmlns:cc="http://creativecommons.org/ns#"
   xmlns:rdf="http://www.w3.org/1999/02/22-rdf-syntax-ns#"
   xmlns:svg="http://www.w3.org/2000/svg"
   xmlns="http://www.w3.org/2000/svg"
   xmlns:sodipodi="http://sodipodi.sourceforge.net/DTD/sodipodi-0.dtd"
   xmlns:inkscape="http://www.inkscape.org/namespaces/inkscape"
   id="svg5850"
   version="1.1"
   inkscape:version="0.48.4 r9939"
   width="1052.5"
   height="743.75"
   xml:space="preserve"
   sodipodi:docname="mount7.svg"><metadata
     id="metadata5856"><rdf:RDF><cc:Work
         rdf:about=""><dc:format>image/svg+xml</dc:format><dc:type
           rdf:resource="http://purl.org/dc/dcmitype/StillImage" /><dc:title></dc:title></cc:Work></rdf:RDF></metadata><defs
     id="defs5854"><clipPath
       clipPathUnits="userSpaceOnUse"
       id="clipPath5866"><path
         d="m 281,3196 3896,0 0,3234 -3896,0 0,-3234"
         id="path5868"
         inkscape:connector-curvature="0" /></clipPath><clipPath
       clipPathUnits="userSpaceOnUse"
       id="clipPath6118"><path
         d="m 352,2187 3754,0 0,1510 -3754,0 0,-1510"
         id="path6120"
         inkscape:connector-curvature="0" /></clipPath><clipPath
       clipPathUnits="userSpaceOnUse"
       id="clipPath6274"><path
         d="m 3691,3338 1231,0 0,2950 -1231,0 0,-2950"
         id="path6276"
         inkscape:connector-curvature="0" /></clipPath><clipPath
       clipPathUnits="userSpaceOnUse"
       id="clipPath6358"><path
         d="m 0,0 4923,0 0,6978 L 0,6978 0,0"
         id="path6360"
         inkscape:connector-curvature="0" /></clipPath><clipPath
       clipPathUnits="userSpaceOnUse"
       id="clipPath8158"><path
         d="m 0,0 4923,0 0,6978 L 0,6978 0,0"
         id="path8160"
         inkscape:connector-curvature="0" /></clipPath><clipPath
       clipPathUnits="userSpaceOnUse"
       id="clipPath8170"><path
         d="m 0,0 4923,0 0,6978 L 0,6978 0,0"
         id="path8172"
         inkscape:connector-curvature="0" /></clipPath><clipPath
       clipPathUnits="userSpaceOnUse"
       id="clipPath5866-3"><path
         inkscape:connector-curvature="0"
         d="m 281,3196 3896,0 0,3234 -3896,0 0,-3234"
         id="path5868-4" /></clipPath></defs><sodipodi:namedview
     pagecolor="#ffffff"
     bordercolor="#666666"
     borderopacity="1"
     objecttolerance="10"
     gridtolerance="10"
     guidetolerance="10"
     inkscape:pageopacity="0"
     inkscape:pageshadow="2"
     inkscape:window-width="1366"
     inkscape:window-height="705"
     id="namedview5852"
     showgrid="true"
     inkscape:zoom="1.5839192"
     inkscape:cx="387.83764"
     inkscape:cy="81.110693"
     inkscape:window-x="-8"
     inkscape:window-y="-8"
     inkscape:window-maximized="1"
     inkscape:current-layer="g5858"
     inkscape:document-units="mm"
     units="mm"
     showguides="true"
     inkscape:guide-bbox="true"
     inkscape:snap-bbox="true"
     inkscape:snap-bbox-edge-midpoints="true"><inkscape:grid
       type="xygrid"
       id="grid12199"
       empspacing="5"
       visible="true"
       enabled="true"
       snapvisiblegridlinesonly="true"
       units="mm"
       spacingx="1mm"
       spacingy="1mm" /><sodipodi:guide
       orientation="1,0"
       position="556.29921,162.99213"
       id="guide12229" /><sodipodi:guide
       orientation="1,0"
       position="662.59843,173.62205"
       id="guide3361" /><sodipodi:guide
       orientation="1,0"
       position="450,177.16535"
       id="guide3363" /><sodipodi:guide
       orientation="1,0"
       position="343.70079,170.07874"
       id="guide3367" /><sodipodi:guide
       orientation="0,1"
       position="177.16535,372.04724"
       id="guide3369" /><sodipodi:guide
       orientation="0,1"
       position="-3.5433071,155.90551"
       id="guide3371" /><sodipodi:guide
       orientation="0,1"
       position="318.89764,-173.62205"
       id="guide3421" /><sodipodi:guide
       orientation="1,0"
       position="1346.4567,106.29921"
       id="guide4657" /><sodipodi:guide
       orientation="0,1"
       position="1293.3071,478.34646"
       id="guide4659" /><sodipodi:guide
       orientation="0,1"
       position="992.12598,584.64567"
       id="guide4661" /><sodipodi:guide
       orientation="1,0"
       position="1665.3543,318.89764"
       id="guide4690" /><sodipodi:guide
       orientation="1,0"
       position="1027.5591,357.874"
       id="guide4692" /><sodipodi:guide
       orientation="0,1"
       position="-3.5433071,131.10236"
       id="guide3596" /><sodipodi:guide
       orientation="0,1"
       position="-7.0866142,24.80315"
       id="guide3598" /><sodipodi:guide
       orientation="1,0"
       position="24.80315,177.16535"
       id="guide3600" /><sodipodi:guide
       orientation="1,0"
       position="131.10236,180.70866"
       id="guide3602" /><sodipodi:guide
       orientation="1,0"
       position="237.40157,184.25197"
       id="guide3604" /><sodipodi:guide
       orientation="1,0"
       position="0,194.88189"
       id="guide3606" /><sodipodi:guide
       orientation="0,1"
       position="-10.629921,0"
       id="guide3608" /><sodipodi:guide
       orientation="1,0"
       position="687.40157,166.53543"
       id="guide3039" /></sodipodi:namedview><g
     id="g5858"
     inkscape:groupmode="layer"
     inkscape:label="Equipment mount"
     transform="matrix(1.25,0,0,-1.25,0,743.75)"><path
       style="fill:#441650;fill-opacity:1;stroke:none"
       d="m 19.842517,124.72442 510.236223,0 c 14.17323,0 19.84252,-5.6693 19.84252,-19.84252 l 0,-85.039381 C 549.92126,5.6692913 544.25197,-7.2708974e-8 530.07874,0 L 19.842517,2.6175228e-6 C 5.669288,2.6902318e-6 -3.2261719e-6,5.6692939 -3.2261719e-6,19.842522 l 2e-7,85.039378 c 0,14.17322 5.6692910261719,19.84252 19.8425200261719,19.84252 z"
       id="rect3427"
       inkscape:connector-curvature="0"
       sodipodi:nodetypes="sssssssss" /><path
       sodipodi:type="arc"
       style="fill:#d4ff2a;fill-opacity:1;stroke:none"
       id="path3077-2"
       sodipodi:cx="-113.38583"
       sodipodi:cy="240.60039"
       sodipodi:rx="10.629921"
       sodipodi:ry="10.629921"
       d="m -102.75591,240.60039 a 10.629921,10.629921 0 1 1 -21.25984,0 10.629921,10.629921 0 1 1 21.25984,0 z"
       transform="matrix(0,0.8,0.8,0,-87.598422,195.59057)" /><path
       sodipodi:type="arc"
       style="fill:#d4ff2a;fill-opacity:1;stroke:none"
       id="path3077-4-7"
       sodipodi:cx="-113.38583"
       sodipodi:cy="240.60039"
       sodipodi:rx="10.629921"
       sodipodi:ry="10.629921"
       d="m -102.75591,240.60039 a 10.629921,10.629921 0 1 1 -21.25984,0 10.629921,10.629921 0 1 1 21.25984,0 z"
       transform="matrix(0,0.8,0.8,0,-2.5590466,195.59057)" /><path
       sodipodi:type="arc"
       style="fill:#d4ff2a;fill-opacity:1;stroke:none"
       id="path3077-8-9"
       sodipodi:cx="-113.38583"
       sodipodi:cy="240.60039"
       sodipodi:rx="10.629921"
       sodipodi:ry="10.629921"
       d="m -102.75591,240.60039 a 10.629921,10.629921 0 1 1 -21.25984,0 10.629921,10.629921 0 1 1 21.25984,0 z"
       transform="matrix(0,0.8,0.8,0,82.480328,195.59057)" /><path
       sodipodi:type="arc"
       style="fill:#d4ff2a;fill-opacity:1;stroke:none"
       id="path3077-82-54"
       sodipodi:cx="-113.38583"
       sodipodi:cy="240.60039"
       sodipodi:rx="10.629921"
       sodipodi:ry="10.629921"
       d="m -102.75591,240.60039 a 10.629921,10.629921 0 1 1 -21.25984,0 10.629921,10.629921 0 1 1 21.25984,0 z"
       transform="matrix(0,0.8,0.8,0,167.51969,195.59057)" /><path
       sodipodi:type="arc"
       style="fill:#d4ff2a;fill-opacity:1;stroke:none"
       id="path3077-4-4-3"
       sodipodi:cx="-113.38583"
       sodipodi:cy="240.60039"
       sodipodi:rx="10.629921"
       sodipodi:ry="10.629921"
       d="m -102.75591,240.60039 a 10.629921,10.629921 0 1 1 -21.25984,0 10.629921,10.629921 0 1 1 21.25984,0 z"
       transform="matrix(0,0.8,0.8,0,252.55907,195.59057)" /><path
       sodipodi:type="arc"
       style="fill:#d4ff2a;fill-opacity:1;stroke:none"
       id="path3077-8-5-1"
       sodipodi:cx="-113.38583"
       sodipodi:cy="240.60039"
       sodipodi:rx="10.629921"
       sodipodi:ry="10.629921"
       d="m -102.75591,240.60039 a 10.629921,10.629921 0 1 1 -21.25984,0 10.629921,10.629921 0 1 1 21.25984,0 z"
       transform="matrix(0,0.8,0.8,0,337.59844,195.59057)" /><path
       sodipodi:type="arc"
       style="fill:#d4ff2a;fill-opacity:1;stroke:none"
       id="path3077-82-5-2"
       sodipodi:cx="-113.38583"
       sodipodi:cy="240.60039"
       sodipodi:rx="10.629921"
       sodipodi:ry="10.629921"
       d="m -102.75591,240.60039 a 10.629921,10.629921 0 1 1 -21.25984,0 10.629921,10.629921 0 1 1 21.25984,0 z"
       transform="matrix(0,0.8,0.8,0,167.51968,110.55121)" /><path
       sodipodi:type="arc"
       style="fill:#d4ff2a;fill-opacity:1;stroke:none"
       id="path3077-4-4-1-3"
       sodipodi:cx="-113.38583"
       sodipodi:cy="240.60039"
       sodipodi:rx="10.629921"
       sodipodi:ry="10.629921"
       d="m -102.75591,240.60039 a 10.629921,10.629921 0 1 1 -21.25984,0 10.629921,10.629921 0 1 1 21.25984,0 z"
       transform="matrix(0,0.8,0.8,0,252.55906,110.55121)" /><path
       sodipodi:type="arc"
       style="fill:#d4ff2a;fill-opacity:1;stroke:none"
       id="path3077-8-5-7-3"
       sodipodi:cx="-113.38583"
       sodipodi:cy="240.60039"
       sodipodi:rx="10.629921"
       sodipodi:ry="10.629921"
       d="m -102.75591,240.60039 a 10.629921,10.629921 0 1 1 -21.25984,0 10.629921,10.629921 0 1 1 21.25984,0 z"
       transform="matrix(0,0.8,0.8,0,337.59844,110.55121)" /><path
       sodipodi:type="arc"
       style="fill:#d4ff2a;fill-opacity:1;stroke:none"
       id="path3077-82-5-1-1"
       sodipodi:cx="-113.38583"
       sodipodi:cy="240.60039"
       sodipodi:rx="10.629921"
       sodipodi:ry="10.629921"
       d="m -102.75591,240.60039 a 10.629921,10.629921 0 1 1 -21.25984,0 10.629921,10.629921 0 1 1 21.25984,0 z"
       transform="matrix(0,0.8,0.8,0,82.480317,110.55119)" /><path
       sodipodi:type="arc"
       style="fill:#d4ff2a;fill-opacity:1;stroke:none"
       id="path3077-2-8"
       sodipodi:cx="-113.38583"
       sodipodi:cy="240.60039"
       sodipodi:rx="10.629921"
       sodipodi:ry="10.629921"
       d="m -102.75591,240.60039 a 10.629921,10.629921 0 1 1 -21.25984,0 10.629921,10.629921 0 1 1 21.25984,0 z"
       transform="matrix(0,0.8,0.8,0,-87.598423,110.55119)" /><path
       sodipodi:type="arc"
       style="fill:#d4ff2a;fill-opacity:1;stroke:none"
       id="path3077-4-7-7"
       sodipodi:cx="-113.38583"
       sodipodi:cy="240.60039"
       sodipodi:rx="10.629921"
       sodipodi:ry="10.629921"
       d="m -102.75591,240.60039 a 10.629921,10.629921 0 1 1 -21.25984,0 10.629921,10.629921 0 1 1 21.25984,0 z"
       transform="matrix(0,0.8,0.8,0,-2.559053,110.55119)" /><path
       sodipodi:type="arc"
       style="fill:#d4ff2a;fill-opacity:1;stroke:none"
       id="path3077-2-24"
       sodipodi:cx="-113.38583"
       sodipodi:cy="240.60039"
       sodipodi:rx="10.629921"
       sodipodi:ry="10.629921"
       d="m -102.75591,240.60039 a 10.629921,10.629921 0 1 1 -21.25984,0 10.629921,10.629921 0 1 1 21.25984,0 z"
       transform="matrix(0,0.8,0.8,0,-172.63779,195.59057)" /><path
       sodipodi:type="arc"
       style="fill:#d4ff2a;fill-opacity:1;stroke:none"
       id="path3077-2-8-8"
       sodipodi:cx="-113.38583"
       sodipodi:cy="240.60039"
       sodipodi:rx="10.629921"
       sodipodi:ry="10.629921"
       d="m -102.75591,240.60039 a 10.629921,10.629921 0 1 1 -21.25984,0 10.629921,10.629921 0 1 1 21.25984,0 z"
       transform="matrix(0,0.8,0.8,0,-172.63779,110.55119)" /></g></svg>