<?xml version="1.0" encoding="UTF-8" standalone="no"?>
<!-- Created with Inkscape (http://www.inkscape.org/) -->

<svg
   xmlns:dc="http://purl.org/dc/elements/1.1/"
   xmlns:cc="http://creativecommons.org/ns#"
   xmlns:rdf="http://www.w3.org/1999/02/22-rdf-syntax-ns#"
   xmlns:svg="http://www.w3.org/2000/svg"
   xmlns="http://www.w3.org/2000/svg"
   xmlns:sodipodi="http://sodipodi.sourceforge.net/DTD/sodipodi-0.dtd"
   xmlns:inkscape="http://www.inkscape.org/namespaces/inkscape"
   id="svg2985"
   version="1.1"
   inkscape:version="0.48.4 r9939"
   width="1488.75"
   height="1052.5"
   xml:space="preserve"
   sodipodi:docname="table.svg"><metadata
     id="metadata2991"><rdf:RDF><cc:Work
         rdf:about=""><dc:format>image/svg+xml</dc:format><dc:type
           rdf:resource="http://purl.org/dc/dcmitype/StillImage" /><dc:title /></cc:Work></rdf:RDF></metadata><defs
     id="defs2989"><clipPath
       clipPathUnits="userSpaceOnUse"
       id="clipPath3001"><path
         d="m 2293,3250 3706,0 0,4699 -3706,0 0,-4699"
         id="path3003"
         inkscape:connector-curvature="0" /></clipPath><clipPath
       clipPathUnits="userSpaceOnUse"
       id="clipPath3339"><path
         d="m 2576,2021 3140,0 0,612 -3140,0 0,-612"
         id="path3341"
         inkscape:connector-curvature="0" /></clipPath><clipPath
       clipPathUnits="userSpaceOnUse"
       id="clipPath3403"><path
         d="m 0,0 6978,0 0,9883 L 0,9883 0,0"
         id="path3405"
         inkscape:connector-curvature="0" /></clipPath><clipPath
       clipPathUnits="userSpaceOnUse"
       id="clipPath3001-6"><path
         inkscape:connector-curvature="0"
         d="m 2293,3250 3706,0 0,4699 -3706,0 0,-4699"
         id="path3003-1" /></clipPath></defs><sodipodi:namedview
     pagecolor="#ffffff"
     bordercolor="#666666"
     borderopacity="1"
     objecttolerance="10"
     gridtolerance="10"
     guidetolerance="10"
     inkscape:pageopacity="0"
     inkscape:pageshadow="2"
     inkscape:window-width="1366"
     inkscape:window-height="705"
     id="namedview2987"
     showgrid="true"
     inkscape:zoom="1.12"
     inkscape:cx="422.16865"
     inkscape:cy="253.55041"
     inkscape:window-x="-8"
     inkscape:window-y="-8"
     inkscape:window-maximized="1"
     inkscape:current-layer="g2993"
     units="mm"
     inkscape:document-units="mm"
     inkscape:snap-bbox="true"
     showguides="true"
     inkscape:guide-bbox="true"
     inkscape:snap-global="true"
     inkscape:bbox-paths="true"
     inkscape:bbox-nodes="true"
     inkscape:snap-bbox-edge-midpoints="true"
     inkscape:snap-center="true"
     inkscape:snap-object-midpoints="true"><inkscape:grid
       type="xygrid"
       id="grid10488"
       empspacing="5"
       visible="true"
       enabled="true"
       snapvisiblegridlinesonly="true"
       units="mm"
       spacingx="1mm"
       spacingy="1mm" /><sodipodi:guide
       orientation="1,0"
       position="531.49606,584.64567"
       id="guide12627" /><sodipodi:guide
       orientation="0,1"
       position="520.86614,382.67717"
       id="guide12711" /><sodipodi:guide
       orientation="0,1"
       position="574.01575,411.02362"
       id="guide12713" /><sodipodi:guide
       orientation="0,1"
       position="584.64567,354.33071"
       id="guide12715" /><sodipodi:guide
       orientation="0,1"
       position="662.59843,623.62205"
       id="guide12717" /><sodipodi:guide
       orientation="0,1"
       position="559.84252,141.73228"
       id="guide12719" /><sodipodi:guide
       orientation="1,0"
       position="318.89764,17.716535"
       id="guide12764" /><sodipodi:guide
       orientation="1,0"
       position="744.09449,17.716535"
       id="guide12766" /><sodipodi:guide
       orientation="1,0"
       position="414.79389,-44.194174"
       id="guide12768" /><sodipodi:guide
       orientation="1,0"
       position="648.66071,-88.582677"
       id="guide12772" /><sodipodi:guide
       orientation="0,1"
       position="903.54331,655.51181"
       id="guide12782" /><sodipodi:guide
       orientation="0,1"
       position="938.97638,106.29921"
       id="guide12784" /><sodipodi:guide
       orientation="1,0"
       position="24.80315,77.952756"
       id="guide3064" /><sodipodi:guide
       orientation="0,1"
       position="49.606299,120.47244"
       id="guide3066" /><sodipodi:guide
       orientation="1,0"
       position="99.212598,70.866142"
       id="guide3068" /><sodipodi:guide
       orientation="0,1"
       position="60.23622,21.259843"
       id="guide3088" /><sodipodi:guide
       orientation="0,1"
       position="74.409449,644.88189"
       id="guide3104" /><sodipodi:guide
       orientation="0,1"
       position="74.409449,744.09449"
       id="guide3106" /><sodipodi:guide
       orientation="1,0"
       position="963.77953,719.29134"
       id="guide3136" /><sodipodi:guide
       orientation="1,0"
       position="1038.189,719.29134"
       id="guide3138" /><sodipodi:guide
       orientation="0,1"
       position="549.2126,428.74016"
       id="guide3196" /><sodipodi:guide
       orientation="0,1"
       position="545.66929,336.61417"
       id="guide3205" /></sodipodi:namedview><g
     id="g2993"
     inkscape:groupmode="layer"
     inkscape:label="Table"
     transform="matrix(0,-1.25,-1.25,0,1488.75,1052.5)"><path
       transform="matrix(0,-1,-1,0,0,0)"
       style="fill:#deaa87;fill-opacity:1;stroke:none"
       d="m -1176.8268,-612.28345 822.04724,0 c 7.85197,0 14.17324,6.32127 14.17324,14.17324 l 0,583.936972 C -340.60632,-6.3212641 -346.92759,0 -354.77956,0 L -1176.8268,0 C -1184.6787,0 -1191,-6.3212641 -1191,-14.173238 l 0,-583.936972 c 0,-7.85197 6.3213,-14.17324 14.1732,-14.17324 z"
       id="rect12459" /><path
       style="fill:#0b1728;fill-opacity:1;stroke:none"
       d="m 391.1811,672.21867 c -4.7258,0 -8.53033,3.80453 -8.53033,8.53033 l 0,170.1083 c 0,4.7258 3.80453,8.53033 8.53033,8.53033 4.72581,0 8.53033,-3.80453 8.53033,-8.53033 l 0,-170.1083 c 0,-4.7258 -3.80452,-8.53033 -8.53033,-8.53033 z"
       id="rect12284-0-7-5"
       inkscape:connector-curvature="0" /><path
       style="fill:#0b1728;fill-opacity:1;stroke:none"
       d="m 476.22047,672.21867 c -4.7258,0 -8.53033,3.80453 -8.53033,8.53033 l 0,170.1083 c 0,4.7258 3.80453,8.53033 8.53033,8.53033 4.7258,0 8.53033,-3.80453 8.53033,-8.53033 l 0,-170.1083 c 0,-4.7258 -3.80453,-8.53033 -8.53033,-8.53033 z"
       id="rect12284-0-7-3-3"
       inkscape:connector-curvature="0" /><path
       transform="matrix(0,-1,-1,0,0,0)"
       style="fill:#0b1728;fill-opacity:1;stroke:none"
       d="m -935.90827,-498.89761 c 4.7258,0 8.53033,3.80452 8.53033,8.53033 l 0,153.01807 c 0,4.72581 -3.80453,8.53033 -8.53033,8.53033 -4.7258,0 -8.53033,-3.80452 -8.53033,-8.53033 l 0,-153.01807 c 0,-4.72581 3.80453,-8.53033 8.53033,-8.53033 z"
       id="rect12284-0-7-5-6" /><path
       transform="matrix(0,-1,-1,0,0,0)"
       style="fill:#0b1728;fill-opacity:1;stroke:none"
       d="m -1020.9477,-524.40942 c 4.7258,0 8.5303,3.80452 8.5303,8.53032 l 0,178.52992 c 0,4.72581 -3.8045,8.53033 -8.5303,8.53033 -4.7258,0 -8.5303,-3.80452 -8.5303,-8.53033 l 0,-178.52992 c 0,-4.7258 3.8045,-8.53032 8.5303,-8.53032 z"
       id="rect12284-0-7-3-3-1" /><path
       transform="matrix(0,1,1,0,0,0)"
       style="fill:#0b1728;fill-opacity:1;stroke:none"
       d="m 592.81066,328.81891 c 4.72581,0 8.53033,3.80453 8.53033,8.53033 l 0,153.01808 c 0,4.7258 -3.80452,8.53032 -8.53033,8.53032 -4.7258,0 -8.53033,-3.80452 -8.53033,-8.53032 l 0,-153.01808 c 0,-4.7258 3.80453,-8.53033 8.53033,-8.53033 z"
       id="rect12284-0-7-5-7" /><path
       transform="matrix(0,1,1,0,0,0)"
       style="fill:#0b1728;fill-opacity:1;stroke:none"
       d="m 507.7713,328.81891 c 4.7258,0 8.53033,3.80453 8.53033,8.53033 l 0,178.52989 c 0,4.7258 -3.80453,8.53032 -8.53033,8.53032 -4.72581,0 -8.53033,-3.80452 -8.53033,-8.53032 l 0,-178.52989 c 0,-4.7258 3.80452,-8.53033 8.53033,-8.53033 z"
       id="rect12284-0-7-3-3-3" /><path
       style="fill:#0b1728;fill-opacity:1;stroke:none"
       d="m 136.0366,672.21867 c -4.7258,0 -8.53032,3.80453 -8.53032,8.53033 l 0,170.1083 c 0,4.7258 3.80452,8.53033 8.53032,8.53033 4.72581,0 8.53033,-3.80453 8.53033,-8.53033 l 0,-170.1083 c 0,-4.7258 -3.80452,-8.53033 -8.53033,-8.53033 z"
       id="rect12284-0-7-5-8"
       inkscape:connector-curvature="0" /><path
       style="fill:#0b1728;fill-opacity:1;stroke:none"
       d="m 221.07597,672.21867 c -4.7258,0 -8.53033,3.80453 -8.53033,8.53033 l 0,170.1083 c 0,4.7258 3.80453,8.53033 8.53033,8.53033 4.72581,0 8.53033,-3.80453 8.53033,-8.53033 l 0,-170.1083 c 0,-4.7258 -3.80452,-8.53033 -8.53033,-8.53033 z"
       id="rect12284-0-7-3-3-7"
       inkscape:connector-curvature="0" /><path
       transform="matrix(0,-1,-1,0,0,0)"
       style="fill:#0b1728;fill-opacity:1;stroke:none"
       d="m -935.90827,-283.46457 c 4.7258,0 8.53033,3.80453 8.53033,8.53033 l 0,153.01808 c 0,4.7258 -3.80453,8.53033 -8.53033,8.53033 -4.7258,0 -8.53033,-3.80453 -8.53033,-8.53033 l 0,-153.01808 c 0,-4.7258 3.80453,-8.53033 8.53033,-8.53033 z"
       id="rect12284-0-7-5-6-3" /><path
       transform="matrix(0,-1,-1,0,0,0)"
       style="fill:#0b1728;fill-opacity:1;stroke:none"
       d="m -1020.9477,-283.46457 c 4.7258,0 8.5303,3.80453 8.5303,8.53033 l 0,181.364544 c 0,4.725802 -3.8045,8.530328 -8.5303,8.530328 -4.7258,0 -8.5303,-3.804526 -8.5303,-8.530328 l 0,-181.364544 c 0,-4.7258 3.8045,-8.53033 8.5303,-8.53033 z"
       id="rect12284-0-7-3-3-1-9" /><path
       transform="matrix(0,-1,-1,0,0,0)"
       style="fill:#0b1728;fill-opacity:1;stroke:none"
       d="m -510.65864,-283.46457 c 4.72581,0 8.53033,3.80453 8.53033,8.53033 l 0,181.364544 c 0,4.725802 -3.80452,8.530328 -8.53033,8.530328 -4.7258,0 -8.53032,-3.804526 -8.53032,-8.530328 l 0,-181.364544 c 0,-4.7258 3.80452,-8.53033 8.53032,-8.53033 z"
       id="rect12284-0-7-5-6-0" /><path
       transform="matrix(0,-1,-1,0,0,0)"
       style="fill:#0b1728;fill-opacity:1;stroke:none"
       d="m -595.698,-283.46457 c 4.7258,0 8.53033,3.80453 8.53033,8.53033 l 0,153.01808 c 0,4.7258 -3.80453,8.53033 -8.53033,8.53033 -4.72581,0 -8.53033,-3.80453 -8.53033,-8.53033 l 0,-153.01808 c 0,-4.7258 3.80452,-8.53033 8.53033,-8.53033 z"
       id="rect12284-0-7-3-3-1-2" /><path
       sodipodi:type="arc"
       style="fill:#214478;fill-opacity:1;stroke:none"
       id="path3163-4-8-8-12"
       sodipodi:cx="168.30708"
       sodipodi:cy="-5.6594486"
       sodipodi:rx="8.8582678"
       sodipodi:ry="8.8582678"
       d="m 177.16535,-5.6594486 c 0,4.89228618 -3.96598,8.8582678 -8.85827,8.8582678 -4.89228,0 -8.85826,-3.96598162 -8.85826,-8.8582678 0,-4.8922864 3.96598,-8.8582674 8.85826,-8.8582674 4.89229,0 8.85827,3.965981 8.85827,8.8582674 z"
       transform="matrix(0,-0.8,-0.8,0,91.850393,1305.8031)" /><path
       sodipodi:type="arc"
       style="fill:#214478;fill-opacity:1;stroke:none"
       id="path3163-4-8-8-12-1"
       sodipodi:cx="168.30708"
       sodipodi:cy="-5.6594486"
       sodipodi:rx="8.8582678"
       sodipodi:ry="8.8582678"
       d="m 177.16535,-5.6594486 c 0,4.89228618 -3.96598,8.8582678 -8.85827,8.8582678 -4.89228,0 -8.85826,-3.96598162 -8.85826,-8.8582678 0,-4.8922864 3.96598,-8.8582674 8.85826,-8.8582674 4.89229,0 8.85827,3.965981 8.85827,8.8582674 z"
       transform="matrix(0,-0.8,-0.8,0,91.850395,1246.2755)" /><path
       sodipodi:type="arc"
       style="fill:#214478;fill-opacity:1;stroke:none"
       id="path3163-4-8-8-12-7"
       sodipodi:cx="168.30708"
       sodipodi:cy="-5.6594486"
       sodipodi:rx="8.8582678"
       sodipodi:ry="8.8582678"
       d="m 177.16535,-5.6594486 c 0,4.89228618 -3.96598,8.8582678 -8.85827,8.8582678 -4.89228,0 -8.85826,-3.96598162 -8.85826,-8.8582678 0,-4.8922864 3.96598,-8.8582674 8.85826,-8.8582674 4.89229,0 8.85827,3.965981 8.85827,8.8582674 z"
       transform="matrix(0,-0.8,-0.8,0,12.480316,1305.8031)" /><path
       sodipodi:type="arc"
       style="fill:#214478;fill-opacity:1;stroke:none"
       id="path3163-4-8-8-12-4"
       sodipodi:cx="168.30708"
       sodipodi:cy="-5.6594486"
       sodipodi:rx="8.8582678"
       sodipodi:ry="8.8582678"
       d="m 177.16535,-5.6594486 c 0,4.89228618 -3.96598,8.8582678 -8.85827,8.8582678 -4.89228,0 -8.85826,-3.96598162 -8.85826,-8.8582678 0,-4.8922864 3.96598,-8.8582674 8.85826,-8.8582674 4.89229,0 8.85827,3.965981 8.85827,8.8582674 z"
       transform="matrix(0,-0.8,-0.8,0,12.480316,1246.2755)" /><path
       sodipodi:type="arc"
       style="fill:#214478;fill-opacity:1;stroke:none"
       id="path3163-4-8-8-12-0"
       sodipodi:cx="168.30708"
       sodipodi:cy="-5.6594486"
       sodipodi:rx="8.8582678"
       sodipodi:ry="8.8582678"
       d="m 177.16535,-5.6594486 c 0,4.89228618 -3.96598,8.8582678 -8.85827,8.8582678 -4.89228,0 -8.85826,-3.96598162 -8.85826,-8.8582678 0,-4.8922864 3.96598,-8.8582674 8.85826,-8.8582674 4.89229,0 8.85827,3.965981 8.85827,8.8582674 z"
       transform="matrix(0,-0.8,-0.8,0,590.74803,1305.8031)" /><path
       sodipodi:type="arc"
       style="fill:#214478;fill-opacity:1;stroke:none"
       id="path3163-4-8-8-12-9"
       sodipodi:cx="168.30708"
       sodipodi:cy="-5.6594486"
       sodipodi:rx="8.8582678"
       sodipodi:ry="8.8582678"
       d="m 177.16535,-5.6594486 c 0,4.89228618 -3.96598,8.8582678 -8.85827,8.8582678 -4.89228,0 -8.85826,-3.96598162 -8.85826,-8.8582678 0,-4.8922864 3.96598,-8.8582674 8.85826,-8.8582674 4.89229,0 8.85827,3.965981 8.85827,8.8582674 z"
       transform="matrix(0,-0.8,-0.8,0,590.74803,1246.2755)" /><path
       sodipodi:type="arc"
       style="fill:#214478;fill-opacity:1;stroke:none"
       id="path3163-4-8-8-12-48"
       sodipodi:cx="168.30708"
       sodipodi:cy="-5.6594486"
       sodipodi:rx="8.8582678"
       sodipodi:ry="8.8582678"
       d="m 177.16535,-5.6594486 c 0,4.89228618 -3.96598,8.8582678 -8.85827,8.8582678 -4.89228,0 -8.85826,-3.96598162 -8.85826,-8.8582678 0,-4.8922864 3.96598,-8.8582674 8.85826,-8.8582674 4.89229,0 8.85827,3.965981 8.85827,8.8582674 z"
       transform="matrix(0,-0.8,-0.8,0,511.37795,1246.2755)" /><path
       sodipodi:type="arc"
       style="fill:#214478;fill-opacity:1;stroke:none"
       id="path3163-4-8-8-12-8"
       sodipodi:cx="168.30708"
       sodipodi:cy="-5.6594486"
       sodipodi:rx="8.8582678"
       sodipodi:ry="8.8582678"
       d="m 177.16535,-5.6594486 c 0,4.89228618 -3.96598,8.8582678 -8.85827,8.8582678 -4.89228,0 -8.85826,-3.96598162 -8.85826,-8.8582678 0,-4.8922864 3.96598,-8.8582674 8.85826,-8.8582674 4.89229,0 8.85827,3.965981 8.85827,8.8582674 z"
       transform="matrix(0,-0.8,-0.8,0,511.37795,1305.8031)" /><path
       sodipodi:type="arc"
       style="fill:#214478;fill-opacity:1;stroke:none"
       id="path3163-4-8-8-12-2"
       sodipodi:cx="168.30708"
       sodipodi:cy="-5.6594486"
       sodipodi:rx="8.8582678"
       sodipodi:ry="8.8582678"
       d="m 177.16535,-5.6594486 c 0,4.89228618 -3.96598,8.8582678 -8.85827,8.8582678 -4.89228,0 -8.85826,-3.96598162 -8.85826,-8.8582678 0,-4.8922864 3.96598,-8.8582674 8.85826,-8.8582674 4.89229,0 8.85827,3.965981 8.85827,8.8582674 z"
       transform="matrix(0,-0.8,-0.8,0,12.480316,554.622)" /><path
       sodipodi:type="arc"
       style="fill:#214478;fill-opacity:1;stroke:none"
       id="path3163-4-8-8-12-45"
       sodipodi:cx="168.30708"
       sodipodi:cy="-5.6594486"
       sodipodi:rx="8.8582678"
       sodipodi:ry="8.8582678"
       d="m 177.16535,-5.6594486 c 0,4.89228618 -3.96598,8.8582678 -8.85827,8.8582678 -4.89228,0 -8.85826,-3.96598162 -8.85826,-8.8582678 0,-4.8922864 3.96598,-8.8582674 8.85826,-8.8582674 4.89229,0 8.85827,3.965981 8.85827,8.8582674 z"
       transform="matrix(0,-0.8,-0.8,0,12.480316,495.09444)" /><path
       sodipodi:type="arc"
       style="fill:#214478;fill-opacity:1;stroke:none"
       id="path3163-4-8-8-12-5"
       sodipodi:cx="168.30708"
       sodipodi:cy="-5.6594486"
       sodipodi:rx="8.8582678"
       sodipodi:ry="8.8582678"
       d="m 177.16535,-5.6594486 c 0,4.89228618 -3.96598,8.8582678 -8.85827,8.8582678 -4.89228,0 -8.85826,-3.96598162 -8.85826,-8.8582678 0,-4.8922864 3.96598,-8.8582674 8.85826,-8.8582674 4.89229,0 8.85827,3.965981 8.85827,8.8582674 z"
       transform="matrix(0,-0.8,-0.8,0,91.850395,495.09444)" /><path
       sodipodi:type="arc"
       style="fill:#214478;fill-opacity:1;stroke:none"
       id="path3163-4-8-8-12-17"
       sodipodi:cx="168.30708"
       sodipodi:cy="-5.6594486"
       sodipodi:rx="8.8582678"
       sodipodi:ry="8.8582678"
       d="m 177.16535,-5.6594486 c 0,4.89228618 -3.96598,8.8582678 -8.85827,8.8582678 -4.89228,0 -8.85826,-3.96598162 -8.85826,-8.8582678 0,-4.8922864 3.96598,-8.8582674 8.85826,-8.8582674 4.89229,0 8.85827,3.965981 8.85827,8.8582674 z"
       transform="matrix(0,-0.8,-0.8,0,91.850395,554.622)" /><path
       sodipodi:type="arc"
       style="fill:#214478;fill-opacity:1;stroke:none"
       id="path3163-4-8-8-12-11"
       sodipodi:cx="168.30708"
       sodipodi:cy="-5.6594486"
       sodipodi:rx="8.8582678"
       sodipodi:ry="8.8582678"
       d="m 177.16535,-5.6594486 c 0,4.89228618 -3.96598,8.8582678 -8.85827,8.8582678 -4.89228,0 -8.85826,-3.96598162 -8.85826,-8.8582678 0,-4.8922864 3.96598,-8.8582674 8.85826,-8.8582674 4.89229,0 8.85827,3.965981 8.85827,8.8582674 z"
       transform="matrix(0,-0.8,-0.8,0,511.37795,554.622)" /><path
       sodipodi:type="arc"
       style="fill:#214478;fill-opacity:1;stroke:none"
       id="path3163-4-8-8-12-52"
       sodipodi:cx="168.30708"
       sodipodi:cy="-5.6594486"
       sodipodi:rx="8.8582678"
       sodipodi:ry="8.8582678"
       d="m 177.16535,-5.6594486 c 0,4.89228618 -3.96598,8.8582678 -8.85827,8.8582678 -4.89228,0 -8.85826,-3.96598162 -8.85826,-8.8582678 0,-4.8922864 3.96598,-8.8582674 8.85826,-8.8582674 4.89229,0 8.85827,3.965981 8.85827,8.8582674 z"
       transform="matrix(0,-0.8,-0.8,0,511.37795,495.09444)" /><path
       sodipodi:type="arc"
       style="fill:#214478;fill-opacity:1;stroke:none"
       id="path3163-4-8-8-12-76"
       sodipodi:cx="168.30708"
       sodipodi:cy="-5.6594486"
       sodipodi:rx="8.8582678"
       sodipodi:ry="8.8582678"
       d="m 177.16535,-5.6594486 c 0,4.89228618 -3.96598,8.8582678 -8.85827,8.8582678 -4.89228,0 -8.85826,-3.96598162 -8.85826,-8.8582678 0,-4.8922864 3.96598,-8.8582674 8.85826,-8.8582674 4.89229,0 8.85827,3.965981 8.85827,8.8582674 z"
       transform="matrix(0,-0.8,-0.8,0,590.74803,495.09444)" /><path
       sodipodi:type="arc"
       style="fill:#214478;fill-opacity:1;stroke:none"
       id="path3163-4-8-8-12-14"
       sodipodi:cx="168.30708"
       sodipodi:cy="-5.6594486"
       sodipodi:rx="8.8582678"
       sodipodi:ry="8.8582678"
       d="m 177.16535,-5.6594486 c 0,4.89228618 -3.96598,8.8582678 -8.85827,8.8582678 -4.89228,0 -8.85826,-3.96598162 -8.85826,-8.8582678 0,-4.8922864 3.96598,-8.8582674 8.85826,-8.8582674 4.89229,0 8.85827,3.965981 8.85827,8.8582674 z"
       transform="matrix(0,-0.8,-0.8,0,590.74803,554.622)" /><path
       sodipodi:type="arc"
       style="fill:#214478;fill-opacity:1;stroke:none"
       id="path3163-4-8-8-12-23"
       sodipodi:cx="168.30708"
       sodipodi:cy="-5.6594486"
       sodipodi:rx="8.8582678"
       sodipodi:ry="8.8582678"
       d="m 177.16535,-5.6594486 c 0,4.89228618 -3.96598,8.8582678 -8.85827,8.8582678 -4.89228,0 -8.85826,-3.96598162 -8.85826,-8.8582678 0,-4.8922864 3.96598,-8.8582674 8.85826,-8.8582674 4.89229,0 8.85827,3.965981 8.85827,8.8582674 z"
       transform="matrix(0,-0.8,-0.8,0,338.46457,900.44877)" /><path
       sodipodi:type="arc"
       style="fill:#214478;fill-opacity:1;stroke:none"
       id="path3163-4-8-8-12-22"
       sodipodi:cx="168.30708"
       sodipodi:cy="-5.6594486"
       sodipodi:rx="8.8582678"
       sodipodi:ry="8.8582678"
       d="m 177.16535,-5.6594486 c 0,4.89228618 -3.96598,8.8582678 -8.85827,8.8582678 -4.89228,0 -8.85826,-3.96598162 -8.85826,-8.8582678 0,-4.8922864 3.96598,-8.8582674 8.85826,-8.8582674 4.89229,0 8.85827,3.965981 8.85827,8.8582674 z"
       transform="matrix(0,-0.8,-0.8,0,264.76378,900.44877)" /><path
       style="fill:#006680;fill-opacity:1;stroke:none"
       d="m 569.76378,1049.2589 0,-566.9291 c 0,-56.69291 -56.07336,186.06258 -56.69418,283.46457 -0.62476,98.02224 56.69418,340.15743 56.69418,283.46453 z"
       id="path3214"
       inkscape:connector-curvature="0"
       sodipodi:nodetypes="ccsc" /><path
       style="fill:#006680;fill-opacity:1;stroke:none"
       d="m 42.513348,1049.259 0,-566.92922 c 0,-56.69291 56.079633,186.06259 56.700516,283.46457 C 99.8387,863.81659 42.513348,1105.9519 42.513348,1049.259 z"
       id="path3214-1"
       inkscape:connector-curvature="0"
       sodipodi:nodetypes="ccsc" /><path
       style="fill:#006680;stroke:none"
       d="m 484.72441,383.12598 c 14.17323,0 14.17323,7.28914 14.17323,19.4376 0,0 -123.62438,65.60177 -192.7559,65.60177 -69.13153,0 -192.75592,-65.60177 -192.75592,-65.60177 0,-12.14846 0,-19.4376 14.17324,-19.4376 z"
       id="path4002"
       inkscape:connector-curvature="0"
       sodipodi:nodetypes="ccsccc" /><path
       style="fill:#006680;stroke:none"
       d="m 484.72442,1148.4804 c 14.17323,0 14.17323,-7.2892 14.17323,-19.4377 0,0 -123.62438,-65.6018 -192.7559,-65.6018 -69.13153,0 -192.75592,65.6018 -192.75592,65.6018 0,12.1485 0,19.4377 14.17324,19.4377 z"
       id="path4002-6"
       inkscape:connector-curvature="0"
       sodipodi:nodetypes="ccsccc" /><path
       sodipodi:type="arc"
       style="fill:#0b1728;fill-opacity:1;stroke:none"
       id="path3077-2"
       sodipodi:cx="-113.38583"
       sodipodi:cy="240.60039"
       sodipodi:rx="10.629921"
       sodipodi:ry="10.629921"
       d="m -102.75591,240.60039 a 10.629921,10.629921 0 1 1 -21.25984,0 10.629921,10.629921 0 1 1 21.25984,0 z"
       transform="matrix(0.8,0,0,-0.8,685.98426,1213.4016)" /><path
       sodipodi:type="arc"
       style="fill:#0b1728;fill-opacity:1;stroke:none"
       id="path3077-4-7"
       sodipodi:cx="-113.38583"
       sodipodi:cy="240.60039"
       sodipodi:rx="10.629921"
       sodipodi:ry="10.629921"
       d="m -102.75591,240.60039 a 10.629921,10.629921 0 1 1 -21.25984,0 10.629921,10.629921 0 1 1 21.25984,0 z"
       transform="matrix(0.8,0,0,-0.8,685.98426,1128.3622)" /><path
       sodipodi:type="arc"
       style="fill:#0b1728;fill-opacity:1;stroke:none"
       id="path3077-8-9"
       sodipodi:cx="-113.38583"
       sodipodi:cy="240.60039"
       sodipodi:rx="10.629921"
       sodipodi:ry="10.629921"
       d="m -102.75591,240.60039 a 10.629921,10.629921 0 1 1 -21.25984,0 10.629921,10.629921 0 1 1 21.25984,0 z"
       transform="matrix(0.8,0,0,-0.8,685.98426,1043.3229)" /><path
       sodipodi:type="arc"
       style="fill:#0b1728;fill-opacity:1;stroke:none"
       id="path3077-82-54"
       sodipodi:cx="-113.38583"
       sodipodi:cy="240.60039"
       sodipodi:rx="10.629921"
       sodipodi:ry="10.629921"
       d="m -102.75591,240.60039 a 10.629921,10.629921 0 1 1 -21.25984,0 10.629921,10.629921 0 1 1 21.25984,0 z"
       transform="matrix(0.8,0,0,-0.8,685.98426,958.28346)" /><path
       sodipodi:type="arc"
       style="fill:#0b1728;fill-opacity:1;stroke:none"
       id="path3077-4-4-3"
       sodipodi:cx="-113.38583"
       sodipodi:cy="240.60039"
       sodipodi:rx="10.629921"
       sodipodi:ry="10.629921"
       d="m -102.75591,240.60039 a 10.629921,10.629921 0 1 1 -21.25984,0 10.629921,10.629921 0 1 1 21.25984,0 z"
       transform="matrix(0.8,0,0,-0.8,685.98426,873.24408)" /><path
       sodipodi:type="arc"
       style="fill:#0b1728;fill-opacity:1;stroke:none"
       id="path3077-8-5-1"
       sodipodi:cx="-113.38583"
       sodipodi:cy="240.60039"
       sodipodi:rx="10.629921"
       sodipodi:ry="10.629921"
       d="m -102.75591,240.60039 a 10.629921,10.629921 0 1 1 -21.25984,0 10.629921,10.629921 0 1 1 21.25984,0 z"
       transform="matrix(0.8,0,0,-0.8,685.98426,788.20471)" /><path
       sodipodi:type="arc"
       style="fill:#0b1728;fill-opacity:1;stroke:none"
       id="path3077-8-5-1-1"
       sodipodi:cx="-113.38583"
       sodipodi:cy="240.60039"
       sodipodi:rx="10.629921"
       sodipodi:ry="10.629921"
       d="m -102.75591,240.60039 a 10.629921,10.629921 0 1 1 -21.25984,0 10.629921,10.629921 0 1 1 21.25984,0 z"
       transform="matrix(0.8,0,0,-0.8,685.98426,703.16534)" /><path
       sodipodi:type="arc"
       style="fill:#0b1728;fill-opacity:1;stroke:none"
       id="path3077-2-1"
       sodipodi:cx="-113.38583"
       sodipodi:cy="240.60039"
       sodipodi:rx="10.629921"
       sodipodi:ry="10.629921"
       d="m -102.75591,240.60039 a 10.629921,10.629921 0 1 1 -21.25984,0 10.629921,10.629921 0 1 1 21.25984,0 z"
       transform="matrix(0.8,0,0,-0.8,107.71654,1213.4017)" /><path
       sodipodi:type="arc"
       style="fill:#0b1728;fill-opacity:1;stroke:none"
       id="path3077-4-7-7"
       sodipodi:cx="-113.38583"
       sodipodi:cy="240.60039"
       sodipodi:rx="10.629921"
       sodipodi:ry="10.629921"
       d="m -102.75591,240.60039 a 10.629921,10.629921 0 1 1 -21.25984,0 10.629921,10.629921 0 1 1 21.25984,0 z"
       transform="matrix(0.8,0,0,-0.8,107.71654,1128.3623)" /><path
       sodipodi:type="arc"
       style="fill:#0b1728;fill-opacity:1;stroke:none"
       id="path3077-8-9-4"
       sodipodi:cx="-113.38583"
       sodipodi:cy="240.60039"
       sodipodi:rx="10.629921"
       sodipodi:ry="10.629921"
       d="m -102.75591,240.60039 a 10.629921,10.629921 0 1 1 -21.25984,0 10.629921,10.629921 0 1 1 21.25984,0 z"
       transform="matrix(0.8,0,0,-0.8,107.71654,1043.323)" /><path
       sodipodi:type="arc"
       style="fill:#0b1728;fill-opacity:1;stroke:none"
       id="path3077-82-54-0"
       sodipodi:cx="-113.38583"
       sodipodi:cy="240.60039"
       sodipodi:rx="10.629921"
       sodipodi:ry="10.629921"
       d="m -102.75591,240.60039 a 10.629921,10.629921 0 1 1 -21.25984,0 10.629921,10.629921 0 1 1 21.25984,0 z"
       transform="matrix(0.8,0,0,-0.8,107.71654,958.28346)" /><path
       sodipodi:type="arc"
       style="fill:#0b1728;fill-opacity:1;stroke:none"
       id="path3077-4-4-3-9"
       sodipodi:cx="-113.38583"
       sodipodi:cy="240.60039"
       sodipodi:rx="10.629921"
       sodipodi:ry="10.629921"
       d="m -102.75591,240.60039 a 10.629921,10.629921 0 1 1 -21.25984,0 10.629921,10.629921 0 1 1 21.25984,0 z"
       transform="matrix(0.8,0,0,-0.8,107.71654,873.24416)" /><path
       sodipodi:type="arc"
       style="fill:#0b1728;fill-opacity:1;stroke:none"
       id="path3077-8-5-1-4"
       sodipodi:cx="-113.38583"
       sodipodi:cy="240.60039"
       sodipodi:rx="10.629921"
       sodipodi:ry="10.629921"
       d="m -102.75591,240.60039 a 10.629921,10.629921 0 1 1 -21.25984,0 10.629921,10.629921 0 1 1 21.25984,0 z"
       transform="matrix(0.8,0,0,-0.8,107.71654,788.20475)" /><path
       sodipodi:type="arc"
       style="fill:#0b1728;fill-opacity:1;stroke:none"
       id="path3077-8-5-1-1-8"
       sodipodi:cx="-113.38583"
       sodipodi:cy="240.60039"
       sodipodi:rx="10.629921"
       sodipodi:ry="10.629921"
       d="m -102.75591,240.60039 a 10.629921,10.629921 0 1 1 -21.25984,0 10.629921,10.629921 0 1 1 21.25984,0 z"
       transform="matrix(0.8,0,0,-0.8,107.71654,703.16538)" /><path
       sodipodi:type="arc"
       style="fill:#0b1728;fill-opacity:1;stroke:none"
       id="path3077-4-7-2"
       sodipodi:cx="-113.38583"
       sodipodi:cy="240.60039"
       sodipodi:rx="10.629921"
       sodipodi:ry="10.629921"
       d="m -102.75591,240.60039 a 10.629921,10.629921 0 1 1 -21.25984,0 10.629921,10.629921 0 1 1 21.25984,0 z"
       transform="matrix(0,-0.8,-0.8,0,668.70085,1080.4488)" /><path
       sodipodi:type="arc"
       style="fill:#0b1728;fill-opacity:1;stroke:none"
       id="path3077-8-9-45"
       sodipodi:cx="-113.38583"
       sodipodi:cy="240.60039"
       sodipodi:rx="10.629921"
       sodipodi:ry="10.629921"
       d="m -102.75591,240.60039 a 10.629921,10.629921 0 1 1 -21.25984,0 10.629921,10.629921 0 1 1 21.25984,0 z"
       transform="matrix(0,-0.8,-0.8,0,583.66155,1080.4488)" /><path
       sodipodi:type="arc"
       style="fill:#0b1728;fill-opacity:1;stroke:none"
       id="path3077-82-54-5"
       sodipodi:cx="-113.38583"
       sodipodi:cy="240.60039"
       sodipodi:rx="10.629921"
       sodipodi:ry="10.629921"
       d="m -102.75591,240.60039 a 10.629921,10.629921 0 1 1 -21.25984,0 10.629921,10.629921 0 1 1 21.25984,0 z"
       transform="matrix(0,-0.8,-0.8,0,498.62205,1080.4488)" /><path
       sodipodi:type="arc"
       style="fill:#0b1728;fill-opacity:1;stroke:none"
       id="path3077-4-4-3-1"
       sodipodi:cx="-113.38583"
       sodipodi:cy="240.60039"
       sodipodi:rx="10.629921"
       sodipodi:ry="10.629921"
       d="m -102.75591,240.60039 a 10.629921,10.629921 0 1 1 -21.25984,0 10.629921,10.629921 0 1 1 21.25984,0 z"
       transform="matrix(0,-0.8,-0.8,0,413.58275,1080.4488)" /><path
       sodipodi:type="arc"
       style="fill:#0b1728;fill-opacity:1;stroke:none"
       id="path3077-8-5-1-7"
       sodipodi:cx="-113.38583"
       sodipodi:cy="240.60039"
       sodipodi:rx="10.629921"
       sodipodi:ry="10.629921"
       d="m -102.75591,240.60039 a 10.629921,10.629921 0 1 1 -21.25984,0 10.629921,10.629921 0 1 1 21.25984,0 z"
       transform="matrix(0,-0.8,-0.8,0,328.54335,1080.4488)" /><path
       sodipodi:type="arc"
       style="fill:#0b1728;fill-opacity:1;stroke:none"
       id="path3077-4-7-2-1"
       sodipodi:cx="-113.38583"
       sodipodi:cy="240.60039"
       sodipodi:rx="10.629921"
       sodipodi:ry="10.629921"
       d="m -102.75591,240.60039 a 10.629921,10.629921 0 1 1 -21.25984,0 10.629921,10.629921 0 1 1 21.25984,0 z"
       transform="matrix(0,-0.8,-0.8,0,668.70088,269.74013)" /><path
       sodipodi:type="arc"
       style="fill:#0b1728;fill-opacity:1;stroke:none"
       id="path3077-8-9-45-5"
       sodipodi:cx="-113.38583"
       sodipodi:cy="240.60039"
       sodipodi:rx="10.629921"
       sodipodi:ry="10.629921"
       d="m -102.75591,240.60039 a 10.629921,10.629921 0 1 1 -21.25984,0 10.629921,10.629921 0 1 1 21.25984,0 z"
       transform="matrix(0,-0.8,-0.8,0,583.66156,269.74013)" /><path
       sodipodi:type="arc"
       style="fill:#0b1728;fill-opacity:1;stroke:none"
       id="path3077-82-54-5-2"
       sodipodi:cx="-113.38583"
       sodipodi:cy="240.60039"
       sodipodi:rx="10.629921"
       sodipodi:ry="10.629921"
       d="m -102.75591,240.60039 a 10.629921,10.629921 0 1 1 -21.25984,0 10.629921,10.629921 0 1 1 21.25984,0 z"
       transform="matrix(0,-0.8,-0.8,0,498.62205,269.74013)" /><path
       sodipodi:type="arc"
       style="fill:#0b1728;fill-opacity:1;stroke:none"
       id="path3077-4-4-3-1-7"
       sodipodi:cx="-113.38583"
       sodipodi:cy="240.60039"
       sodipodi:rx="10.629921"
       sodipodi:ry="10.629921"
       d="m -102.75591,240.60039 a 10.629921,10.629921 0 1 1 -21.25984,0 10.629921,10.629921 0 1 1 21.25984,0 z"
       transform="matrix(0,-0.8,-0.8,0,413.58276,269.74013)" /><path
       sodipodi:type="arc"
       style="fill:#0b1728;fill-opacity:1;stroke:none"
       id="path3077-8-5-1-7-6"
       sodipodi:cx="-113.38583"
       sodipodi:cy="240.60039"
       sodipodi:rx="10.629921"
       sodipodi:ry="10.629921"
       d="m -102.75591,240.60039 a 10.629921,10.629921 0 1 1 -21.25984,0 10.629921,10.629921 0 1 1 21.25984,0 z"
       transform="matrix(0,-0.8,-0.8,0,328.54336,269.74013)" /></g></svg>